<?xml version="1.0" encoding="UTF-8"?>
<svg version="1.1" viewBox="-5 0 1200 172.01" xmlns="http://www.w3.org/2000/svg" xmlns:cc="http://creativecommons.org/ns#" xmlns:dc="http://purl.org/dc/elements/1.1/" xmlns:rdf="http://www.w3.org/1999/02/22-rdf-syntax-ns#">
<defs>
<clipPath id="a">
<path d="m0 0h432v3924h-432v-3924z"/>
</clipPath>
</defs>
<metadata>
<rdf:RDF>
<cc:Work rdf:about="">
<dc:format>image/svg+xml</dc:format>
<dc:type rdf:resource="http://purl.org/dc/dcmitype/StillImage"/>
<dc:title/>
</cc:Work>
</rdf:RDF>
</metadata>
<g transform="translate(-894.53 263.41)" fill="#00aeef">
<g transform="matrix(34.443 0 0 -34.443 1042.4 -94.929)">
<path d="m0 0v3.225l-1.228-3.225h-0.556l-1.236 3.225v-3.225h-1.258v4.877h1.748l1.024-2.691 1.016 2.691h1.748v-4.877h-1.258z" fill="#00aeef"/>
</g>
<g transform="matrix(34.443 0 0 -34.443 -771.98 3177.1)">
<g clip-path="url(#a)" fill="#00aeef">
<g transform="translate(56.435 94.999)">
<path d="m0 0v0.351c-0.219-0.263-0.644-0.439-1.097-0.439-0.541 0-1.214 0.373-1.214 1.163 0 0.855 0.673 1.141 1.214 1.141 0.468 0 0.885-0.154 1.097-0.417v0.351c0 0.307-0.263 0.519-0.717 0.519-0.351 0-0.702-0.139-0.987-0.38l-0.417 0.782c0.454 0.388 1.061 0.548 1.602 0.548 0.848 0 1.645-0.314 1.645-1.411v-2.208h-1.126zm0 0.907v0.314c-0.117 0.168-0.38 0.249-0.629 0.249-0.292 0-0.563-0.132-0.563-0.41s0.271-0.409 0.563-0.409c0.249 0 0.512 0.087 0.629 0.256" fill="#00aeef"/>
</g>
<g transform="translate(57.641 95.46)">
<path d="m0 0 0.468 0.804c0.263-0.234 0.826-0.475 1.243-0.475 0.336 0 0.475 0.095 0.475 0.249 0 0.438-2.054-0.015-2.054 1.418 0 0.622 0.541 1.163 1.513 1.163 0.6 0 1.097-0.19 1.477-0.468l-0.431-0.797c-0.212 0.205-0.614 0.387-1.038 0.387-0.264 0-0.439-0.102-0.439-0.241 0-0.387 2.047 0.015 2.047-1.433 0-0.673-0.592-1.155-1.601-1.155-0.636 0-1.287 0.212-1.66 0.548" fill="#00aeef"/>
</g>
<g transform="translate(63.439 94.999)">
<path d="m0 0v2.055c0 0.431-0.227 0.57-0.585 0.57-0.329 0-0.548-0.183-0.68-0.344v-2.281h-1.126v4.877h1.126v-1.777c0.212 0.249 0.629 0.519 1.221 0.519 0.804 0 1.17-0.453 1.17-1.104v-2.515h-1.126z" fill="#00aeef"/>
</g>
<g transform="translate(67.036 94.999)">
<path d="m0 0v0.351c-0.219-0.263-0.644-0.439-1.097-0.439-0.541 0-1.214 0.373-1.214 1.163 0 0.855 0.673 1.141 1.214 1.141 0.468 0 0.885-0.154 1.097-0.417v0.351c0 0.307-0.263 0.519-0.717 0.519-0.351 0-0.702-0.139-0.987-0.38l-0.417 0.782c0.454 0.388 1.061 0.548 1.602 0.548 0.848 0 1.645-0.314 1.645-1.411v-2.208h-1.126zm0 0.907v0.314c-0.117 0.168-0.38 0.249-0.629 0.249-0.292 0-0.563-0.132-0.563-0.41s0.271-0.409 0.563-0.409c0.249 0 0.512 0.087 0.629 0.256" fill="#00aeef"/>
</g>
<g transform="translate(68.549 94.999)">
<path d="m0 0v4.877h1.126v-1.762c0.278 0.351 0.658 0.504 1.046 0.504 0.885 0 1.557-0.694 1.557-1.85 0-1.199-0.687-1.857-1.557-1.857-0.395 0-0.753 0.161-1.046 0.497v-0.409h-1.126zm1.799 0.907c0.446 0 0.782 0.329 0.782 0.862 0 0.527-0.336 0.856-0.782 0.856-0.241 0-0.534-0.132-0.673-0.322v-1.082c0.139-0.19 0.432-0.314 0.673-0.314" fill="#00aeef"/>
</g>
</g>
</g>
<path d="m1723-262.9h38.783v167.98h-38.783v-167.98z"/>
<g transform="matrix(34.443 0 0 -34.443 1767.4 -155.88)">
<path d="m0 0c0 1.024 0.768 1.85 1.872 1.85 1.046 0 1.806-0.768 1.806-1.967v-0.256h-2.515c0.08-0.314 0.373-0.578 0.884-0.578 0.249 0 0.659 0.11 0.863 0.3l0.49-0.738c-0.351-0.315-0.936-0.468-1.477-0.468-1.089 0-1.923 0.709-1.923 1.857m1.872 0.943c-0.49 0-0.68-0.292-0.724-0.548h1.455c-0.029 0.249-0.212 0.548-0.731 0.548" fill="#00aeef"/>
</g>
</g>
</svg>
