<svg xmlns="http://www.w3.org/2000/svg" width="208" height="50" viewBox="0 0 208 50">
    <defs>
        <radialGradient id="1d1ypaa7ta" cx="50%" cy="50%" r="100%" fx="50%" fy="50%">
            <stop offset="0%" stop-color="#1A1546"/>
            <stop offset="100%" stop-color="#0D0A2A"/>
        </radialGradient>
        <linearGradient id="ei10ad74nb" x1="50%" x2="50%" y1="0%" y2="100%">
            <stop offset="0%" stop-color="#00FFB9"/>
            <stop offset="100%" stop-color="#004734"/>
        </linearGradient>
    </defs>
    <g fill="none" fill-rule="evenodd">
        <g>
            <g>
                <g fill-rule="nonzero">
                    <path fill="#FFF" d="M7.097 17.49c2.13-.016 3.737-.454 4.821-1.315 1.085-.861 1.628-2.148 1.628-3.862 0-.945-.245-1.746-.733-2.403-.488-.656-1.189-1.105-2.101-1.345.808-.304 1.42-.777 1.837-1.418.416-.64.624-1.413.624-2.318 0-1.57-.586-2.767-1.759-3.592C10.241.412 8.53 0 6.28 0H0v17.49h7.097zM6.413 7.292H4.215V3.255H6.28c.945 0 1.63.163 2.054.487.424.324.636.855.636 1.592 0 .64-.196 1.125-.588 1.453-.392.328-1.049.497-1.97.505zm.564 6.955H4.215v-4.193h2.954c1.45.008 2.174.741 2.174 2.199 0 .632-.205 1.123-.613 1.471-.408.349-.993.523-1.753.523zm17.476 3.243V0H20.25v17.49h4.203zm15.16 0V3.255h5.247V0H30.245v3.255h5.152V17.49h4.215zm23.168 0v-3.243h-7.83v-4.169h6.629V6.943H54.95V3.255h7.854V0H50.736v17.49h12.045zm9.394 0l2.942-5.922 2.942 5.922h4.864l-5.02-8.817L82.791 0h-4.816l-2.858 5.814L72.26 0h-4.803l4.875 8.673-5.007 8.817h4.851z" transform="translate(-245 -50) translate(245 50) translate(57.59 16.071)"/>
                    <path fill="#00FFB9" d="M99.943 17.49v-3.243h-7.337V0H88.39v17.49h11.552zm10.367 0V0h-4.203v17.49h4.203zm16.12 0L132.314 0h-4.707l-3.483 12.733L120.654 0h-4.672l5.837 17.49h4.61zm23.3 0v-3.243h-7.83v-4.169h6.63V6.943h-6.63V3.255h7.854V0h-12.068v17.49h12.044z" transform="translate(-245 -50) translate(245 50) translate(57.59 16.071)"/>
                </g>
                <g transform="translate(-245 -50) translate(245 50)">
                    <circle cx="25" cy="25" r="25" fill="url(#1d1ypaa7ta)"/>
                    <path fill="url(#ei10ad74nb)" fill-rule="nonzero" d="M25 0c13.807 0 25 11.193 25 25S38.807 50 25 50 0 38.807 0 25 11.193 0 25 0zm0 1.786C12.18 1.786 1.786 12.179 1.786 25c0 12.82 10.393 23.214 23.214 23.214 12.82 0 23.214-10.393 23.214-23.214C48.214 12.18 37.821 1.786 25 1.786z"/>
                    <g fill-rule="nonzero">
                        <path fill="#00FFB9" d="M26.266 17.507L26.266 14.261 18.94 14.261 18.94 0 14.732 0 14.732 17.507z" transform="translate(12.054 16.071)"/>
                        <path fill="#FFF" d="M7.086 17.507c2.126-.016 3.73-.455 4.813-1.316 1.083-.862 1.625-2.15 1.625-3.866 0-.946-.244-1.748-.732-2.405-.487-.657-1.187-1.106-2.098-1.347.807-.304 1.419-.777 1.835-1.419.415-.64.623-1.414.623-2.32 0-1.571-.585-2.77-1.756-3.596C10.225.413 8.516 0 6.27 0H0v17.507h7.086zM6.402 7.3H4.208v-4.04H6.27c.943 0 1.627.162 2.05.487.424.324.636.855.636 1.593 0 .641-.196 1.126-.588 1.455-.391.328-1.047.497-1.966.505zm.564 6.962H4.208v-4.197h2.95c1.446.008 2.17.742 2.17 2.2 0 .634-.204 1.125-.612 1.474-.408.348-.991.523-1.75.523z" transform="translate(12.054 16.071) matrix(-1 0 0 1 13.524 0)"/>
                    </g>
                </g>
            </g>
        </g>
    </g>
</svg>
