<?xml version="1.0" encoding="UTF-8" standalone="no"?>
<svg
   data-v-568129d2=""
   width="23.247"
   height="28"
   viewBox="0 0 23.247 28"
   fill="none"
   class="logo"
   version="1.1"
   id="svg4"
   xmlns="http://www.w3.org/2000/svg"
   xmlns:svg="http://www.w3.org/2000/svg">
  <defs
     id="defs8" />
  <path
     data-v-568129d2=""
     fill-rule="evenodd"
     clip-rule="evenodd"
     d="m 20.3714,13.1981 -10e-5,-10e-5 -0.0392,-0.0298 c 0.8753,-1.2603 1.313,-2.7931 1.313,-4.59856 0,-2.67808 -0.9191,-4.77642 -2.7573,-6.29502 C 17.0495,0.756018 14.5198,-0.00218504 11.2985,4.7295528e-6 H 3.27597 V 1.12171 h 7.87813 c 2.7376,0 5.1798,0.6093 6.7292,1.87225 1.441,1.1759 1.9695,2.18758 2.3913,3.70181 C 19.8463,5.31457 18.8369,4.42607 18.2099,3.90381 17.1119,2.98083 15.748,2.33539 12.0322,2.33539 H 5.84457 v 1.09379 h 6.04973 c 3.1709,0 4.3346,0.39086 5.4014,1.18082 1.3656,1.01167 2.2125,2.22043 2.2125,3.96458 0,1.57172 -0.5515,2.41262 -1.4772,3.28462 -0.1083,-0.0427 -0.2166,-0.0837 -0.3282,-0.1231 l 0.105,-0.0559 c 1.0028,-0.5534 1.6971,-1.616 1.6971,-3.11056 0,-1.63247 -0.9355,-2.65233 -1.8514,-3.22715 C 16.7952,4.80381 15.9778,4.4425 12.4901,4.4425 H 8.04224 v 0.72918 h 4.32306 c 3.148,0 4.3412,0.56004 4.7023,0.78175 0.7074,0.43358 1.6413,1.18576 1.6413,2.62772 0,0.9197 -0.5433,2.02665 -1.3459,2.47825 -0.2606,0.1444 -0.5357,0.2611 -0.8206,0.3482 -1.1948,-0.2709 -2.417,-0.4021 -3.642,-0.3909 H 7.53509 v 1.1217 h 5.21761 c 2.7376,0 5.2159,0.5633 6.7292,1.8723 1.1423,0.9719 1.9734,2.2587 2.3897,3.7001 -0.4267,-1.3812 -1.3032,-2.2187 -2.0631,-2.7919 -1.1489,-0.8688 -2.4619,-1.5701 -6.1777,-1.5684 H 5.21925 v 1.0937 h 8.27365 c 3.1709,0 4.333,0.3909 5.4014,1.1809 1.3656,1.0117 2.1993,2.2204 2.1993,3.9646 0,1.6817 -0.8469,2.9085 -2.219,3.9202 -1.4033,1.0347 -3.5484,1.0659 -4.4215,1.0659 H 9.85749 v 1.0921 h 3.43521 c 2.8755,0 4.7958,-0.2463 6.4584,-1.4781 1.5592,-1.1595 2.388,-2.6589 2.388,-4.5985 0.0152,1.0394 -0.2081,2.0684 -0.6525,3.0079 -0.4444,0.9395 -1.0982,1.7646 -1.9111,2.4118 -1.574,1.3007 -4.3822,1.8739 -7.1921,1.8739 H 3.33834 V 28 h 9.10906 c 3.392,0 6.0393,-0.7368 7.9421,-2.2106 1.9028,-1.4737 2.8553,-3.5441 2.8575,-6.2112 -0.0066,-2.6814 -0.9295,-4.7803 -2.7688,-6.2967 -0.035,-0.0289 -0.0708,-0.0561 -0.1068,-0.0834 z m 0.1609,-4.62517 c 9e-4,0.04658 0.0012,0.09313 0.0011,0.13965 3e-4,-0.0465 -10e-5,-0.09304 -0.0011,-0.13965 z m 0.0011,0.13965 c -0.0033,1.35472 -0.4106,2.67882 -1.1713,3.80192 -0.0968,-0.0558 -0.1953,-0.11 -0.2938,-0.1642 0.935,-0.9826 1.458,-2.2844 1.4651,-3.63772 z m -5.639,9.29382 H 7.00977 v 0.6106 h 7.88463 z m -4.6332,2.2221 h 4.5857 v 0.5236 H 10.2612 Z M 5.66414,18.0064 H 3.32861 v 0.6106 h 2.33553 z m -3.79158,2.1794 h 7.09357 v 0.6105 H 1.87256 Z M 8.5476,24.8467 H 1.87256 v 0.732 H 8.5476 Z M 3.62061,4.61331 H 6.3845 V 5.11719 H 3.62061 Z m 4.4051,4.00733 h -6.3304 v 0.58592 h 6.3304 z M 4.38037,6.83043 H 14.8616 V 7.41637 H 4.38037 Z M 14.6631,8.62064 H 9.62109 v 0.58592 h 5.04201 z m 6.4207,10.95926 c 0,1.4108 -0.6812,2.4668 -1.6856,3.0005 -1.0012,0.5305 -2.4192,0.836 -4.8171,0.836 H 0 v -0.6947 h 14.5154 c 2.2124,0 3.6994,-0.3564 4.4314,-0.7539 0.8043,-0.4385 1.3475,-1.5043 1.3475,-2.3912 0,-1.3878 -0.9338,-2.1186 -1.6412,-2.5374 -0.3611,-0.2135 -1.556,-0.7538 -4.7023,-0.7538 H 8.41316 v -0.6947 h 5.66734 c 3.5517,0 4.305,0.3498 5.1651,0.8688 0.9158,0.5567 1.8382,1.5454 1.8382,3.1204 z M 0.208496,26.8931 H 1.87766 V 27.955 H 0.208496 Z"
     fill="#1f2020"
     id="path2" />
</svg>
