<?xml version="1.0" encoding="UTF-8"?>
<svg width="338px" height="80px" viewBox="0 0 338 80" version="1.1" xmlns="http://www.w3.org/2000/svg" xmlns:xlink="http://www.w3.org/1999/xlink">
    <title>切片</title>
    <defs>
        <polygon id="path-1" points="0 0 55.8954114 0 55.8954114 64.0335676 0 64.0335676"></polygon>
        <polygon id="path-3" points="0 0 57.1579361 0 57.1579361 32.0273815 0 32.0273815"></polygon>
    </defs>
    <g id="关于我们" stroke="none" stroke-width="1" fill="none" fill-rule="evenodd">
        <g id="关于我们-pc" transform="translate(-360.000000, -1613.000000)">
            <g id="编组备份" transform="translate(360.000000, 1613.000000)">
                <path d="M123.258787,60.0812388 L136.167522,60.0812388 C137.273877,60.0812388 138.395285,59.9604742 139.533,59.7189451 C140.66946,59.4786482 141.700553,59.0547399 142.622516,58.4509171 C143.544479,57.8483265 144.295848,57.0621244 144.881639,56.0960078 C145.464922,55.1298912 145.75719,53.9530528 145.75719,52.5630279 C145.75719,51.054703 145.372098,49.8310374 144.604423,48.8944958 C143.835493,47.9591865 142.867119,47.2493865 141.700553,46.765096 C140.531479,46.2832699 139.270836,45.9505512 137.919878,45.7694044 C136.566412,45.5882575 135.305769,45.4970679 134.139203,45.4970679 L123.258787,45.4970679 L123.258787,60.0812388 Z M123.258787,33.5401427 L133.677595,33.5401427 C134.785205,33.5401427 135.875253,33.4206104 136.951504,33.1778489 C138.0265,32.9375521 138.994875,32.5444511 139.856628,32.0010105 C140.715872,31.4575699 141.40703,30.7329824 141.930103,29.8260158 C142.451922,28.9202815 142.714085,27.8334003 142.714085,26.5653723 C142.714085,25.2381943 142.421817,24.1352933 141.838534,23.259134 C141.253997,22.384207 140.501374,21.7052143 139.579412,21.2209237 C138.657449,20.7378654 137.611303,20.3915915 136.444738,20.1796373 C135.275664,19.9689154 134.139203,19.8629384 133.032848,19.8629384 L123.258787,19.8629384 L123.258787,33.5401427 Z M108.874911,7.90478083 L133.21724,7.90478083 C136.043339,7.90478083 138.888253,8.10194748 141.745711,8.49381621 C144.604423,8.88814951 147.170867,9.67188696 149.445042,10.8499577 C151.719217,12.0267962 153.563143,13.6731377 154.978073,15.7865178 C156.390495,17.9011302 157.097961,20.7082904 157.097961,24.2104631 C157.097961,27.8334003 156.068122,30.8389595 154.009699,33.2234437 C151.948767,35.6091602 149.22929,37.3146518 145.848759,38.3411507 L145.848759,38.5222975 C148.000006,38.8254413 149.953062,39.4144767 151.704164,40.2894037 C153.456521,41.1643307 154.961767,42.2820192 156.22241,43.6400045 C157.481798,44.9992221 158.450173,46.5839491 159.127534,48.39665 C159.802385,50.2081186 160.141066,52.1415841 160.141066,54.1933496 C160.141066,57.57599 159.403495,60.3979378 157.928355,62.6628897 C156.453214,64.9278416 154.54657,66.75533 152.212185,68.1428904 C149.875291,69.5329153 147.247383,70.5298392 144.328461,71.1324298 C141.40703,71.7374849 138.503161,72.0381641 135.614344,72.0381641 L108.874911,72.0381641 L108.874911,7.90478083 Z" id="Fill-1" fill="#2E4A9D"></path>
                <polygon id="Fill-3" fill="#2E4A9D" points="183.501096 20.5668233 164.932638 20.5668233 164.932638 8.10465852 216.408273 8.10465852 216.408273 20.5668233 197.841069 20.5668233 197.841069 72.0384105 183.501096 72.0384105"></polygon>
                <path d="M264.933249,25.245588 C263.588563,23.6399121 261.939065,22.4051559 259.9835,21.5450164 C258.025427,20.6836446 255.762541,20.2535748 253.193588,20.2535748 C250.622127,20.2535748 248.243839,20.7415623 246.053707,21.7163049 C243.863575,22.6935121 241.964457,24.0551943 240.358862,25.8050484 C238.752012,27.5561347 237.496386,29.6350106 236.59073,32.045373 C235.685074,34.454503 235.2335,37.0669612 235.2335,39.876586 C235.2335,42.7465931 235.685074,45.3726065 236.59073,47.7521615 C237.496386,50.1341811 238.738214,52.1995018 240.314959,53.9493559 C241.891703,55.7004422 243.745664,57.0621244 245.878095,58.0380994 C248.009272,59.0140743 250.302263,59.5008295 252.755813,59.5008295 C255.559333,59.5008295 258.040479,58.9278139 260.203015,57.7793181 C262.363043,56.6320547 264.14425,55.0251465 265.546637,52.9598258 L276.935074,61.3086012 C274.307166,64.9229125 270.978064,67.5908237 266.949024,69.3123351 C262.918729,71.0338464 258.770523,71.893986 254.50817,71.893986 C249.65877,71.893986 245.1907,71.1484495 241.103958,69.6573767 C237.014708,68.1650716 233.481144,66.028278 230.502012,63.2445313 C227.52288,60.4620169 225.202293,57.0904671 223.537743,53.1311143 C221.873192,49.1729937 221.040289,44.7552284 221.040289,39.876586 C221.040289,35.0004082 221.873192,30.5814106 223.537743,26.6220577 C225.202293,22.6639371 227.52288,19.2936197 230.502012,16.509873 C233.481144,13.7273586 237.014708,11.590565 241.103958,10.0970276 C245.1907,8.60595474 249.65877,7.86041833 254.50817,7.86041833 C256.259272,7.86041833 258.084382,8.01815166 259.9835,8.3336183 C261.88011,8.64908495 263.750377,9.15062762 265.59054,9.83947862 C267.430702,10.5283296 269.195603,11.4463868 270.890258,12.5936503 C272.58366,13.7421461 274.102703,15.1469585 275.446135,16.8105521 L264.933249,25.245588 Z" id="Fill-5" fill="#2E4A9D"></path>
                <g id="编组" transform="translate(282.104589, 7.860418)">
                    <mask id="mask-2" fill="white">
                        <use xlink:href="#path-1"></use>
                    </mask>
                    <g id="Clip-8"></g>
                    <path d="M43.8929598,17.3851697 C42.5482738,15.7794937 40.8987756,14.5447376 38.9432108,13.684598 C36.9851372,12.8232262 34.7235058,12.3931565 32.153299,12.3931565 C29.5818379,12.3931565 27.2035499,12.8811439 25.0134177,13.8558866 C22.8232854,14.8330938 20.9241673,16.194776 19.3185721,17.9446301 C17.7117225,19.6957164 16.4560968,21.7745923 15.5516951,24.1849546 C14.6447847,26.5940847 14.193211,29.2065429 14.193211,32.0161677 C14.193211,34.8861748 14.6447847,37.5121881 15.5516951,39.8917432 C16.4560968,42.2737628 17.6979244,44.3390835 19.2746691,46.0889376 C20.8514138,47.8400239 22.7053745,49.2017061 24.8378057,50.177681 C26.9689825,51.153656 29.2619732,51.6404112 31.7155234,51.6404112 C34.5190432,51.6404112 37.0001896,51.0673956 39.1627257,49.9188998 C41.3227531,48.7716363 43.1052147,47.1647281 44.5063474,45.0994074 L55.8960386,53.4481829 C53.2668764,57.0624941 49.937775,59.7304054 45.9087345,61.4519168 C41.8771852,63.1734281 37.7302337,64.0335676 33.4678801,64.0335676 C28.6184807,64.0335676 24.1504102,63.2880312 20.0636686,61.7969584 C15.9731639,60.3046533 12.4408544,58.1678597 9.46297693,55.384113 C6.48259077,52.6015986 4.16200391,49.2300488 2.49745322,45.270696 C0.83290253,41.3125754 0,36.89481 0,32.0161677 C0,27.1399899 0.83290253,22.7209922 2.49745322,18.7616394 C4.16200391,14.8035188 6.48259077,11.4332013 9.46297693,8.64945463 C12.4408544,5.86694024 15.9731639,3.73014663 20.0636686,2.23660923 C24.1504102,0.745536409 28.6184807,0 33.4678801,0 C35.2189824,0 37.0440926,0.157733323 38.9432108,0.473199969 C40.8398201,0.788666614 42.7100877,1.29020929 44.5502504,1.97906029 C46.3891587,2.66791128 48.1553134,3.58596851 49.849969,4.73323198 C51.5446246,5.88172773 53.0624139,7.28654014 54.4070999,8.95013378 L43.8929598,17.3851697 Z" id="Fill-7" fill="#2E4A9D" mask="url(#mask-2)"></path>
                </g>
                <g id="编组" transform="translate(12.137422, 0.000000)">
                    <mask id="mask-4" fill="white">
                        <use xlink:href="#path-3"></use>
                    </mask>
                    <g id="Clip-10"></g>
                    <path d="M50.9124215,2.92681574 C47.1455446,0.844242965 44.724608,-0.00110906243 44.724608,-0.00110906243 C44.724608,-0.00110906243 39.5365284,2.77524388 36.758096,4.44006981 C33.6284396,6.31684989 28.5783409,10.0075632 28.5783409,10.0075632 C28.5783409,10.0075632 23.5294965,6.31684989 20.3985858,4.44006981 C17.6214077,2.77524388 12.4345825,-0.00110906243 12.4345825,-0.00110906243 C12.4345825,-0.00110906243 10.0136459,0.844242965 6.24676897,2.92681574 C2.47989202,5.00938852 0,7.51094044 0,7.51094044 C0,7.51094044 9.37767969,14.8886702 14.3111219,19.1918324 C19.2433098,23.4937623 28.5795952,32.0273815 28.5795952,32.0273815 C28.5795952,32.0273815 37.9158807,23.4937623 42.8480685,19.1918324 C47.7802564,14.8886702 57.1579361,7.51094044 57.1579361,7.51094044 C57.1579361,7.51094044 54.6792985,5.00938852 50.9124215,2.92681574" id="Fill-9" fill="#2E4A9D" mask="url(#mask-4)"></path>
                </g>
                <path d="M18.38394,77.0733075 C22.150817,79.1558803 24.5717536,80 24.5717536,80 C24.5717536,80 29.7598332,77.2248794 32.5370112,75.5600534 C35.6666675,73.6832733 40.7167663,69.99256 40.7167663,69.99256 C40.7167663,69.99256 45.7656107,73.6832733 48.8965214,75.5600534 C51.6736994,77.2248794 56.861779,80 56.861779,80 C56.861779,80 59.28397,79.154648 63.0495926,77.0733075 C66.8164695,74.9907347 69.2951072,72.4891828 69.2951072,72.4891828 C69.2951072,72.4891828 59.9186819,65.1114531 54.9852396,60.8082909 C50.0530517,56.5063609 40.7167663,47.9727417 40.7167663,47.9727417 C40.7167663,47.9727417 31.3804809,56.5063609 26.448293,60.8082909 C21.5148508,65.1114531 12.1384254,72.4891828 12.1384254,72.4891828 C12.1384254,72.4891828 14.6170631,74.9907347 18.38394,77.0733075" id="Fill-11" fill="#2E4A9D"></path>
                <path d="M78.4541499,61.9675076 C80.5740374,58.2669359 81.4345361,55.8886132 81.4345361,55.8886132 C81.4345361,55.8886132 78.6084376,50.7918552 76.913782,48.0635616 C75.0033746,44.9877618 71.2465326,40.0277882 71.2465326,40.0277882 C71.2465326,40.0277882 75.0033746,35.0678145 76.913782,31.9920148 C78.6084376,29.2637212 81.4345361,24.1669632 81.4345361,24.1669632 C81.4345361,24.1669632 80.572783,21.7886404 78.4541499,18.0880688 C76.3342625,14.3874972 73.7878888,11.9512567 73.7878888,11.9512567 C73.7878888,11.9512567 66.2779679,21.1638686 61.8977034,26.0104714 C57.5186933,30.8558419 48.8321722,40.0277882 48.8321722,40.0277882 C48.8321722,40.0277882 57.5186933,49.1997344 61.8977034,54.045105 C66.2779679,58.8917078 73.7878888,68.1030874 73.7878888,68.1030874 C73.7878888,68.1030874 76.3342625,65.6680792 78.4541499,61.9675076" id="Fill-13" fill="#2E4A9D"></path>
                <path d="M2.97913179,18.0879456 C0.860498698,21.7885172 0,24.16684 0,24.16684 C0,24.16684 2.82484412,29.263598 4.51949972,31.9918915 C6.42990718,35.0676913 10.1867492,40.0276649 10.1867492,40.0276649 C10.1867492,40.0276649 6.42990718,44.9876386 4.51949972,48.0634384 C2.82484412,50.7917319 0,55.8884899 0,55.8884899 C0,55.8884899 0.860498698,58.2668127 2.97913179,61.9673843 C5.09901925,65.667956 7.64539295,68.1029641 7.64539295,68.1029641 C7.64539295,68.1029641 15.1553138,58.8903522 19.5355783,54.0449817 C23.9145884,49.1996112 32.6011096,40.0264327 32.6011096,40.0264327 C32.6011096,40.0264327 23.9145884,30.8557187 19.5355783,26.0103482 C15.1553138,21.1637454 7.64539295,11.9511335 7.64539295,11.9511335 C7.64539295,11.9511335 5.09901925,14.3873739 2.97913179,18.0879456" id="Fill-15" fill="#2E4A9D"></path>
            </g>
        </g>
    </g>
</svg>