<svg xmlns="http://www.w3.org/2000/svg" fill="none" viewBox="0 0 113 24">
  <path fill="#fff" d="M43.07 10.52v-1.9H32.19v7.91h2.27v-2.12h6.83v-1.89h-6.83v-2h8.61Zm13.97-1.89-3.4 5.7-3.4-5.7h-3.3v7.9h2.27v-5.9l3.52 5.9h1.81l3.52-5.9v5.9h2.27v-7.9h-3.29Zm18.81 1.89v-1.9H64.96v7.91h2.27v-2.12h6.83v-1.89h-6.83v-2h8.62Zm14.89-1.89v5.9l-3.52-5.9h-1.81l-3.52 5.9v-5.9h-2.27v7.9h3.3l3.4-5.7 3.4 5.7h3.3v-7.9h-2.28Zm7.66 5.87h-2.38v2.05h2.38V14.5Zm4.9-3.27h-2.08v5.32h2.08v-5.32Zm0-2.61h-2.08v1.57h2.08V8.62Zm9.04 3.66c-.3-.44-.74-.78-1.25-.97a5.73 5.73 0 0 0-3.73 0c-.5.19-.94.53-1.25.97-.3.43-.45.97-.45 1.6a2.8 2.8 0 0 0 .44 1.6c.31.45.75.8 1.26.99 1.2.42 2.52.42 3.73 0 .5-.2.95-.54 1.25-.98.31-.48.47-1.04.45-1.6 0-.64-.15-1.18-.45-1.61Zm-4.64 1.7v-.18c0-.23.05-.45.17-.64.13-.18.3-.31.5-.4a2.6 2.6 0 0 1 1.7 0 1.08 1.08 0 0 1 .68 1.03v.19c0 .22-.06.44-.18.63-.12.18-.3.32-.5.4-.55.2-1.15.2-1.7 0a1.1 1.1 0 0 1-.5-.4 1.14 1.14 0 0 1-.17-.63Z"/>
  <path fill="#3BAF4A" d="M3.96 14.83a3.79 3.79 0 0 0 1.32 5.29 3.92 3.92 0 0 0 5.35-1.36l.32-.55-1.17-.67-.32.54a2.54 2.54 0 0 1-3.44.8 2.47 2.47 0 0 1-.9-3.37l3-4.96-.37-.65a5.75 5.75 0 0 1 2.36-7.83 6 6 0 0 1 7.99 2.18l1.93 3.42.8-1.31-1.55-2.76A7.36 7.36 0 0 0 9.46.9a7.06 7.06 0 0 0-2.89 9.64l-2.6 4.3Z"/>
  <path fill="#3BAF4A" d="M18.66 20.55c1.02 0 2-.4 2.72-1.11a3.77 3.77 0 0 0 0-5.38 3.89 3.89 0 0 0-2.72-1.1h-.64v1.32h.64c.66 0 1.3.26 1.77.72a2.46 2.46 0 0 1 0 3.5c-.47.46-1.1.72-1.77.72H12.7l-.35.6a5.89 5.89 0 0 1-5.94 2.77 5.95 5.95 0 0 1-4.87-4.36 5.7 5.7 0 0 1 .67-4.41l2.04-3.36-1.56-.03-1.64 2.7a7.06 7.06 0 0 0 2.45 9.84 7.36 7.36 0 0 0 9.98-2.42h5.18Z"/>
  <path fill="#3BAF4A" d="m18.78 9.58-2.45-4.34A3.84 3.84 0 0 0 14 3.34a3.94 3.94 0 0 0-4.18 1.3 3.8 3.8 0 0 0-.27 4.32l.32.55 1.17-.66-.32-.54A2.46 2.46 0 0 1 11.76 5a2.57 2.57 0 0 1 3.4.89l2.83 5.01h.63a6 6 0 0 1 4.2 1.72 5.8 5.8 0 0 1 0 8.27 5.99 5.99 0 0 1-4.2 1.72h-4l.76 1.32h3.24a7.34 7.34 0 0 0 5.15-2.05 7.13 7.13 0 0 0 .12-10.13 7.34 7.34 0 0 0-5.1-2.17Z"/>
</svg>