<svg xmlns="http://www.w3.org/2000/svg" xmlns:xlink="http://www.w3.org/1999/xlink" width="160" height="60" viewBox="0 0 160 60"><defs><clipPath id="b"><rect width="160" height="60"/></clipPath></defs><g id="a" clip-path="url(#b)"><g transform="translate(-453 -183)"><g transform="translate(516.662 198.694)"><path d="M12.258-102.084a6.651,6.651,0,0,1,3.09.694,5.934,5.934,0,0,1,2.11,1.729v-2.178h3.13v15.244a7.664,7.664,0,0,1-.871,3.688A6.294,6.294,0,0,1,17.2-80.361a7.906,7.906,0,0,1-3.933.926A8.536,8.536,0,0,1,8.2-80.865a5.273,5.273,0,0,1-2.287-3.879H8.991A3.339,3.339,0,0,0,10.5-82.852a5.117,5.117,0,0,0,2.763.721A4.131,4.131,0,0,0,16.3-83.274a4.466,4.466,0,0,0,1.157-3.321v-2.5a6.327,6.327,0,0,1-2.137,1.783,6.386,6.386,0,0,1-3.062.721,6.712,6.712,0,0,1-3.58-.994,7.012,7.012,0,0,1-2.559-2.777,8.542,8.542,0,0,1-.939-4.042,8.3,8.3,0,0,1,.939-4,6.883,6.883,0,0,1,2.559-2.709A6.855,6.855,0,0,1,12.258-102.084Zm5.2,7.731a5.431,5.431,0,0,0-.64-2.695,4.491,4.491,0,0,0-1.674-1.742,4.38,4.38,0,0,0-2.232-.6,4.458,4.458,0,0,0-2.232.585A4.414,4.414,0,0,0,9-97.088a5.354,5.354,0,0,0-.64,2.681A5.587,5.587,0,0,0,9-91.685,4.513,4.513,0,0,0,10.692-89.9a4.329,4.329,0,0,0,2.219.612,4.38,4.38,0,0,0,2.232-.6,4.468,4.468,0,0,0,1.674-1.756A5.509,5.509,0,0,0,17.457-94.353Zm8.792-9.473a1.922,1.922,0,0,1-1.416-.572,1.922,1.922,0,0,1-.572-1.416,1.922,1.922,0,0,1,.572-1.416,1.922,1.922,0,0,1,1.416-.572,1.89,1.89,0,0,1,1.388.572,1.922,1.922,0,0,1,.572,1.416,1.922,1.922,0,0,1-.572,1.416A1.89,1.89,0,0,1,26.249-103.826Zm1.524,1.987v15h-3.1v-15ZM38.363-86.595a7.681,7.681,0,0,1-3.838-.966,6.942,6.942,0,0,1-2.695-2.722,8.211,8.211,0,0,1-.98-4.07,8.054,8.054,0,0,1,1.007-4.056,6.957,6.957,0,0,1,2.749-2.722,7.978,7.978,0,0,1,3.893-.953,7.978,7.978,0,0,1,3.893.953,6.957,6.957,0,0,1,2.749,2.722,8.054,8.054,0,0,1,1.007,4.056A7.886,7.886,0,0,1,45.114-90.3,7.162,7.162,0,0,1,42.3-87.561,8.121,8.121,0,0,1,38.363-86.595Zm0-2.695a4.618,4.618,0,0,0,2.246-.572,4.356,4.356,0,0,0,1.7-1.715,5.514,5.514,0,0,0,.653-2.777,5.628,5.628,0,0,0-.626-2.763,4.227,4.227,0,0,0-1.66-1.7,4.541,4.541,0,0,0-2.232-.572,4.465,4.465,0,0,0-2.219.572,4.08,4.08,0,0,0-1.62,1.7,5.839,5.839,0,0,0-.6,2.763,5.263,5.263,0,0,0,1.239,3.743A4.093,4.093,0,0,0,38.363-89.29ZM52.844-99.307V-91a1.594,1.594,0,0,0,.395,1.211,1.963,1.963,0,0,0,1.347.367h1.905v2.586h-2.45a4.722,4.722,0,0,1-3.212-.98A4.039,4.039,0,0,1,49.714-91v-8.3H47.945v-2.532h1.769v-3.729h3.13v3.729h3.648v2.532Zm10.126,0V-91a1.594,1.594,0,0,0,.395,1.211,1.963,1.963,0,0,0,1.347.367h1.905v2.586h-2.45a4.722,4.722,0,0,1-3.212-.98A4.039,4.039,0,0,1,59.84-91v-8.3H58.071v-2.532H59.84v-3.729h3.13v3.729h3.648v2.532Zm20.089-2.532v15h-3.1v-1.769a5.023,5.023,0,0,1-1.919,1.456,6.085,6.085,0,0,1-2.518.531,6.726,6.726,0,0,1-3.171-.735,5.31,5.31,0,0,1-2.2-2.178,7.064,7.064,0,0,1-.8-3.484v-8.82h3.076v8.357a4.353,4.353,0,0,0,1.007,3.09,3.585,3.585,0,0,0,2.749,1.075,3.629,3.629,0,0,0,2.763-1.075,4.317,4.317,0,0,0,1.021-3.09v-8.357Zm9.527,15.244a7.557,7.557,0,0,1-3.171-.64A5.57,5.57,0,0,1,87.2-88.977a4.342,4.342,0,0,1-.871-2.464h3.212a2.19,2.19,0,0,0,.912,1.592,3.311,3.311,0,0,0,2.082.64,3.507,3.507,0,0,0,2.028-.5A1.52,1.52,0,0,0,95.282-91a1.328,1.328,0,0,0-.8-1.252,15.053,15.053,0,0,0-2.545-.9,24.567,24.567,0,0,1-2.749-.9,4.82,4.82,0,0,1-1.837-1.334,3.5,3.5,0,0,1-.776-2.368,3.693,3.693,0,0,1,.708-2.191,4.713,4.713,0,0,1,2.028-1.565,7.577,7.577,0,0,1,3.035-.572,6.267,6.267,0,0,1,4.124,1.293,4.643,4.643,0,0,1,1.674,3.525h-3.1a2.21,2.21,0,0,0-.817-1.606,3.054,3.054,0,0,0-1.987-.6,3.226,3.226,0,0,0-1.878.463,1.433,1.433,0,0,0-.653,1.225,1.326,1.326,0,0,0,.436,1.007,3.1,3.1,0,0,0,1.062.64q.626.231,1.851.585a20.137,20.137,0,0,1,2.681.885,4.992,4.992,0,0,1,1.81,1.32,3.493,3.493,0,0,1,.789,2.314,3.88,3.88,0,0,1-.708,2.287,4.692,4.692,0,0,1-2,1.579A7.455,7.455,0,0,1,92.587-86.595Z" transform="translate(-5.18 107.8)" fill="#fff"/></g><path d="M51.313,25.657A25.657,25.657,0,1,0,6.95,43.211c1.841,2.275,5.047,5.7,7.966,6.145a11.632,11.632,0,0,0,3.816-.046.608.608,0,0,0,.23,0,.492.492,0,0,0,.18-.087,6.645,6.645,0,0,1,1.356-.668c.73-.317.2-.551.376-.818s.959-.712,1.131-1.177a5.285,5.285,0,0,0,.1-2.129c-.012-.023-.04-.071-.08-.138a9.361,9.361,0,0,0-2.286-2.585,17.127,17.127,0,0,1-6.35-4.134v0a17.22,17.22,0,0,1-2.837-3.885l-.02-.039q-.176-.334-.339-.676l-.022-.045q-.34-.722-.613-1.479l-.019-.058q-.117-.329-.221-.664c-.017-.055-.033-.11-.05-.165-.06-.2-.115-.4-.167-.6-.015-.055-.029-.11-.043-.165q-.187-.752-.307-1.528c-.011-.067-.019-.134-.028-.2q-.04-.284-.071-.571c-.009-.085-.017-.17-.025-.256-.017-.183-.03-.368-.041-.554,0-.08-.011-.16-.014-.239-.012-.262-.02-.525-.02-.79a17.1,17.1,0,0,1,17.1-17.1l.057,0A17.1,17.1,0,0,1,39.941,35.062h0c-.138.209-.282.414-.428.617-.084.115-.171.226-.257.34-.075.1-.148.2-.224.292s-.155.187-.233.281c-.093.111-.185.222-.28.331-.069.08-.141.156-.212.234-.109.12-.217.239-.329.355a17.13,17.13,0,0,1-2.83,2.374c-1.1.867-2.637,2.171-2.064,2.008,1.543-.437,1.029,0,1.029,0s-.93.784-1.264,1.128a.411.411,0,0,0-.037.038l-.011.011h0a.492.492,0,0,0-.1.205c-.024.114.183.111.365.126l.079.351c-.368.225-1.2.316-1.493.561-.352.289.879.192.948.2s.032.128-.3.317-.068.249.026.323.437-.208.558-.129-.442.291-.349.532c.07.18.715.131,1.042.1l.019.084a10.683,10.683,0,0,1-2.587,1.1c-.246.044-.153.106.053.158a2.906,2.906,0,0,0-.378,0l.461.017.009,0-.01.012a2.014,2.014,0,0,1-.4.014c.041.009.113.019.069.031.183.011.365.018.532.011l.178-.011.1.009A6.877,6.877,0,0,0,33.062,47c.5-.074.548-.178.751-.055s-.446.364-.813.427c-.2.035-.173.081-.054.106a1.334,1.334,0,0,0-.408.053c-.164.054-.056.049.094.037s.322-.037.339-.011c0-.019.1-.057-.053-.045l.1-.023a1.121,1.121,0,0,0,.311-.008c.1-.018.33-.08.619-.161l.023.1.187-.067c.153-.06.311-.118.471-.175s.323-.114.489-.17.329-.126.5-.19l.392-.151c.234-.079.372-.114.5-.163a3.564,3.564,0,0,1-.351.184c-.107.05-.217.105-.317.152a1.4,1.4,0,0,0-.243.136c-.013-.032-.128.008-.257.062.247-.086.066.03.1.045.547-.2.292-.154.445-.245a2.372,2.372,0,0,1,.4-.163l-.145.09a3.314,3.314,0,0,1,.537-.228l.091-.062.024-.01c.076-.032.155-.06.229-.1-.015-.028-.064-.009-.136.024.029-.021.058-.041.087-.062a1.654,1.654,0,0,1-.4.167l.288-.177c.159-.068.344-.161.531-.255a.226.226,0,0,1,.131.063l-.05.027.05-.026a.362.362,0,0,1,.086.148.417.417,0,0,1,.022.114l-.179.072c-.133.092-.266.187-.4.277a3.943,3.943,0,0,1,.564-.291l-.086.024.1-.064c0,.115-.082.217-.282.351l-.061.04,0-.014c-.135.074-.275.136-.415.2l-.417.194-.011.027.417-.194c.11-.052.221-.1.329-.157a9.99,9.99,0,0,1-1.375.7c-.428.155-.271-.087-.6.019-.175.056-.442.2-.717.326l-.247.072-.247.036-.113.015-.114.01-.461.04c-.078.006-.156.017-.237.019l-.243.01c-.164.007-.333.018-.507.024s-.357,0-.545.01l.564,0c.188-.006.376-.017.563-.024-.123.011-.235.028-.352.043-.059.007-.12.015-.184.02h.014l.213-.01.424-.02.109,0,.111-.011.233-.021.252-.022c.088-.008.18-.015.278-.028L34,48.085c.028,0,.062,0,.1-.008a1.564,1.564,0,0,1-.291.08c-.421.061-.524.088-.76.381s-.192.235-.639.189a1.906,1.906,0,0,0-1.126.322c-.192.132.264.349,1.1.28s.156.243,1.1-.028,1.648-.29,2.085-.441A1.778,1.778,0,0,1,36.6,48.7c.243.081.2-.172.554-.324l.067-.028c.393-.137.486-.015.546-.215l.006-.015.122-.057.025-.012V48.2q.825-.45,1.612-.96v.144c.328-.209.645-.433.962-.656a2.126,2.126,0,0,0,.213-.145,25.408,25.408,0,0,0,10.6-20.662c0-.049,0-.1,0-.149s0-.074,0-.111M37.877,48.037l-.089.05a.819.819,0,0,1,.135-.2v.132l-.045.023" transform="translate(457 188)" fill="#ef724b"/></g></g></svg>