<svg xmlns="http://www.w3.org/2000/svg" width="180" height="50" viewBox="0 0 180 50" fill="none">
  <path d="M47.3432 9.73836C39.9872 9.68495 33.9492 15.7555 33.9492 23.1257V38.222C33.9492 38.7383 34.3767 39.1656 34.8932 39.1656H40.5928C41.1093 39.1656 41.5368 38.7383 41.5368 38.222V23.0901C41.5368 19.9391 44.066 17.3399 47.2186 17.3399C50.3711 17.3221 52.936 19.8857 52.936 23.0367V38.222C52.936 38.7383 53.3634 39.1656 53.8799 39.1656H59.5795C60.0961 39.1656 60.5235 38.7383 60.5235 38.222V23.0367C60.5591 15.7199 54.6458 9.77396 47.3432 9.73836Z" fill="#000088"/>
  <path d="M15.1929 40.1087C6.80387 40.1087 0 33.3082 0 24.9234C0 16.5385 6.80387 9.73801 15.1929 9.73801C23.582 9.73801 30.3859 16.5385 30.3859 24.9234C30.3859 33.3082 23.582 40.1087 15.1929 40.1087ZM22.7983 24.9234C22.7983 20.722 19.3964 17.3218 15.1929 17.3218C10.9895 17.3218 7.58756 20.722 7.58756 24.9234C7.58756 29.1247 10.9895 32.5249 15.1929 32.5249C19.3964 32.5249 22.7983 29.1247 22.7983 24.9234Z" fill="#000088"/>
  <path d="M112.531 18.7101C112.816 19.1374 113.368 19.262 113.796 19.0127L116.325 17.5529L118.765 16.1466C119.264 15.8617 119.388 15.203 119.05 14.7402C116.467 11.3756 112.727 9.71994 107.776 9.71994C104.356 9.71994 101.506 10.521 99.155 12.1945C96.8752 13.7967 95.7352 16.0576 95.7352 18.8703C95.7352 21.5229 96.9464 23.5879 99.2797 25.1367C100.224 25.7776 101.364 26.2939 102.699 26.7389C103.643 27.0238 104.855 27.3798 106.315 27.7181C110.18 28.5726 112.086 29.6763 112.086 30.8869C112.086 32.5603 110.625 33.3614 107.722 33.3614C104.944 33.3614 102.931 32.3823 101.844 30.335C101.595 29.8543 100.99 29.6941 100.526 29.9611L97.9616 31.4387L95.3434 32.9519C94.8803 33.219 94.72 33.8242 95.0228 34.2871C97.4807 38.1502 101.72 40.0907 107.722 40.0907C111.338 40.0907 114.312 39.2896 116.77 37.7229C119.246 36.1207 120.439 33.8064 120.439 30.8691C120.511 28.1097 119.299 25.92 116.895 24.3712C115.185 23.2853 112.834 22.413 109.859 21.8433C105.994 20.9888 104.089 19.885 104.089 18.6745C104.089 17.1257 105.3 16.3068 107.758 16.3068C109.806 16.3424 111.498 17.1435 112.531 18.7101Z" fill="#000088"/>
  <path d="M83.8188 11.625V26.7569C83.8188 29.9079 81.2896 32.5071 78.137 32.5071C74.9844 32.5249 72.4196 29.9613 72.4196 26.8103V11.625C72.4196 11.1087 71.9921 10.6815 71.4756 10.6815H65.776C65.2595 10.6815 64.832 11.1087 64.832 11.625V26.7213C64.832 34.0737 70.8522 40.1442 78.2261 40.1086C85.5286 40.0552 91.4419 34.1271 91.4419 26.8103V11.625C91.4419 11.1087 91.0145 10.6815 90.498 10.6815H84.7984C84.2462 10.6815 83.8188 11.1087 83.8188 11.625Z" fill="#000088"/>
  <path d="M142.437 15.577C143.167 15.9865 144.075 15.844 144.645 15.2388C147.246 12.4438 150.968 10.6814 155.083 10.6814C159.215 10.6814 162.92 12.426 165.52 15.2388C166.09 15.844 166.998 15.9865 167.729 15.577L174.016 11.9453C174.96 11.3935 175.209 10.1473 174.515 9.2928C169.937 3.61387 162.937 0 155.083 0C147.228 0 140.228 3.63167 135.651 9.2928C134.974 10.1473 135.223 11.3935 136.149 11.9453L142.437 15.577Z" fill="#0068FF"/>
  <path d="M168.69 20.7214C169.135 22.1634 169.349 23.7122 169.314 25.3144C169.118 32.7558 163.062 38.8798 155.617 39.1646C147.495 39.4672 140.816 32.9872 140.816 24.9406C140.816 23.4808 141.029 22.0744 141.439 20.7392C141.688 19.9381 141.35 19.0836 140.638 18.6742L134.35 15.0425C133.406 14.5084 132.195 14.9179 131.803 15.9148C130.628 18.9234 130.04 22.199 130.129 25.6527C130.503 38.8442 141.279 49.5611 154.477 49.8638C168.512 50.1842 180 38.8976 180 24.9406C180 21.754 179.395 18.7098 178.308 15.9148C177.916 14.9001 176.705 14.4906 175.761 15.0425L169.474 18.6742C168.779 19.0658 168.441 19.9381 168.69 20.7214Z" fill="#0068FF"/>
</svg>
