<svg width="70" height="22" viewBox="0 0 70 22" fill="none" xmlns="http://www.w3.org/2000/svg">
<g clip-path="url(#clip0_4287_18252)">
<path fill-rule="evenodd" clip-rule="evenodd" d="M40.9109 7.58603C39.7344 7.58603 38.7806 6.62534 38.7806 5.44017C38.7806 4.25512 39.7344 3.29443 40.9109 3.29443C42.0874 3.29443 43.0412 4.25512 43.0412 5.44017C43.0412 6.62534 42.0874 7.58603 40.9109 7.58603ZM41.604 4.66229C41.5217 4.6144 41.4345 4.57603 41.3436 4.54808L41.4454 4.13494L41.2124 4.07701L41.1106 4.48634L40.9257 4.4401L41.0267 4.03001L40.7936 3.97131L40.6926 4.3814L40.2023 4.25779L40.1418 4.5012L40.4113 4.57082C40.4386 4.57781 40.4323 4.59267 40.4323 4.60131C40.4323 4.60995 40.1254 5.84175 40.1216 5.86207C40.1177 5.8824 40.1153 5.88863 40.0929 5.8824L39.8357 5.81824L39.7688 6.08821L40.2436 6.20712L40.1465 6.59841L40.399 6.66256L40.4961 6.27128L40.6513 6.3104L40.5543 6.70169L40.7951 6.7628L40.8922 6.37151L41.074 6.41763C41.1944 6.44812 41.6522 6.45282 41.7531 6.04514C41.8194 5.82193 41.7249 5.58195 41.5246 5.46532C41.5246 5.46532 41.8044 5.37766 41.8479 5.11393C41.8907 4.85095 41.7065 4.72962 41.604 4.66229ZM41.254 5.23728C41.1936 5.27146 41.1219 5.27972 41.0554 5.26028L40.7408 5.18202L40.8635 4.68579L41.1509 4.75859C41.1999 4.77028 41.4283 4.87051 41.3771 5.07874C41.3588 5.14607 41.3144 5.20324 41.254 5.23728ZM41.2813 5.67393C41.3134 5.73351 41.3199 5.80376 41.2994 5.8683C41.2589 6.00284 41.1266 6.08707 40.9886 6.06623L40.5543 5.96066L40.6833 5.44017L41.1292 5.55285C41.1942 5.57064 41.2492 5.61434 41.2813 5.67393Z" fill="white"/>
<path fill-rule="evenodd" clip-rule="evenodd" d="M17.0682 11.6565C17.0524 13.9611 17.0414 16.2656 17.019 18.57C17.0158 18.8837 16.9831 19.2028 16.9167 19.5088C16.5625 21.1416 15.0354 22.1215 13.4563 21.7434C12.1099 21.4211 11.1811 20.2699 11.1641 18.8932C11.1523 17.9438 11.1516 16.9942 11.141 16.0448C11.1351 15.5066 11.162 14.9634 11.0994 14.4315C10.9194 12.9065 9.52884 11.8077 7.84026 12.2682C6.7692 12.5604 6.04889 13.5318 6.01837 14.7129C5.99151 15.7508 6.00992 16.7899 5.99668 17.8283C5.99012 18.3492 6.00576 18.8772 5.92807 19.3893C5.63772 21.305 3.41223 22.4128 1.71596 21.5029C0.627237 20.9189 0.170282 19.941 0.122985 18.7565C0.0789667 17.6529 0.0966244 16.5469 0.0888046 15.4419C0.0758136 13.6427 0.0551289 11.8434 0.0557595 10.0442C0.0561379 9.11848 0.397561 8.32002 1.07461 7.6885C1.93466 6.8861 2.96725 6.65552 4.09684 6.85967C4.98464 7.02026 5.69587 7.47811 6.21866 8.23528C6.45931 8.58376 6.73237 8.91369 7.02107 9.22341C7.38482 9.61381 7.86864 9.78977 8.38702 9.80781C9.29072 9.83931 10.0449 9.51269 10.5863 8.75692C10.6958 8.60396 10.7873 8.43728 10.9031 8.28966C11.0832 8.05984 11.2526 7.81261 11.4695 7.62256C12.2341 6.95254 13.1379 6.6982 14.1386 6.81674C15.4715 6.97439 16.3988 7.68367 16.886 8.94697C16.9881 9.2116 17.0241 9.50189 17.0906 9.78036C17.0906 10.358 17.0906 10.9357 17.0906 11.5133C17.0828 11.5611 17.0685 11.6087 17.0682 11.6565ZM13.7942 6.40537C12.4609 6.25585 11.4206 5.31409 11.1716 4.00733C10.9493 2.84007 11.1928 1.7902 12.0726 0.962524C13.5997 -0.473937 16.2723 0.0789488 16.9543 2.38958C17.0115 2.58345 17.0457 2.78405 17.0906 2.9816C17.0906 3.23708 17.0906 3.49256 17.0906 3.74804C17.0022 4.04837 16.9435 4.36178 16.8202 4.64673C16.3086 5.8281 15.0554 6.5469 13.7942 6.40537ZM3.59902 6.3684C3.45044 6.39597 3.29796 6.41223 3.14257 6.41744C3.135 6.4177 3.12769 6.41833 3.12012 6.41859C3.06563 6.41998 3.01089 6.41986 2.95578 6.41846C2.90066 6.41693 2.84529 6.41389 2.78954 6.40944C1.44327 6.30158 0.34812 5.28855 0.111381 3.9381C-0.0635558 2.94018 0.121219 2.02891 0.766228 1.2382C2.04212 -0.326187 4.52996 -0.128764 5.57075 1.61272C5.89401 2.15354 6.04713 2.73971 6.04044 3.36958C6.05659 4.88163 5.00028 6.10797 3.59902 6.3684Z" fill="#D7F269"/>
<path fill-rule="evenodd" clip-rule="evenodd" d="M68.4483 6.43486H65.9912V17.8371C65.8733 18.8978 65.2891 19.4282 64.236 19.4282C63.1241 19.4282 62.5688 18.8978 62.5688 17.8371V6.43486H60.1117C59.2918 6.43486 58.8544 5.90459 58.7955 4.84392C58.8544 3.90203 59.2918 3.40059 60.1117 3.34127H68.4483C69.3257 3.40059 69.822 3.90203 69.94 4.84392C69.8811 5.90459 69.3834 6.43486 68.4483 6.43486ZM57.2978 14.4784C57.2978 17.098 55.455 19.3701 52.1205 19.4282H47.4696C46.2986 19.4282 45.7145 18.8688 45.7145 17.7487V5.02063C45.7145 3.95996 46.2986 3.40059 47.4696 3.34127H51.7695C54.402 3.57744 55.806 4.90324 55.9816 7.31882C55.9816 8.96921 55.2796 10.0589 53.8755 10.5893V10.6775C55.9816 11.1499 57.1224 12.4164 57.2978 14.4784ZM50.8042 6.34656H49.0492V9.70529H50.8042C51.9148 9.64724 52.5291 9.05764 52.6469 7.93751C52.588 6.99562 51.9738 6.46522 50.8042 6.34656ZM51.4185 12.7106H49.0492V16.4229H51.6817C53.0268 16.4229 53.7297 15.764 53.7877 14.4784C53.7288 13.3596 52.939 12.7699 51.4185 12.7106ZM40.8824 19.4282C39.8869 19.4282 39.3604 18.8688 39.3028 17.7487V10.452C39.3028 9.33332 39.8294 8.71462 40.8824 8.59584C41.9354 8.71462 42.4906 9.33332 42.5497 10.452V17.7487C42.4317 18.8688 41.8764 19.4282 40.8824 19.4282ZM34.1196 19.4282C32.9487 19.4282 32.3646 18.8978 32.3646 17.8371V12.8873H25.3444V17.8371C25.2854 18.8978 24.7301 19.4282 23.677 19.4282C22.5651 19.4282 22.0098 18.8978 22.0098 17.8371V4.93234C22.0098 3.81361 22.5651 3.22388 23.677 3.16455C24.7301 3.22388 25.2854 3.81361 25.3444 4.93234V9.70529H32.3646V4.93234C32.3646 3.81361 32.9487 3.22388 34.1196 3.16455C35.1727 3.22388 35.728 3.81361 35.7869 4.93234V17.8371C35.728 18.8978 35.1727 19.4282 34.1196 19.4282Z" fill="white"/>
</g>
<defs>
<clipPath id="clip0_4287_18252">
<rect width="70" height="21.7241" fill="white" transform="translate(0 0.137695)"/>
</clipPath>
</defs>
</svg>
