<?xml version="1.0" encoding="UTF-8" standalone="no"?>
<svg width="12px" height="17px" viewBox="0 0 12 17" version="1.1" xmlns="http://www.w3.org/2000/svg" xmlns:xlink="http://www.w3.org/1999/xlink">
    <!-- Generator: Sketch 44.1 (41455) - http://www.bohemiancoding.com/sketch -->
    <title>Shape Copy 2</title>
    <desc>Created with Sketch.</desc>
    <defs></defs>
    <g id="Page-1" stroke="none" stroke-width="1" fill="none" fill-rule="evenodd">
        <g id="verge" transform="translate(-155.000000, -319.000000)" fill="#0F9CC1">
            <path d="M168.047498,322.030769 C167.934629,321.901988 167.804716,321.837834 167.657759,321.837834 C167.511217,321.837834 167.381304,321.901988 167.268436,322.030769 L160.612739,329.610632 L153.95725,322.031006 C153.844382,321.902225 153.714469,321.838071 153.567719,321.838071 C153.420969,321.838071 153.291057,321.902225 153.178188,322.031006 L152.331572,322.995208 C152.218496,323.123753 152.162166,323.271709 152.162166,323.43884 C152.162166,323.605972 152.218704,323.753928 152.331572,323.882473 L160.223208,332.870406 C160.336077,332.998951 160.465989,333.063105 160.612739,333.063105 C160.759489,333.063105 160.889194,332.998951 161.002062,332.870406 L168.894114,323.882473 C169.006982,323.753928 169.063105,323.605972 169.063105,323.43884 C169.063105,323.271709 169.006982,323.123753 168.894114,322.994971 L168.047498,322.030769 Z" id="Shape-Copy-2" transform="translate(160.612635, 327.450470) rotate(-90.000000) translate(-160.612635, -327.450470) "></path>
        </g>
    </g>
</svg>