<?xml version="1.0" encoding="utf-8"?>
<!-- Generator: Adobe Illustrator 16.0.0, SVG Export Plug-In . SVG Version: 6.00 Build 0)  -->
<!DOCTYPE svg PUBLIC "-//W3C//DTD SVG 1.1//EN" "http://www.w3.org/Graphics/SVG/1.1/DTD/svg11.dtd">
<svg version="1.1" id="Layer_1" xmlns="http://www.w3.org/2000/svg" xmlns:xlink="http://www.w3.org/1999/xlink" x="0px" y="0px"
	 width="1685px" height="365px" viewBox="0 0 1685 365" enable-background="new 0 0 1685 365" xml:space="preserve">
<title>Artboard</title>
<desc>Created with Sketch.</desc>
<g>
	<polygon fill="#37BDE2" points="224.245,36 137.285,236.172 50.87,36 10.399,36 137.285,328.604 264.17,36 	"/>
	<g>
		<polygon fill="#0F1E2D" points="521.771,94.519 637.169,94.519 637.169,121.865 552.947,121.865 552.947,166.167 632.795,166.167 
			632.795,191.873 552.947,191.873 552.947,241.096 641.549,241.096 641.549,268.986 521.771,268.986 		"/>
		<path fill="#0F1E2D" d="M704.99,94.519h60.161c8.204,0,16.408,1.095,24.067,2.735c7.654,1.642,14.763,4.377,20.782,8.751
			c6.015,3.83,10.938,9.299,14.218,15.313c3.83,6.564,5.469,14.22,5.469,23.519c0,12.578-3.83,22.969-10.938,30.628
			c-7.109,8.204-16.953,13.123-28.986,15.857l46.488,77.119h-37.19l-40.474-73.834h-22.421v73.834H704.99V94.519z M761.322,169.996
			c4.374,0,8.754-0.548,13.128-1.095c4.375-0.547,8.204-1.64,12.033-3.83c3.28-1.64,6.559-4.374,8.749-7.656
			c2.189-3.282,3.279-7.656,3.279-13.125c0-4.922-1.09-8.751-3.279-11.486c-2.19-3.282-4.925-5.469-8.204-7.109
			c-3.279-1.643-7.108-3.282-10.938-3.83c-4.374-0.547-8.204-1.092-12.033-1.092h-27.891v49.223H761.322z"/>
		<path fill="#0F1E2D" d="M1040.251,259.688c-8.748,4.38-18.592,7.66-28.985,9.85c-10.394,2.184-22.972,3.824-36.645,3.824
			c-14.219,0-26.797-2.186-38.83-6.559c-11.488-4.381-21.877-10.939-30.08-19.143c-8.204-8.204-14.769-18.053-19.692-28.991
			c-4.919-11.483-7.109-23.517-7.109-37.19c0-13.672,2.19-26.798,7.109-37.736c4.924-11.486,11.488-20.782,19.692-28.438
			c8.203-7.659,18.592-13.673,30.08-18.05c11.483-4.375,24.062-6.562,37.19-6.562c13.673,0,26.801,2.187,38.284,6.014
			c11.483,3.83,20.782,9.299,27.891,15.863l-21.326,22.969c-4.375-4.921-10.395-9.296-18.598-12.578
			c-8.204-3.282-16.408-4.921-25.707-4.921c-9.293,0-17.497,1.64-25.156,4.921c-7.658,3.282-13.673,7.657-19.142,13.673
			c-5.47,6.017-9.299,12.578-12.033,20.234c-2.735,7.659-4.375,15.863-4.375,25.162c0,9.293,1.64,18.047,4.375,25.701
			c2.734,7.658,7.108,14.768,12.033,20.236c5.469,6.02,12.033,10.395,19.687,13.674c7.659,3.285,16.408,4.924,25.707,4.924
			c13.128,0,24.611-2.189,34.455-6.019v-44.299h-36.64v-25.706h66.72v89.146H1040.251z"/>
		<polygon fill="#0F1E2D" points="1105.882,94.519 1221.286,94.519 1221.286,121.865 1137.058,121.865 1137.058,166.167 
			1216.906,166.167 1216.906,191.873 1137.058,191.873 1137.058,241.096 1225.66,241.096 1225.66,268.986 1105.882,268.986 		"/>
		<polygon fill="#0F1E2D" points="312.845,94.519 390.509,270.082 471.452,94.519 435.903,94.519 392.149,193.513 348.395,94.519 		
			"/>
	</g>
	<polygon fill="#37BDE2" points="137.285,143.742 182.679,36 91.889,36 	"/>
</g>
</svg>
