<?xml version="1.0" encoding="utf-8"?>
<!-- Generator: Adobe Illustrator 16.0.0, SVG Export Plug-In . SVG Version: 6.00 Build 0)  -->
<!DOCTYPE svg PUBLIC "-//W3C//DTD SVG 1.1//EN" "http://www.w3.org/Graphics/SVG/1.1/DTD/svg11.dtd">
<svg version="1.1" id="Layer_1" xmlns="http://www.w3.org/2000/svg" xmlns:xlink="http://www.w3.org/1999/xlink" x="0px" y="0px"
	 width="1685px" height="365px" viewBox="0.0002441 0 1685 365" enable-background="new 0.0002441 0 1685 365" xml:space="preserve"
	>
<title>Artboard</title>
<desc>Created with Sketch.</desc>
<polygon fill="#35BCE2" points="8.3986816,48.9697266 139.645752,358.875 264.9572754,48.9697266 "/>
<g opacity="0.0800018">
	<g>
		<defs>
			<rect id="SVGID_1_" x="16.4318848" y="6.5229492" width="240.8583984" height="290.9360352"/>
		</defs>
		<clipPath id="SVGID_2_">
			<use xlink:href="#SVGID_1_"  overflow="visible"/>
		</clipPath>
		<polygon clip-path="url(#SVGID_2_)" points="139.6433105,297.4589844 257.2873535,6.5229492 16.4318848,6.5229492 		"/>
	</g>
</g>
<polygon fill="#112134" points="510.0549316,110.7460938 620.7502441,110.7460938 620.7502441,136.7089844 539.7883301,136.7089844 
	539.7883301,179.1918945 616.5002441,179.1918945 616.5002441,204.2109375 539.7883301,204.2109375 539.7883301,251.4130859 
	624.9943848,251.4130859 624.9943848,277.8457031 510.0549316,277.8457031 "/>
<path fill="#112134" d="M695.0822754,110.7436523h58.0712891c7.8613281,0,15.4902344,0.8271484,22.8857422,2.4790039
	c7.3994141,1.6513672,13.9648438,4.3710938,19.7109375,8.1464844c5.7353516,3.7753906,10.3457031,8.7304688,13.8046875,14.8632813
	c3.4648438,6.1396484,5.1962891,13.6152344,5.1962891,22.4257813c0,12.1196289-3.4228516,21.9912109-10.2626953,29.6220703
	c-6.8505859,7.6337891-16.1699219,12.7880859-27.9775391,15.4541016l44.6142578,74.1162109h-35.8759766l-38.7080078-70.8076172
	h-21.7128906v70.8076172h-29.7460938V110.7436523z M749.1398926,182.7314453c4.2470703,0,8.4941406-0.3134766,12.7412109-0.9414063
	c4.2529297-0.6328125,8.0585938-1.8095703,11.4453125-3.5419922c3.3808594-1.7319336,6.1767578-4.2109375,8.3808594-7.4335938
	c2.2041016-3.2236328,3.3027344-7.3564453,3.3027344-12.3896484c0-4.565918-1.0263672-8.2998047-3.0644531-11.2089844
	c-2.0488281-2.9169922-4.6464844-5.2324219-7.7890625-6.9672852c-3.1533203-1.7270508-6.7314453-2.9116211-10.7402344-3.5366211
	c-4.0136719-0.6328125-7.9033203-0.9462891-11.6835938-0.9462891h-26.9042969v46.9658203H749.1398926z"/>
<path fill="#112134" d="M1030.9455566,269.1123047c-8.5,4.0966797-17.8242188,7.28125-27.9726563,9.5576172
	c-10.1435547,2.2822266-21.8222656,3.4228516-35.0410156,3.4228516c-13.5351563,0-25.8876953-2.1621094-37.0527344-6.4873047
	c-11.1806641-4.3251953-20.7753906-10.3828125-28.8027344-18.1767578
	c-8.0224609-7.7890625-14.2763672-17.0712891-18.7578125-27.8427734c-4.4853516-10.78125-6.7304688-22.6992188-6.7304688-35.7617188
	c0-13.3720703,2.3232422-25.4472656,6.9648438-36.2265625c4.6357422-10.7758789,11.0039063-19.9472656,19.1201172-27.4980469
	c8.0947266-7.550293,17.6572266-13.371582,28.6728516-17.4658203c11.0039063-4.0888672,22.9726563-6.1376953,35.875-6.1376953
	c13.3701172,0,25.6083984,1.9267578,36.7011719,5.7875977c11.0927734,3.855957,20.0175781,8.9331055,26.7900391,15.2207031
	l-20.5361328,22.1850586c-4.2470703-4.7216797-10.1904297-8.7304688-17.8242188-12.0390625
	c-7.6279297-3.3032227-15.9306641-4.9521484-24.8964844-4.9521484c-8.8115234,0-16.7919922,1.5712891-23.9541016,4.71875
	c-7.1669922,3.1503906-13.2548828,7.4785156-18.2900391,12.9804688
	c-5.0361328,5.5097656-8.9306641,11.9584961-11.6894531,19.3535156c-2.7539063,7.3974609-4.1230469,15.4228516-4.1230469,24.0732422
	c0,8.9658203,1.3691406,17.1914063,4.1230469,24.6689453c2.7587891,7.4677734,6.6894531,13.9658203,11.8085938,19.4628906
	c5.1132813,5.5126953,11.3251953,9.8007813,18.6425781,12.8710938c7.3125,3.0595703,15.609375,4.5947266,24.8974609,4.5947266
	c12.7470703,0,23.8398438-1.9599609,33.2832031-5.8964844v-42.4824219H966.982666v-24.5449219h63.9628906V269.1123047z"/>
<polygon fill="#112134" points="1108.1164551,110.7460938 1218.8146973,110.7460938 1218.8146973,136.7089844 
	1137.8625488,136.7089844 1137.8625488,179.1918945 1214.567627,179.1918945 1214.567627,204.2109375 1137.8625488,204.2109375 
	1137.8625488,251.4130859 1223.0617676,251.4130859 1223.0617676,277.8457031 1108.1164551,277.8457031 "/>
<polygon fill="#112134" points="308.4748535,109.3720703 382.8894043,277.8505859 460.286377,109.3720703 426.3366699,109.3720703 
	384.380127,204.4238281 342.4240723,109.3720703 "/>
</svg>
