<?xml version="1.0" encoding="UTF-8" standalone="no"?>
<!DOCTYPE svg PUBLIC "-//W3C//DTD SVG 1.1//EN" "http://www.w3.org/Graphics/SVG/1.1/DTD/svg11.dtd">
<svg version="1.1" xmlns="http://www.w3.org/2000/svg" xmlns:xlink="http://www.w3.org/1999/xlink" preserveAspectRatio="xMidYMid meet" viewBox="0 0 36 30" width="36" height="30"><defs><path d="M29.63 3.47C30.66 3.47 31.5 4.31 31.5 5.34C31.5 5.77 31.5 5.19 31.5 5.63C31.5 6.66 30.66 7.5 29.63 7.5C24.6 7.5 11.4 7.5 6.38 7.5C5.34 7.5 4.5 6.66 4.5 5.63C4.5 5.19 4.5 5.77 4.5 5.34C4.5 4.31 5.34 3.47 6.38 3.47C11.4 3.47 24.6 3.47 29.63 3.47Z" id="c2OzY80ohj"></path><path d="M29.63 12.98C30.66 12.98 31.5 13.82 31.5 14.86C31.5 15.29 31.5 14.71 31.5 15.14C31.5 16.18 30.66 17.02 29.63 17.02C24.6 17.02 11.4 17.02 6.38 17.02C5.34 17.02 4.5 16.18 4.5 15.14C4.5 14.71 4.5 15.29 4.5 14.86C4.5 13.82 5.34 12.98 6.38 12.98C11.4 12.98 24.6 12.98 29.63 12.98Z" id="byNigs9hq"></path><path d="M29.63 22.36C30.66 22.36 31.5 23.2 31.5 24.23C31.5 24.67 31.5 24.08 31.5 24.52C31.5 25.55 30.66 26.39 29.63 26.39C24.6 26.39 11.4 26.39 6.38 26.39C5.34 26.39 4.5 25.55 4.5 24.52C4.5 24.08 4.5 24.67 4.5 24.23C4.5 23.2 5.34 22.36 6.38 22.36C11.4 22.36 24.6 22.36 29.63 22.36Z" id="b57zZlqbri"></path></defs><g><g><g><use xlink:href="#c2OzY80ohj" opacity="1" fill="#999999" fill-opacity="1"></use></g><g><use xlink:href="#byNigs9hq" opacity="1" fill="#999999" fill-opacity="1"></use></g><g><use xlink:href="#b57zZlqbri" opacity="1" fill="#999999" fill-opacity="1"></use></g></g></g></svg>
