<?xml version="1.0" encoding="utf-8"?>
<!-- Generator: Adobe Illustrator 20.1.0, SVG Export Plug-In . SVG Version: 6.00 Build 0)  -->
<svg version="1.1" id="Lag_1" xmlns="http://www.w3.org/2000/svg" xmlns:xlink="http://www.w3.org/1999/xlink" x="0px" y="0px"
	 viewBox="0 0 283.5 283.5" style="enable-background:new 0 0 283.5 283.5;" xml:space="preserve">
<style type="text/css">
	.st0{fill:#38B0DD;}
	.st1{opacity:8.000000e-02;fill:#030404;}
	.st2{fill:#0F1928;}
</style>
<polygon class="st0" points="25.4,110.5 50.1,168.9 73.7,110.5 "/>
<polygon class="st1" points="50.1,157.3 72.2,102.5 26.9,102.5 "/>
<g>
	<path class="st2" d="M119.8,122.1h20.8v4.9h-15.2v8h14.4v4.7h-14.4v8.9h16v5h-21.6V122.1z"/>
	<path class="st2" d="M154.7,122.1h10.9c1.5,0,2.9,0.2,4.3,0.5c1.4,0.3,2.6,0.8,3.7,1.5c1.1,0.7,1.9,1.6,2.6,2.8
		c0.7,1.2,1,2.6,1,4.2c0,2.3-0.6,4.1-1.9,5.6c-1.3,1.4-3,2.4-5.3,2.9l8.4,14h-6.8l-7.3-13.3h-4.1v13.3h-5.6V122.1z M164.9,135.7
		c0.8,0,1.6-0.1,2.4-0.2c0.8-0.1,1.5-0.3,2.2-0.7c0.6-0.3,1.2-0.8,1.6-1.4c0.4-0.6,0.6-1.4,0.6-2.3c0-0.9-0.2-1.6-0.6-2.1
		c-0.4-0.5-0.9-1-1.5-1.3c-0.6-0.3-1.3-0.5-2-0.7c-0.8-0.1-1.5-0.2-2.2-0.2h-5.1v8.8H164.9z"/>
	<path class="st2" d="M217.9,152c-1.6,0.8-3.4,1.4-5.3,1.8c-1.9,0.4-4.1,0.6-6.6,0.6c-2.5,0-4.9-0.4-7-1.2c-2.1-0.8-3.9-2-5.4-3.4
		c-1.5-1.5-2.7-3.2-3.5-5.2s-1.3-4.3-1.3-6.7c0-2.5,0.4-4.8,1.3-6.8c0.9-2,2.1-3.8,3.6-5.2c1.5-1.4,3.3-2.5,5.4-3.3
		c2.1-0.8,4.3-1.2,6.8-1.2c2.5,0,4.8,0.4,6.9,1.1c2.1,0.7,3.8,1.7,5,2.9l-3.9,4.2c-0.8-0.9-1.9-1.6-3.4-2.3c-1.4-0.6-3-0.9-4.7-0.9
		c-1.7,0-3.2,0.3-4.5,0.9c-1.3,0.6-2.5,1.4-3.4,2.4c-0.9,1-1.7,2.3-2.2,3.6c-0.5,1.4-0.8,2.9-0.8,4.5c0,1.7,0.3,3.2,0.8,4.6
		c0.5,1.4,1.3,2.6,2.2,3.7c1,1,2.1,1.8,3.5,2.4c1.4,0.6,2.9,0.9,4.7,0.9c2.4,0,4.5-0.4,6.3-1.1v-8h-6.6v-4.6h12V152z"/>
	<path class="st2" d="M232.5,122.1h20.8v4.9h-15.2v8h14.4v4.7h-14.4v8.9h16v5h-21.6V122.1z"/>
</g>
<polygon class="st2" points="81.9,121.9 95.9,153.6 110.5,121.9 104.1,121.9 96.2,139.8 88.3,121.9 "/>
</svg>
