<?xml version="1.0" encoding="UTF-8"?>
<svg width="2500" height="2500" viewBox="0 0 192.756 192.756" xmlns="http://www.w3.org/2000/svg">
<path d="M0 0h192.756v192.756H0V0z" clip-rule="evenodd" fill="#fff" fill-rule="evenodd"/>
<path d="M122.674 75.027c-.428-.718-19.098-22.979-19.098-22.979l-4.135-4.165-4.845-22.261-57.151.144.143 110.014h69.266c11.688-8.043 5.701-22.693-.713-26.139-1.568-1.006-8.123 5.17-20.666-3.592-9.264-6.463-6.983-19.245-6.983-19.245s8.409 13.643 24.657 10.772c1.568-8.618 1.424-7.326 3.42-15.942l-.143-.862c9.406 0 12.115.144 13.967-.287 2.423-.143 3.421-2.729 2.281-5.458z" clip-rule="evenodd" fill="#e3c39c" fill-rule="evenodd"/>
<path d="m99.619 135.64c-9.04-12.182-32.145-29.529-61.889-29.584v29.584h61.889z" clip-rule="evenodd" fill="#f1da49" fill-rule="evenodd"/>
<path d="M99.619 135.635c-9.04-12.182-32.145-29.529-61.889-29.584m0 .002c29.652.111 53.046 17.557 61.996 29.582" fill="none" stroke="#0c0e0f" stroke-miterlimit="2.613" stroke-width="1.286"/>
<path d="M98.303 72.442c-6.557.861-3.991 8.76 0 8.33 16.246 0 19.668.144 22.09-.287 2.424-.143 3.422-2.729 2.281-5.458-.428-.718-19.098-22.979-19.098-22.979l-7.412-7.468" fill="none" stroke="#0c0e0f" stroke-linecap="round" stroke-miterlimit="2.613" stroke-width="1.286"/>
<path d="M81.027 25.622c4.661 2.326 17.045 11.78 15.564 29.298 19.383-8.761 14.395-29.298 14.395-29.298H81.027z" clip-rule="evenodd" fill="#ad604f" fill-rule="evenodd"/>
<path d="m81.027 25.622c4.661 2.326 17.045 11.78 15.564 29.298 19.383-8.761 14.395-29.298 14.395-29.298" fill="none" stroke="#0c0e0f" stroke-miterlimit="2.613" stroke-width="1.286"/>
<path d="M64.047 25.622c-4.889 3.675-23.848 22.619-20.474 48.974-.37-.124-4.687-6.054-5.843-7.649V25.622h26.317z" clip-rule="evenodd" fill="#6d964a" fill-rule="evenodd"/>
<path d="M64.047 25.622c-4.889 3.675-23.848 22.619-20.474 48.974-.37-.124-4.687-6.054-5.843-7.649m0-.216c1.26 1.787 4.953 6.994 6.128 8.296-3.374-29.369 16.628-46.119 20.704-49.405" fill="none" stroke="#0c0e0f" stroke-linejoin="round" stroke-miterlimit="2.613" stroke-width="1.286"/>
<path d="M106.568 81.921c-1.996 8.617-1.711 7.325-3.42 15.942-16.248 2.871-24.656-10.628-24.656-10.628s-2.138 12.638 6.983 19.101c12.542 8.762 19.097 2.73 20.666 3.734 6.414 3.447 12.258 17.521.57 25.564" fill="none" stroke="#0c0e0f" stroke-linecap="round" stroke-miterlimit="2.613" stroke-width="1.286"/>
<path d="m54.405 83.07c0 4.309-3.42 7.756-7.696 7.756s-7.696-3.447-7.696-7.756 3.42-7.755 7.696-7.755c4.276-1e-3 7.696 3.446 7.696 7.755zm50.452-20.681c0 4.309-3.42 7.755-7.695 7.755-4.276 0-7.697-3.447-7.697-7.755s3.421-7.755 7.697-7.755c4.276-1e-3 7.695 3.446 7.695 7.755z" clip-rule="evenodd" fill="#f1da49" fill-rule="evenodd" stroke="#0c0e0f" stroke-miterlimit="2.613" stroke-width="1.286"/>
<path d="m60.391 59.516c0-5.888 5.559-10.628 12.257-10.628 6.841 0 12.399 4.74 12.399 10.628 0 5.889-5.558 10.772-12.399 10.772-6.698 0-12.257-4.883-12.257-10.772z" clip-rule="evenodd" fill="#fff" fill-rule="evenodd" stroke="#0c0e0f" stroke-miterlimit="2.613" stroke-width="1.286"/>
<path d="m61.531 60.666c0 4.309 3.421 7.755 7.696 7.755 4.276 0 7.696-3.446 7.696-7.755s-3.42-7.756-7.696-7.756c-4.275 0-7.696 3.447-7.696 7.756z" clip-rule="evenodd" fill="#5889b7" fill-rule="evenodd"/>
<path d="m60.391 59.516c0-5.888 5.559-10.628 12.257-10.628 6.841 0 12.399 4.74 12.399 10.628 0 5.889-5.558 10.772-12.399 10.772-6.698 0-12.257-4.883-12.257-10.772z" fill="none" stroke="#0c0e0f" stroke-miterlimit="2.613" stroke-width="1.286"/>
<path d="M66.947 38.979c6.983-2.873 15.962-.288 18.528 2.442" fill="none" stroke="#0c0e0f" stroke-linecap="round" stroke-miterlimit="2.613" stroke-width="1.286"/>
<path d="m37.445 25.622h114.87v110.01h-114.87v-110.01z" clip-rule="evenodd" fill="#fff" fill-rule="evenodd" stroke="#0c0e0f" stroke-miterlimit="2.613" stroke-width="2.288"/>
<path d="M122.674 75.027c-.428-.718-19.098-22.979-19.098-22.979l-4.135-4.165-4.845-22.261-57.151.144.143 110.014h69.266c11.688-8.043 5.701-22.693-.713-26.139-1.568-1.006-8.123 5.17-20.666-3.592-9.264-6.463-6.983-19.245-6.983-19.245s8.409 13.643 24.657 10.772c1.568-8.618 1.424-7.326 3.42-15.942l-.143-.862c9.406 0 12.115.144 13.967-.287 2.423-.143 3.421-2.729 2.281-5.458z" clip-rule="evenodd" fill="#ecd7b6" fill-rule="evenodd"/>
<path d="m99.619 135.64c-9.04-12.182-32.145-29.529-61.889-29.584v29.584h61.889z" clip-rule="evenodd" fill="#f6de74" fill-rule="evenodd"/>
<path d="M99.619 135.635c-9.04-12.182-32.145-29.529-61.889-29.584m0 .002c29.652.111 53.046 17.557 61.996 29.582" fill="none" stroke="#0c0e0f" stroke-miterlimit="2.613" stroke-width="1.286"/>
<path d="M108.137 25.766c-1.711-.431.285 1.724 1.566 1.436 23.516 7.038 29.645 27.145 31.213 29.299 6.414-11.777 1.854-28.437.998-30.878l-33.777.143z" clip-rule="evenodd" fill="#2e6baa" fill-rule="evenodd"/>
<path d="M108.137 25.766c-1.711-.431.285 1.724 1.566 1.436 23.516 7.038 29.645 27.145 31.213 29.299 6.414-11.777 1.854-28.437.998-30.878" fill="none" stroke="#0c0e0f" stroke-linejoin="round" stroke-miterlimit="2.613" stroke-width="1.286"/>
<path d="M98.303 72.442c-6.557.861-3.991 8.76 0 8.33 16.246 0 19.668.144 22.09-.287 2.424-.143 3.42-2.729 2.281-5.458-.428-.718-19.098-22.979-19.098-22.979l-7.412-7.468" fill="none" stroke="#0c0e0f" stroke-linecap="round" stroke-miterlimit="2.613" stroke-width="1.715"/>
<path d="M81.027 25.622c4.661 2.326 17.045 11.78 15.564 29.298 19.383-8.761 14.395-29.298 14.395-29.298H81.027z" clip-rule="evenodd" fill="#c82e37" fill-rule="evenodd"/>
<path d="m81.027 25.622c4.661 2.326 17.045 11.78 15.564 29.298 19.383-8.761 14.395-29.298 14.395-29.298" fill="none" stroke="#0c0e0f" stroke-miterlimit="2.613" stroke-width="1.286"/>
<path d="M64.047 25.622c-4.889 3.675-23.848 22.619-20.474 48.974-.37-.124-4.687-6.054-5.843-7.649V25.622h26.317z" clip-rule="evenodd" fill="#7db764" fill-rule="evenodd"/>
<path d="M64.047 25.622c-4.889 3.675-23.848 22.619-20.474 48.974-.37-.124-4.687-6.054-5.843-7.649m0-.216c1.26 1.787 4.953 6.994 6.128 8.296-3.374-29.369 16.628-46.119 20.704-49.405" fill="none" stroke="#0c0e0f" stroke-linejoin="round" stroke-miterlimit="2.613" stroke-width="1.286"/>
<path d="M106.568 81.921c-1.996 8.617-1.711 7.325-3.42 15.942-16.248 2.873-24.656-10.628-24.656-10.628s-2.138 12.638 6.983 19.101c12.542 8.762 19.097 2.73 20.666 3.734 6.414 3.447 12.258 17.521.57 25.564" fill="none" stroke="#0c0e0f" stroke-linecap="round" stroke-miterlimit="2.613" stroke-width="1.715"/>
<path d="m54.405 83.07c0 4.309-3.42 7.756-7.696 7.756s-7.696-3.447-7.696-7.756 3.42-7.755 7.696-7.755c4.276-1e-3 7.696 3.446 7.696 7.755zm50.452-20.681c0 4.309-3.42 7.755-7.695 7.755-4.276 0-7.697-3.447-7.697-7.755s3.421-7.755 7.697-7.755c4.276-1e-3 7.695 3.446 7.695 7.755zm44.039 1.149c0 4.309-3.42 7.756-7.695 7.756s-7.695-3.447-7.695-7.756 3.42-7.756 7.695-7.756 7.695 3.447 7.695 7.756z" clip-rule="evenodd" fill="#f6de74" fill-rule="evenodd" stroke="#0c0e0f" stroke-miterlimit="2.613" stroke-width="1.286"/>
<path d="m60.391 59.516c0-5.888 5.559-10.628 12.257-10.628 6.841 0 12.399 4.74 12.399 10.628 0 5.889-5.558 10.772-12.399 10.772-6.698 0-12.257-4.883-12.257-10.772z" clip-rule="evenodd" fill="#fff" fill-rule="evenodd" stroke="#0c0e0f" stroke-miterlimit="2.613" stroke-width="1.286"/>
<path d="m61.531 60.666c0 4.309 3.421 7.755 7.696 7.755 4.276 0 7.696-3.446 7.696-7.755s-3.42-7.756-7.696-7.756c-4.275 0-7.696 3.447-7.696 7.756z" clip-rule="evenodd" fill="#2e6baa" fill-rule="evenodd"/>
<path d="m60.391 59.516c0-5.888 5.559-10.628 12.257-10.628 6.841 0 12.399 4.74 12.399 10.628 0 5.889-5.558 10.772-12.399 10.772-6.698 0-12.257-4.883-12.257-10.772z" fill="none" stroke="#0c0e0f" stroke-miterlimit="2.613" stroke-width="1.286"/>
<path d="M66.947 38.979c6.983-2.873 15.962-.288 18.528 2.442" fill="none" stroke="#0c0e0f" stroke-linecap="round" stroke-miterlimit="2.613" stroke-width="1.286"/>
<path d="M37.73 25.622h114.874v110.013H37.73V25.622z" fill="none" stroke="#0c0e0f" stroke-miterlimit="2.613" stroke-width="2.288"/>
<path d="M154.74 132.764h3.278v.572h-1.282v3.592h-.57v-3.592h-1.426v-.572zM161.867 136.928v-2.441-1.006l-1.141 3.447h-.428l-1.141-3.447h-.143c0 .287.143.861.143 1.006v2.441h-.57v-4.164h.713l1.141 3.445h.143l1.141-3.445h.713v4.164h-.571zM8.941 155.455l.997-.145h3.848l.143 10.484-.143 2.441-.143 1.15h3.421v-14.076h1.567c.57 0 1.141 0 2.281.145l1.283-3.305H9.796l-.855 3.306zM23.763 169.387h3.278V161.2c.712-.43.998-.574 1.71-.574 1.425 0 1.852.719 1.852 2.154v6.607h3.278l-.143-.719.143-1.867v-4.596c0-2.586-1.853-4.453-4.418-4.453-.855 0-1.283.145-2.423.719v-4.164-1.15c0-.287.143-.574.143-1.006h-3.421l.143 1.15V167.232c0 .143 0 .717-.143 1.578l.001.577zM40.011 162.061c.998-1.291 1.425-1.58 2.423-1.58 1.14 0 1.853.432 2.565 1.58h-4.988zm8.266 2.154c0-2.154-.285-2.871-.855-4.021-.855-1.58-2.993-2.584-4.846-2.584-3.278 0-5.986 2.729-5.986 6.176s2.565 6.031 5.986 6.031c.712 0 1.425-.143 2.28-.43 1.283-.432 1.996-1.006 3.278-2.441l-2.281-2.012c-1.283 1.293-2.138 1.867-3.42 1.867-1.425 0-2.28-.861-2.708-2.586H48.277zM56.116 169.387h3.563v-1.006-1.293-.43l.57-6.178v-1.578l.285.717 4.133 7.039 3.848-6.607.57-1.148v1.291l.428 4.74c.143 1.867.143 2.441.285 4.453h3.42c-.285-1.725-.428-2.299-.57-4.166l-.997-8.904-.143-2.729-.143-1.438h-1.853l-4.418 7.613-.428.861-.285-.719-4.703-7.756h-1.853v1.15l-.285 2.154-.854 9.623c-.143 2.012-.143 2.586-.57 4.311zM84.478 163.643c0 1.721-1.283 3.016-2.994 3.016-1.709 0-2.992-1.295-2.992-2.873 0-1.725 1.283-3.016 2.992-3.016 1.711 0 2.994 1.291 2.994 2.873zm-3.136-6.034c-3.135 0-5.986 2.729-5.986 6.033 0 3.445 2.708 6.174 6.128 6.174 3.279 0 5.986-2.729 5.986-6.031 0-3.447-2.707-6.176-6.128-6.176zM88.753 160.77h1.283v4.594c0 1.582.142 2.156.57 2.873.57 1.006 1.568 1.438 2.565 1.438.712 0 1.425-.145 2.851-.719l-.855-2.584c-.713.287-.855.287-1.283.287-.57 0-.712-.432-.712-1.725v-4.164c1.14.143 1.425.143 2.565.143v-3.016h-2.565v-4.166h-3.135v4.166h-1.283v2.873h-.001zM98.303 169.387h3.42V154.737c0-.574 0-1.148.143-2.586h-3.42c.143 2.012.143 2.443.143 5.172v6.893c-.001 2.442-.001 3.159-.286 5.171zM107.852 162.061c1.139-1.291 1.566-1.58 2.564-1.58s1.711.432 2.424 1.58h-4.988zm8.265 2.154c0-2.154-.143-2.871-.855-4.021-.855-1.58-2.85-2.584-4.703-2.584-3.42 0-5.986 2.729-5.986 6.176s2.566 6.031 5.844 6.031c.855 0 1.568-.143 2.281-.43 1.424-.432 1.994-1.006 3.277-2.441l-2.137-2.012c-1.283 1.293-2.281 1.867-3.422 1.867-1.426 0-2.279-.861-2.707-2.586h8.408zM117.258 158.471l.57 1.148.57 1.15 3.705 7.324c-.285.717-.57 1.148-.713 1.58-.285.861-.713 1.148-1.141 1.148-.57 0-.855 0-1.852-.574l-.998 2.871c1.426.576 2.137.863 2.85.863.998 0 1.996-.432 2.566-1.006.713-.719 1.281-1.725 2.279-4.021l3.564-8.186.568-1.438.713-1.436h-3.562c-.143.287-.285.717-.285.861 0 0-.143.432-.428 1.006l-1.994 4.596-2.566-5.314-.428-.861-.57-1.006-2.848 1.295zM137.639 152.15v17.236h3.277c0-.432-.143-.719-.143-1.006v-6.176h6.557l.855-3.16-2.139.145h-1.854l-3.42-.145v-3.877h3.705c.285 0 .998 0 2.139.143h1.852l1.141-3.16h-11.97zM160.299 163.643c0 1.721-1.283 3.016-2.992 3.016-1.711 0-2.994-1.295-2.994-2.873 0-1.725 1.283-3.016 2.994-3.016 1.566 0 2.992 1.291 2.992 2.873zm-3.135-6.034c-3.137 0-5.986 2.729-5.986 6.033 0 3.445 2.707 6.174 6.129 6.174 3.277 0 5.984-2.729 5.984-6.031 0-3.447-2.707-6.176-6.127-6.176zM174.551 163.643c0 1.721-1.283 3.016-2.992 3.016-1.568 0-2.992-1.295-2.992-2.873 0-1.725 1.424-3.016 2.992-3.016 1.709 0 2.992 1.291 2.992 2.873zm-2.992-6.034c-3.279 0-5.986 2.729-5.986 6.033 0 3.445 2.707 6.174 5.986 6.174 3.42 0 6.127-2.729 6.127-6.031 0-3.447-2.707-6.176-6.127-6.176zM180.395 169.387h3.42c-.143-.719-.143-1.15-.143-1.867v-12.783c0-.574 0-1.148.143-2.586h-3.277v12.065c-.001 2.442-.001 3.159-.143 5.171z" clip-rule="evenodd" fill="#0c0e0f" fill-rule="evenodd"/>
</svg>
