<?xml version="1.0" encoding="UTF-8"?>
<svg version="1.1" viewBox="0 0 200 77.561" xml:space="preserve" xmlns="http://www.w3.org/2000/svg" xmlns:cc="http://creativecommons.org/ns#" xmlns:dc="http://purl.org/dc/elements/1.1/" xmlns:rdf="http://www.w3.org/1999/02/22-rdf-syntax-ns#"><metadata><rdf:RDF><cc:Work rdf:about=""><dc:format>image/svg+xml</dc:format><dc:type rdf:resource="http://purl.org/dc/dcmitype/StillImage"/><dc:title/></cc:Work></rdf:RDF></metadata><defs><clipPath id="c"><path d="m0 0h595.28v841.89h-595.28v-841.89z"/></clipPath><clipPath id="b"><path d="m0 0h595.28v841.89h-595.28v-841.89z"/></clipPath><clipPath id="a"><path d="m13.716 791.22h100.02v36.496h-100.02v-36.496z"/></clipPath></defs><g transform="matrix(1.25 0 0 -1.25 -17.145 1067.2)"><g clip-path="url(#c)"/><g clip-path="url(#b)"/><g transform="matrix(1.5996 0 0 1.5996 -8.2243 -474.71)"><path d="m13.716 791.69h100.02v38.79h-100.02v-38.79z" fill="#ed1d24"/><g transform="translate(66 819.64)"><path d="m0 0h-2.438l1.234 4.539h-1.755l0.391 1.438h5.912l-0.39-1.438h-1.72l-1.234-4.539z" fill="#fff"/></g><g transform="translate(75.683 819.64)"><path d="m0 0h-2.561l0.633 2.326h-1.975l-0.633-2.326h-2.56l1.625 5.977h2.56l-0.599-2.204h1.975l0.599 2.204h2.561l-1.625-5.977z" fill="#fff"/></g><g transform="translate(83.035 819.64)"><path d="m0 0h-6.279l1.625 5.977h6.279l-0.374-1.377h-3.767l-0.238-0.871h3.049l-0.362-1.333h-3.049l-0.263-0.967h3.768l-0.389-1.429z" fill="#fff"/></g><g clip-path="url(#a)"><g transform="translate(41.428 816.24)"><path d="m0 0c-0.723 1.976-3.339 2.732-5.969 2.732-1.637 0-3.749-0.42-3.777-1.849-0.016-0.883 0.853-1.262 1.841-1.598 1.278-0.42 2.617-0.714 3.955-1.051 1.454-0.378 2.967-0.756 4.421-1.135 4.363-1.092 7.875-3.909 7.809-7.398-0.128-6.726-8.896-9.795-17.197-9.795s-15.161 1.976-18.265 7.819l11.253 1.556c1.298-2.438 3.978-2.943 7.368-2.943 1.754 0 4.335 0.505 4.365 2.06 0.029 1.513-3.002 1.976-4.456 2.354-6.34 1.681-13.74 2.943-13.626 8.912 0.126 6.642 7.949 9.164 16.133 9.164 7.073 0 13.76-1.85 16.235-6.978l-10.09-1.85z" fill="#fff"/></g><g transform="translate(77.767 796.57)"><path d="m0 0h-10.405l1.009 3.867c-2.451-2.858-5.052-4.414-9.846-4.414-3.858 0-7.682 1.808-7.625 4.793 0.023 1.177 0.338 2.396 0.652 3.531l3.228 12.947h11.105l-3.03-11.854c-0.189-0.673-0.376-1.345-0.389-2.018-0.018-0.925 0.613-1.556 1.957-1.556 3.39 0 4.564 3.321 5.009 5.171l2.591 10.257h10.932l-5.188-20.724z" fill="#fff"/></g><g transform="translate(111.96 810.74)"><path d="m0 0-3.544-14.166h-10.931l3.102 12.442c0.126 0.547 0.313 1.135 0.323 1.682 0.024 1.219-1.137 1.639-2.657 1.639-2.631 0-3.715-1.681-4.155-3.321l-3.16-12.442h-10.698l5.247 20.724h10.054l-0.882-3.363c1.807 2.816 5.337 3.993 9.487 3.993 4.326 0 8.21-1.723 8.146-5.086-0.014-0.715-0.144-1.387-0.332-2.102" fill="#fff"/></g></g></g></g></svg>
