<?xml version="1.0" encoding="UTF-8"?>
<!DOCTYPE svg  PUBLIC '-//W3C//DTD SVG 1.1//EN'  'http://www.w3.org/Graphics/SVG/1.1/DTD/svg11.dtd'>
<svg version="1.1" viewBox="0 0 883.18 153.79" xmlns="http://www.w3.org/2000/svg">
<path d="m12.44 94.17v-44.92h-12.44v-12.28l12.44-1.67v-15.32l26.84-3.77v19.1h17.8v14h-17.8v42.6c0 8 2.23 12.1 10.1 12.1 2.8 0 6.62-0.3 8.57-0.7v10.39c-4.3 2.54-13.5 4.7-22 4.7-16 0-23.5-7.05-23.5-24.23zm178.95-51.74c6.74 0 10.38 1.2 10.38 25.02l-22.5 1.32c0.3-21.6 3.56-26.34 12.12-26.34zm-11.9 36.03h48.38c0-34.06-11.7-44.92-36.03-44.92-24.17 0-40.03 15.56-40.03 42.28 0 27.6 14.38 42.87 42.26 42.87 14.98 0 27.08-6.7 30.84-11.8v-7.9c-5.63 1.7-11.42 2.8-21.8 2.8-14.65 0-22.2-7.6-23.62-23.4zm-119.22 30.84 8.6-3.96v-88.3l-9.05-4.2v-7.37l33.46-5.4h2.27v44.18h0.9c7.3-6.6 17.1-10.72 28-10.72 13.7 0 20.5 6.82 20.5 21.7v50.1l8.7 3.97v7.47h-44.3v-7.47l8.7-3.97v-44.03c0-8.24-3.6-11.32-10.9-11.32-4 0-7.8 0.73-11.1 2.06v53.3l8.7 3.98v7.47h-44.41v-7.5z" fill="#a2c0d8"/>
<path d="m647.44 38.83v7.38l9.04 4.2v55l-8.62 4v7.5h44.23v-7.4l-8.62-4v-72h-2.27l-33.76 5.39zm91.7 62.25v-21.93l-6.28 0.6c-6.25 0.6-11.37 4.75-11.37 12.52 0 8.95 4.92 11.9 10.1 11.9 3 0 6.05-1.48 7.54-3.1zm-19.04-56.64-5.7 16.56h-13.96v-21.3c7.54-2.34 16.73-6.16 30.96-6.16 21.65 0 34.66 6.4 34.66 24.6v47.2l8.6 4v6.12c-2.64 1.42-8.62 3.23-15.15 3.23-8.45 0-16.03-2.7-17.28-11.5h-0.8c-3.6 7.2-13.2 11.6-23.3 11.6-14.4 0-23.5-9.3-23.5-22.8 0-16.6 10.9-19.3 28.7-23l15.5-2.7v-10.59c0-10.42-3.2-15.6-13.5-15.6-1.4 0-3.9 0.18-5.5 0.34zm56.76 64.87 8.6-3.9v-55l-9.05-4.2v-7.3l33.47-5.3h2.27v10.8h0.9c7.3-6.6 17.1-10.7 28-10.7 13.7 0 20.5 6.8 20.5 21.7v50.1l8.7 4v7.5h-44.3v-7.4l8.7-3.92v-44.39c0-8.24-3.6-11.32-10.9-11.32-4 0-7.8 0.73-11.1 2.06v53.3l8.6 3.98v7.47h-44.2v-7.5zm-167-92.2-9.02-4.1v-7.4l33.74-5.4h2.27v102.7l8.6 4.7v7l-32 3.7h-2.2v-8.4h-0.9c-3.4 4.3-10.3 8.8-20.4 8.8-14.8 0-32.5-9.4-32.5-40.5 0-32.7 18.1-44.5 39.6-44.5 4.5 0 9.8 1 13.1 3.4v-20zm0 85.4v-54.91c-2.1-1.6-4.3-2.93-9.2-2.93-8.44 0-14.9 7.6-14.9 30.5 0 20.06 5.1 28.8 15.78 28.8 4.15 0 6.48-0.84 8.3-1.58zm-334.74 41.3c-14.74 0-19.8-5.2-19.8-10.8 0-3.9 1.04-6.6 3.12-9.1h28.53c6.67 0 9.7 2 9.7 6.2 0.02 8.4-4.65 13.7-21.55 13.7zm0.23-100.8c5.9 0 9.7 2.6 9.7 18.8s-3.81 17.89-9.61 17.89-9.54-1.35-9.54-17.87c0-16.5 3.7-18.8 9.58-18.8zm17.9 56.3h-29c-3.1 0-5.7-2.4-5.7-5.2 0-2.2 1.6-4.5 3.6-6 4.4 1.3 8 1.7 13.4 1.7 20.9 0 35.2-9.5 35.2-27.2 0-7.9-3.3-12.4-8.5-17v-0.6l13.4 4.7 1.8 0.1v-16.31h-1.5l-20.63 4.1h-1.15c-5.14-1.9-12.3-3.9-18.8-3.9-20.9 0-35.36 10.37-35.36 27.98 0 10.73 5.4 18.72 13.47 23.14v0.85c-4.66 3.28-13.6 10.02-13.6 18.65 0 6.3 4.16 12.53 12.86 14.4v0.87c-9.15 1.9-19.4 4.9-19.4 15.4 0 10.8 15.65 18.8 41.16 18.8 31.7 0 45.42-12.2 45.42-31.5 0-15.9-8.8-23.3-26.7-23.3zm203.1-60.4v7.4l9.1 4.2v55l-8.6 4v7.5h46.59v-7.4l-11.1-4v-45.31c4.6-2.2 10.65-2.94 17.9-2.94 2.38 0 5.2 0.3 6.83 0.73v-23.69c-0.9-0.3-2.67-0.44-4-0.44-8.9 0-16.17 5.73-20.92 16.6h-0.8v-17.12h-2.3l-32.7 5.38zm-37.2 62.3v-22l-6.2 0.6c-6.2 0.6-11.3 4.8-11.3 12.6 0 9 4.9 11.9 10.1 11.9 3 0 6.06-1.5 7.54-3.1zm-19.1-56.7-5.7 16.6h-14v-21.41c7.6-2.34 16.8-6.16 31-6.16 21.7 0 34.7 6.4 34.7 24.6v47.2l8.6 4v6.12c-2.6 1.42-8.6 3.23-15.1 3.23-8.4 0-16-2.7-17.2-11.5h-0.8c-3.6 7.2-13.2 11.6-23.24 11.6-14.37 0-23.4-9.3-23.4-22.8 0-16.6 10.97-19.3 28.76-23l15.58-2.7v-10.59c0-10.42-3.14-15.6-13.5-15.6-1.35 0-3.9 0.18-5.52 0.34zm-111.4 5.9-9-4.2v-7.3l33.8-5.3h2.3v57.09c0 9.25 4.53 10.9 11.35 10.9 5 0 7-0.9 9.7-1.93v-49.27l-9.1-4.2v-7.37l33.7-5.38h2.2v69.4l9 4.7v7.04l-32.8 3.6h-2.36l-0.03-10.8h-0.9c-5.18 6.4-13.73 11.1-24.7 11.1-16.3 0-23.27-11.6-23.27-25.7v-42.39zm340.79-50.41c8 0 14.45 6.47 14.45 14.46 0 7.98-6.47 14.46-14.46 14.46-8 0-14.5-6.4-14.5-14.4s6.5-14.4 14.5-14.4zm196.5 112.36 17.24 0.04" fill="#0a5787"/>
</svg>
