<?xml version="1.0" encoding="UTF-8"?>
<svg width="4276.1" height="500" version="1.1" viewBox="0 0 4376.1284 500" xml:space="preserve" xmlns="http://www.w3.org/2000/svg" xmlns:cc="http://creativecommons.org/ns#" xmlns:dc="http://purl.org/dc/elements/1.1/" xmlns:rdf="http://www.w3.org/1999/02/22-rdf-syntax-ns#"><metadata><rdf:RDF><cc:Work rdf:about=""><dc:format>image/svg+xml</dc:format><dc:type rdf:resource="http://purl.org/dc/dcmitype/StillImage"/><dc:title/></cc:Work></rdf:RDF></metadata>
<style type="text/css">
	.st0-hp{display:none;}
	.st1-hp{display:inline;}
	.st2-hp{fill:#000000;}
	.st3-hp{fill:#0DBE98;}
</style>
<g class="st0-hp" transform="translate(0,412.9)" display="none">
	<rect class="st1-hp" width="720" height="90" display="inline"/>
</g>
<g transform="translate(0,412.9)">
		<g transform="matrix(5.9382 0 0 5.9382 0 -430.12)">
			<g fill="#0dbe98"><path class="st3-hp" d="m29.3 85.4 14.2-80.7h-43.5v80.7h29.3z"/><path class="st3-hp" d="m690.7 4.7-14.1 80.7h43.5v-80.7h-29.4z"/></g>
		</g>
		<g transform="matrix(5.9382 0 0 5.9382 0 -430.12)"><path class="st2-hp" d="m93.1 85.4h26.3l14.1-80.7h-26.3l-5.2 28.9h-22.8l5.2-28.9h-26.3l-14.1 80.7h26.3l5.3-30.2h22.8l-5.3 30.2z"/><path class="st2-hp" d="m148.4 4.6-8 44.9c-0.7 3.5-1 6.9-1 10.1 0 23.8 20.8 27.4 33.3 27.4 26.2 0 37.5-8.7 41.6-32.2l8.8-50.3h-26.3l-7.5 42.2c-2.4 13.2-4.1 20.1-13.9 20.1-6.4 0-9.5-3.4-9.5-10.4 0-2.7 0.4-6 1.2-10.1l7.6-41.8h-26.3z"/><path class="st2-hp" d="m362.1 85.4h26.3l3.7-20.8h12.4c22.9 0 35.6-12.4 35.6-35 0-15.9-11-25-30.3-25h-33.6l-14.1 80.8zm41-40.7h-7.6l3.5-19h7.1c5.8 0 8.9 2.9 8.9 8.2 0 6.7-4.5 10.8-11.9 10.8z"/><path class="st2-hp" d="m491.2 2.9c-28.6 0-45.7 18.5-45.7 49.6 0 21.6 13.6 34.6 36.4 34.6 28.6 0 45.7-18.5 45.7-49.6 0.1-21.7-13.5-34.6-36.4-34.6zm-7.7 63.3c-6.8 0-10.8-4.9-10.8-13.1 0-3.1 0.3-5.8 0.9-8.9 2-10.6 5.4-20.3 16.1-20.3 6.8 0 10.8 4.9 10.8 13.1 0 3.1-0.3 5.8-0.9 8.9-2 10.5-5.4 20.3-16.1 20.3z"/><path class="st2-hp" d="m619.1 85.4h26.3l10.4-59.1h19.8l3.8-21.6h-67.3l-3.8 21.6h21l-10.2 59.1z"/><path class="st2-hp" d="m575.5 34.5c-8.3-2.6-11.7-3.7-11.7-7.6 0-2.6 1.7-5.7 6.7-5.7 3.7 0 6.8 2.1 8 5.2l23.2-6.3c-2.7-11.4-12.5-17.2-29.4-17.2-31.8 0-34.3 21.3-34.3 27.8 0 13.2 7 21.3 22.2 25.5 4 1.1 8.6 2.3 8.6 6.7 0 3.5-2.6 5.7-7.1 5.7-4.1 0-8.5-2.4-10-6.6l-22.9 6.2c2.5 12 13.8 18.8 31.5 18.8 13.5 0 36.1-3.6 36.1-28 0.1-12.2-6.8-20.2-20.9-24.5z"/><polygon class="st2-hp" points="250.3 85.4 254.5 61.6 276.6 61.6 280.2 41.3 258.1 41.3 260.6 26.3 291.5 26.3 295.3 4.6 238.1 4.6 224 85.4"/><polygon class="st2-hp" points="319.3 85.4 323.4 61.6 345.6 61.6 349.2 41.3 327.1 41.3 329.6 26.3 360.5 26.3 364.3 4.6 307.1 4.6 293 85.4"/></g>
	</g>
</svg>
