<?xml version="1.0" encoding="utf-8"?>
<!-- Generator: Adobe Illustrator 26.0.3, SVG Export Plug-In . SVG Version: 6.00 Build 0)  -->
<svg version="1.1" id="Layer_1" xmlns="http://www.w3.org/2000/svg" xmlns:xlink="http://www.w3.org/1999/xlink" x="0px" y="0px"
	 viewBox="0 0 280.8 78.8" style="enable-background:new 0 0 280.8 78.8;" xml:space="preserve">
<style type="text/css">
	.st0{filter:url(#Adobe_OpacityMaskFilter);}
	.st1{fill-rule:evenodd;clip-rule:evenodd;fill:#FFFFFF;}
	.st2{mask:url(#mask-92_00000178178500909598894000000005787685827679096491_);fill:#F34718;}
	.st3{filter:url(#Adobe_OpacityMaskFilter_00000016041360845140493210000011097620462694235839_);}
	.st4{mask:url(#mask-94_00000034791204289373547770000001084837285168853902_);fill:#1D1819;}
</style>
<g id="Clipped_00000106842500008928741870000007846962499490999196_" transform="translate(86.000000, 52.000000)">
	<g id="路径-Clipped_00000181809198096033041580000002783950954640456378_">
		<g id="path-91_00000150094650186584326910000013443428082632009883_">
		</g>
		<defs>
			<filter id="Adobe_OpacityMaskFilter" filterUnits="userSpaceOnUse" x="-79.3" y="-47.6" width="69.6" height="69.6">
				<feColorMatrix  type="matrix" values="1 0 0 0 0  0 1 0 0 0  0 0 1 0 0  0 0 0 1 0"/>
			</filter>
		</defs>
		
			<mask maskUnits="userSpaceOnUse" x="-79.3" y="-47.6" width="69.6" height="69.6" id="mask-92_00000178178500909598894000000005787685827679096491_">
			<g class="st0">
				<path id="path-91_00000095305092751232067320000005177726684449675684_" class="st1" d="M-26.1-47.6c9,0,16.3,7.3,16.3,16.3v37
					c0,9-7.3,16.3-16.3,16.3h-16.6l7.7-10.9c3.4-4.8,1.7-8.1-1.2-12.1l-8.4-11.7l8.4-11.7c2.9-3.9,4.6-7.3,1.2-12.1l-7.8-11.1H-26.1
					z M-50.8-47.6l7.6,10.2l0.1,0.1c0.3,0.5,1.3,2.2,1.1,4.1c-0.3,2.2-2,4.3-2,4.3l-8,11.6c-0.6,1-1.3,2.1-1.6,3.1
					c-0.1,0.4-0.2,0.9-0.2,1.4c0,0.5,0.1,1,0.2,1.4c0.3,1,0.9,2.1,1.6,3.1l8,11.6c0,0,1.7,2.1,2,4.3c0.2,1.9-0.8,3.6-1.1,4.1
					l-0.1,0.1L-50.7,22H-63c-9,0-16.3-7.3-16.3-16.3v-37c0-9,7.3-16.3,16.3-16.3H-50.8z M-30.3-30c-0.1,2.9-1.8,5.9-3.5,8.2
					l-0.4,0.6l2.3,3.1l3.7,5.1L-32-7.8l-2.3,3.1c1.7,2.3,3.5,5.2,3.9,8.1l0.1,0.7l8.8-12.5c0,0,1.7-2.5,1.8-4.6
					c-0.1-2-1.6-4.3-1.8-4.6l0,0L-30.3-30z"/>
			</g>
		</mask>
		<polygon id="路径_00000172414085978920830150000011670195227102345907_" class="st2" points="-79.3,-47.6 -9.8,-47.6 -9.8,22 
			-79.3,22 		"/>
	</g>
	<g id="路径-Clipped_00000180344492747308257250000016710766264352311961_" transform="translate(26.000000, 4.000000)">
		<g id="path-93_00000058581454586390565060000006137025663113390728_">
		</g>
		<defs>
			
				<filter id="Adobe_OpacityMaskFilter_00000041987829145514031800000014218951874558656671_" filterUnits="userSpaceOnUse" x="-19.2" y="-38.4" width="182.2" height="46.4">
				<feColorMatrix  type="matrix" values="1 0 0 0 0  0 1 0 0 0  0 0 1 0 0  0 0 0 1 0"/>
			</filter>
		</defs>
		
			<mask maskUnits="userSpaceOnUse" x="-19.2" y="-38.4" width="182.2" height="46.4" id="mask-94_00000034791204289373547770000001084837285168853902_">
			<g style="filter:url(#Adobe_OpacityMaskFilter_00000041987829145514031800000014218951874558656671_);">
				<path id="path-93_00000114796088294352692730000014702643487159887241_" class="st1" d="M0.7-38.4c3.9,0,6.8,0.2,8.7,0.5
					c1.9,0.3,3.7,1,5.2,1.9c1.5,1,2.8,2.3,3.8,3.9c1.2,1.8,1.7,4,1.5,6.3c-0.1,1.4-0.5,2.8-1.2,4.1c-1.2,2.3-3,4-5.4,5.1
					c2.8,0.8,5,2.2,6.5,4.1c1.6,2,2.5,4.4,2.5,7.1c0,2.1-0.5,4.2-1.6,6.2c-1,2-2.5,3.6-4.3,4.8c-1.8,1.2-4.1,1.9-6.7,2.2
					C8.1,7.9,4,8-2.3,8H-18c-0.6,0-1.2-0.5-1.2-1.1v-44.1c0-0.6,0.5-1.1,1.2-1.1H0.7z M37.5-38.1c0.5,0,0.9,0.4,0.9,0.9v16.9h9.2
					c4.2-5.6,6.7-9.4,11.8-17.2c0.2-0.3,0.6-0.5,1-0.5h9.9c0.6,0,0.9,0.6,0.6,1.1L56.4-15.8l16,22.5c0.3,0.5,0,1.1-0.6,1.1H61.5
					c-0.4,0-0.7-0.2-1-0.5c-4.6-6.7-9.1-13-13.6-19.5h-8.5V7.1C38.5,7.6,38,8,37.5,8h-8.1c-0.5,0-0.9-0.4-0.9-0.9v-44.3
					c0-0.5,0.4-0.9,0.9-0.9H37.5z M112.6-38.4c0.6,0,1.2,0.5,1.2,1.1v5.9c0,0.6-0.5,1.1-1.2,1.1H87.3v9.8h25.2
					c0.6,0,1.2,0.5,1.2,1.1v5.9c0,0.6-0.5,1.1-1.2,1.1H87.3v12.2h25.2c0.6,0,1.2,0.5,1.2,1.1v5.9c0,0.6-0.5,1.1-1.2,1.1H78.2
					C77.5,8,77,7.5,77,6.9v-44.1c0-0.6,0.5-1.1,1.2-1.1H112.6z M130.5-38.1c0.4,0,0.8,0.2,1,0.5l9.3,14l9.1-14
					c0.2-0.3,0.6-0.5,1-0.5h9.9c0.6,0,0.9,0.6,0.6,1.1l-14.6,21.2l16,22.5c0.3,0.5,0,1.1-0.6,1.1h-10.4c-0.4,0-0.7-0.2-1-0.5
					L140.6-7.8L130.2,7.3c-0.2,0.3-0.6,0.5-1,0.5H119c-0.6,0-0.9-0.6-0.6-1.1l16-22.9l-14.5-20.9c-0.3-0.5,0-1.1,0.6-1.1H130.5z
					 M-1.1-12h-7.8v11.9h9c3.6,0,5.8-0.1,6.8-0.3c1.4-0.2,2.6-0.8,3.5-1.8c0.9-0.9,1.3-2.2,1.3-3.8c0-1.3-0.3-2.5-1-3.4
					c-0.7-0.9-1.7-1.6-3-2C6.4-11.8,3.4-12-1.1-12z M-2.5-30.3l-6.4,0v10.3l7.1,0c3.4,0,5.5-0.1,6.4-0.2c1.7-0.2,3-0.7,3.9-1.6
					c0.9-0.9,1.4-2,1.4-3.5c0-1.4-0.4-2.5-1.2-3.3c-0.8-0.9-2-1.4-3.6-1.6c-1-0.1-3.8-0.2-8.5-0.2L-2.5-30.3z"/>
			</g>
		</mask>
		<polygon id="路径_00000109022368167448946740000017249307192078237356_" class="st4" points="-19.2,-38.4 163,-38.4 163,8 
			-19.2,8 		"/>
	</g>
</g>
</svg>
