<svg width="215" height="58" viewBox="0 0 215 58" fill="none" xmlns="http://www.w3.org/2000/svg">
<g id="bungee_powered_white 1" clip-path="url(#clip0_22530_9142)">
<g id="Group">
<path id="Vector" d="M11.1149 32.5032C17.2898 32.5032 22.2298 27.4936 22.2298 21.4821C22.2298 15.4705 17.1775 10.4609 11.1149 10.4609C5.05222 10.4609 0 15.2479 0 21.3707C0 27.4936 5.05222 32.3918 11.1149 32.3918V32.5032Z" fill="#FF3578"/>
<path id="Vector_2" d="M203.773 32.5032C209.948 32.5032 214.888 27.4936 214.888 21.4821C214.888 15.4705 209.836 10.4609 203.773 10.4609C197.71 10.4609 192.658 15.4705 192.658 21.4821C192.658 27.4936 197.71 32.5032 203.773 32.5032Z" fill="#0AB6A2"/>
<path id="Vector_3" d="M49.8487 10.0153C48.2769 8.90204 46.4805 8.45675 44.4596 8.45675C42.4388 8.45675 41.6529 8.79072 40.5301 9.34734C39.4074 9.90396 38.5093 10.7946 37.8356 11.9078C37.162 13.021 36.4884 14.4683 36.0393 16.1381H34.9166C35.1411 15.1362 35.2534 14.1343 35.4779 13.2437C35.7025 12.3531 35.8147 11.4625 35.927 10.6832C36.0393 9.79264 36.1516 9.01337 36.1516 8.2341V-0.00390625H28.5171V33.8387H34.8043V26.4913H35.8147C36.0393 28.2725 36.6006 29.7197 37.2743 30.9443C38.0602 32.1688 38.9583 33.0594 40.1933 33.6161C41.4283 34.1727 42.7756 34.5067 44.3474 34.5067C45.9192 34.5067 48.3892 33.95 49.8487 32.9481C51.4205 31.8349 52.5432 30.3876 53.4414 28.4951C54.3395 26.6026 54.6764 24.2648 54.6764 21.593C54.6764 18.9212 54.2273 16.4721 53.4414 14.5796C52.5432 12.5757 51.4205 11.1285 49.8487 10.0153ZM46.0315 25.1554C45.5824 26.1573 45.021 27.0479 44.2351 27.6045C43.4492 28.1612 42.551 28.4951 41.4283 28.4951C40.3056 28.4951 39.632 28.2725 38.9583 27.9385C38.2847 27.4932 37.7234 26.9366 37.2743 26.2686C36.8252 25.6007 36.6006 24.9328 36.3761 24.1535C36.1516 23.3742 36.0393 22.7063 36.0393 22.0383V21.0364C36.0393 20.4798 36.0393 19.8118 36.2638 19.2552C36.3761 18.5873 36.7129 18.0306 36.9375 17.474C37.2743 16.9174 37.6111 16.3608 38.0602 15.9155C38.5093 15.4702 38.9583 15.1362 39.632 14.9136C40.1933 14.6909 40.867 14.5796 41.5406 14.5796C42.551 14.5796 43.4492 14.9136 44.2351 15.4702C45.021 16.0268 45.5824 16.8061 46.0315 17.9193C46.4805 18.9212 46.5928 20.1458 46.5928 21.593C46.5928 23.0402 46.3683 24.2648 45.9192 25.2667L46.0315 25.1554Z" fill="white"/>
<path id="Vector_4" d="M93.522 8.34375C91.9502 8.34375 90.603 8.67772 89.368 9.23435C88.2453 9.79097 87.2348 10.6816 86.4489 11.9061C85.663 13.1307 85.1017 14.5779 84.6526 16.3591H83.7544V9.0117H75.7831V20.0328C75.7831 21.2574 75.7831 22.3706 75.4463 23.3725C75.2218 24.3745 74.8849 25.2651 74.5481 26.0443C74.099 26.8236 73.65 27.3802 72.9763 27.8255C72.415 28.2708 71.6291 28.3821 70.8432 28.3821C69.3836 28.3821 68.3732 27.8255 67.6996 26.7123C67.0259 25.599 66.6891 23.8178 66.6891 21.48V9.0117H58.9424V22.4819C58.9424 26.6009 59.7283 29.6067 61.1878 31.6105C62.7596 33.6144 65.005 34.6163 67.9241 34.6163C70.8432 34.6163 70.8432 34.2823 71.9659 33.7257C73.0886 33.1691 73.8745 32.2785 74.6604 31.0539C75.334 29.8294 76.0077 28.1595 76.4567 26.267H77.3549V33.9484H85.2139V22.7046C85.2139 21.2574 85.4385 19.9215 85.7753 18.6969C86.1121 17.4723 86.6735 16.5818 87.4594 15.8025C88.2453 15.1345 89.2557 14.6892 90.4907 14.6892C91.7257 14.6892 93.0729 15.2459 93.7466 16.4704C94.5325 17.5837 94.8693 19.4762 94.8693 22.0366V33.9484H102.616V21.2574C102.616 16.8044 101.83 13.576 100.258 11.4608C98.6865 9.45699 96.5534 8.45507 93.522 8.45507V8.34375Z" fill="white"/>
<path id="Vector_5" d="M127.541 28.3841C126.53 27.9388 125.52 27.7162 124.509 27.7162C123.499 27.7162 122.713 27.6048 122.039 27.6048H114.405C114.068 27.6048 113.731 27.6048 113.394 27.6048C113.058 27.6048 112.833 27.4935 112.721 27.2709C112.608 27.1595 112.496 26.9369 112.496 26.8256C112.496 26.7142 112.608 26.2689 112.945 26.0463C113.282 25.7123 113.619 25.3783 114.18 24.933C115.415 25.0444 116.201 25.1557 116.65 25.1557C117.099 25.1557 117.548 25.1557 117.885 25.1557C120.018 25.1557 121.927 24.933 123.499 24.3764C125.071 23.8198 126.306 23.0405 127.204 22.0386C128.102 21.0367 128.551 19.9234 128.551 18.6989C128.551 17.4743 128.102 16.5837 127.204 15.9158C126.306 15.2478 124.846 14.8025 122.825 14.4686V13.3553L130.796 14.3572V8.67969H117.773C115.078 8.67969 112.945 9.12498 111.149 9.90426C109.353 10.6835 108.005 11.6854 107.107 12.91C106.209 14.1346 105.76 15.5818 105.76 17.1403C105.76 18.6989 106.321 20.4801 107.444 21.5933C108.567 22.7066 110.139 23.3745 112.047 23.4858V24.4877C109.914 24.933 108.454 25.4897 107.444 26.1576C106.546 26.8256 106.097 27.7162 106.097 28.6068C106.097 29.4973 106.546 30.1653 107.444 30.4993C108.342 30.8332 109.689 31.0559 111.486 31.0559V32.0578C109.24 32.1691 107.556 32.7258 106.321 33.6164C105.199 34.5069 104.637 35.7315 104.637 37.1787C104.637 38.6259 105.086 39.4052 105.872 40.1845C106.658 41.0751 108.005 41.6317 109.802 42.077C111.598 42.5223 113.956 42.7449 116.65 42.7449C119.345 42.7449 122.713 42.411 124.846 41.8544C126.979 41.2977 128.551 40.2958 129.674 39.0712C130.684 37.8467 131.246 36.2881 131.246 34.5069C131.246 32.7258 130.909 31.5012 130.123 30.6106C129.449 29.72 128.551 29.0521 127.541 28.6068V28.3841ZM114.405 14.6912C115.078 13.9119 116.201 13.4666 117.436 13.4666C118.671 13.4666 119.682 13.9119 120.468 14.6912C121.141 15.4705 121.478 16.4724 121.478 17.5856C121.478 18.6989 121.141 19.5895 120.468 20.3687C119.794 21.0367 118.783 21.482 117.436 21.482C116.089 21.482 115.752 21.3707 115.191 21.0367C114.629 20.7027 114.18 20.2574 113.843 19.7008C113.507 19.1442 113.394 18.4762 113.394 17.697C113.394 16.4724 113.731 15.5818 114.517 14.8025L114.405 14.6912ZM124.06 35.3975C123.723 35.8428 122.937 36.0655 121.927 36.2881C120.917 36.5108 119.457 36.6221 117.661 36.6221C115.864 36.6221 115.191 36.6221 114.293 36.3995C113.507 36.2881 112.833 36.0655 112.496 35.7315C112.159 35.3975 111.935 34.9522 111.935 34.3956C111.935 33.839 112.159 33.0597 112.721 32.5031C113.282 31.9465 114.18 31.6125 115.303 31.6125H121.478C121.702 31.6125 122.039 31.6125 122.376 31.6125C122.713 31.6125 123.162 31.6125 123.499 31.8352C123.836 31.9465 124.172 32.1691 124.397 32.5031C124.622 32.8371 124.734 33.2824 124.734 33.839C124.734 34.3956 124.509 34.9522 124.172 35.3975H124.06Z" fill="white"/>
<g id="Group_2">
<path id="Vector_6" d="M151.117 26.7123C150.893 27.1576 150.668 27.6029 150.219 27.9368C149.882 28.2708 149.433 28.6048 148.872 28.8274C148.311 29.0501 147.637 29.1614 146.739 29.1614C144.942 29.1614 143.595 28.6048 142.472 27.3802C141.574 26.3783 141.013 25.0424 140.901 23.0386H158.19C158.303 20.5894 158.19 18.5856 157.741 16.6931C157.292 14.9119 156.506 13.3533 155.496 12.1288C154.486 10.9042 153.251 9.90229 151.679 9.34567C150.107 8.67772 148.423 8.34375 146.402 8.34375C144.381 8.34375 142.585 8.67772 141.013 9.34567C139.441 10.0136 138.094 10.9042 136.971 12.1288C135.848 13.3533 135.063 14.8006 134.501 16.3591C133.94 18.029 133.603 19.8102 133.603 21.814C133.603 23.8178 133.94 25.7104 134.501 27.2689C135.063 28.8274 135.961 30.1633 137.083 31.2766C138.206 32.3898 139.666 33.1691 141.35 33.7257C143.034 34.2823 144.83 34.505 146.963 34.505C149.096 34.505 150.331 34.2823 151.566 33.9484C152.914 33.6144 154.036 33.0578 154.935 32.3898C155.833 31.7219 156.619 30.8313 157.18 29.9407C157.741 29.0501 158.191 27.9368 158.415 26.8236L151.791 25.3764C151.679 25.8217 151.454 26.1556 151.23 26.6009L151.117 26.7123ZM143.483 15.0232C144.381 14.4666 145.279 14.1326 146.402 14.1326C147.525 14.1326 148.198 14.3553 148.984 14.8006C149.77 15.2459 150.331 15.9138 150.781 16.9157C151.005 17.4723 151.117 18.1403 151.23 18.9196H141.125C141.237 18.4743 141.35 18.029 141.574 17.5837C142.023 16.4704 142.697 15.5798 143.483 15.0232Z" fill="white"/>
<path id="Vector_7" d="M179.859 25.3783C179.747 25.8236 179.522 26.1576 179.298 26.6029C179.073 27.0482 178.848 27.4935 178.399 27.8275C178.063 28.1614 177.613 28.4954 177.052 28.7181C176.491 28.9407 175.817 29.052 174.919 29.052C173.123 29.052 171.775 28.4954 170.653 27.2708C169.754 26.2689 169.193 24.933 169.081 22.9292H186.371C186.483 20.4801 186.371 18.4762 185.922 16.5837C185.472 14.8025 184.687 13.244 183.676 12.0194C182.666 10.7948 181.431 9.79292 179.859 9.23629C178.287 8.56835 176.603 8.23438 174.582 8.23438C172.561 8.23438 170.765 8.56835 169.193 9.23629C167.621 9.90424 166.274 10.7948 165.151 12.0194C164.029 13.244 163.243 14.6912 162.681 16.2497C162.12 17.9196 161.783 19.7008 161.783 21.7046C161.783 23.7085 162.12 25.601 162.681 27.1595C163.243 28.7181 164.141 30.054 165.264 31.1672C166.386 32.2804 167.846 33.0597 169.53 33.6163C171.214 34.173 173.01 34.3956 175.144 34.3956C177.277 34.3956 178.512 34.173 179.747 33.839C181.094 33.505 182.217 32.9484 183.115 32.2804C184.013 31.6125 184.799 30.7219 185.36 29.8313C185.922 28.9407 186.371 27.8275 186.595 26.7142L179.971 25.267L179.859 25.3783ZM171.663 15.0252C172.561 14.4685 173.459 14.1346 174.582 14.1346C175.705 14.1346 176.378 14.3572 177.164 14.8025C177.95 15.2478 178.512 15.9158 178.961 16.9177C179.185 17.4743 179.298 18.1422 179.41 18.9215H169.305C169.418 18.4762 169.53 18.0309 169.754 17.5856C170.204 16.4724 170.877 15.5818 171.663 15.0252Z" fill="white"/>
</g>
</g>
<g id="Group_3">
<g id="Group_4">
<path id="Vector_8" d="M29.1909 57.7771V49.7617H29.8645V57.7771H29.1909ZM29.4155 55.2166V54.5487H31.4363C31.6609 54.5487 31.7732 54.5487 32.11 54.5487C32.3345 54.5487 32.5591 54.5487 32.8959 54.4373C33.1204 54.4373 33.345 54.2147 33.5695 54.1034C33.7941 53.992 33.9063 53.7694 34.1309 53.4354C34.2431 53.2128 34.3554 52.8788 34.3554 52.4335C34.3554 51.9882 34.3554 51.6542 34.1309 51.4316C34.0186 51.2089 33.7941 50.9863 33.5695 50.875C33.345 50.7636 33.1204 50.6523 32.8959 50.541C32.6713 50.541 32.4468 50.541 32.2223 50.4297C31.9977 50.4297 31.8854 50.4297 31.6609 50.4297H29.4155V49.7617H31.7732C32.2222 49.7617 32.6713 49.7617 33.0082 49.873C33.345 49.9844 33.6818 50.0957 34.0186 50.3183C34.3554 50.541 34.58 50.875 34.6922 51.2089C34.8045 51.5429 34.9168 51.9882 34.9168 52.4335C34.9168 52.8788 34.8045 53.5467 34.4677 53.8807C34.1309 54.2147 33.7941 54.5487 33.2327 54.7713C32.6713 54.994 31.9977 55.1053 31.2118 55.1053H29.3032L29.4155 55.2166Z" fill="white"/>
<path id="Vector_9" d="M42.5517 57.9997C41.9903 57.9997 41.429 57.9997 40.9799 57.6657C40.5308 57.4431 40.194 57.2204 39.8572 56.7751C39.5203 56.4412 39.4081 55.9959 39.1835 55.4393C39.0713 54.8826 38.959 54.4373 38.959 53.7694C38.959 52.8788 39.0713 52.0995 39.4081 51.4316C39.7449 50.7636 40.0817 50.3183 40.6431 49.9844C41.2044 49.6504 41.7658 49.5391 42.4394 49.5391C43.113 49.5391 43.4498 49.5391 43.8989 49.873C44.348 50.0957 44.6848 50.3183 45.0216 50.7636C45.3585 51.0976 45.583 51.5429 45.6953 52.0995C45.8075 52.6561 45.9198 53.2128 45.9198 53.8807C45.9198 54.5487 45.9198 54.994 45.6953 55.5506C45.583 56.1072 45.3585 56.4412 45.0216 56.8865C44.6848 57.2204 44.348 57.5544 43.8989 57.7771C43.4498 57.9997 43.0008 58.111 42.3271 58.111L42.5517 57.9997ZM42.4394 57.3318C42.6639 57.3318 43.0008 57.3318 43.3376 57.2204C43.6744 57.2204 44.0112 56.9978 44.2357 56.6638C44.5726 56.4412 44.7971 56.1072 44.9094 55.6619C45.0216 55.2166 45.1339 54.66 45.1339 53.8807C45.1339 53.1014 45.0216 52.3222 44.7971 51.8769C44.5726 51.3203 44.2357 50.9863 43.7867 50.7636C43.3376 50.541 42.8885 50.4297 42.4394 50.4297C41.9903 50.4297 41.878 50.4297 41.5412 50.541C41.2044 50.541 40.8676 50.7636 40.6431 51.0976C40.4185 51.4316 40.0817 51.6542 39.9694 52.2108C39.7449 52.6561 39.6326 53.3241 39.6326 53.992C39.6326 54.66 39.6326 55.2166 39.8572 55.6619C39.9694 56.1072 40.194 56.4412 40.5308 56.6638C40.7553 56.8865 41.0921 57.1091 41.429 57.2204C41.7658 57.2204 42.1026 57.3318 42.3271 57.3318H42.4394Z" fill="white"/>
<path id="Vector_10" d="M51.8695 57.7771L49.7363 49.7617H50.5222L52.4308 57.1091L54.2272 49.7617H55.2376L57.034 57.1091L58.9426 49.7617H59.7285L57.4831 57.7771H56.4726L54.6763 50.4297L52.8799 57.7771H51.8695Z" fill="white"/>
<path id="Vector_11" d="M63.9951 57.7771V49.7617H64.6687V57.7771H63.9951ZM64.2197 50.4297V49.7617H69.3842V50.4297H64.2197ZM64.2197 53.992V53.3241H68.8228V53.992H64.2197ZM64.2197 57.7771V57.1091H69.3842V57.7771H64.2197Z" fill="white"/>
<path id="Vector_12" d="M73.5381 57.7771V49.7617H76.0081C76.3449 49.7617 76.794 49.7617 77.1308 49.7617C77.4676 49.7617 77.6921 49.873 78.0289 50.0957C78.3658 50.3183 78.478 50.4297 78.7026 50.541C78.9271 50.7636 79.0394 50.9863 79.1517 51.2089C79.1517 51.4316 79.2639 51.7656 79.2639 51.9882C79.2639 52.2109 79.2639 52.5448 79.1517 52.7675C79.1517 52.9901 78.9271 53.2128 78.8148 53.4354C78.7026 53.6581 78.478 53.7694 78.2535 53.8807C78.0289 53.992 77.6921 54.1034 77.3553 54.1034C77.5799 54.2147 77.8044 54.326 77.9167 54.4373C78.1412 54.4373 78.3658 54.66 78.478 54.8826C78.5903 55.1053 78.8149 55.4393 78.9271 55.7732L79.4885 57.6657H78.8148L78.3658 55.9959C78.3658 55.6619 78.1412 55.3279 77.9167 55.1053C77.6921 54.8826 77.4676 54.7713 77.1308 54.66C76.9062 54.66 76.5694 54.5487 76.2326 54.5487H74.324V57.7771H73.6504H73.5381ZM74.2117 53.992H75.6712C75.8958 53.992 76.1203 53.992 76.3449 53.992C76.5694 53.992 76.794 53.992 77.0185 53.992C77.243 53.992 77.4676 53.8807 77.6921 53.7694C77.9167 53.6581 78.0289 53.4354 78.2535 53.2128C78.478 52.9901 78.478 52.6562 78.478 52.3222C78.478 51.9882 78.478 51.6542 78.2535 51.4316C78.0289 51.2089 77.9167 50.9863 77.8044 50.875C77.6921 50.7636 77.3553 50.6523 77.1308 50.6523C76.9062 50.6523 76.6817 50.6523 76.4571 50.6523C76.2326 50.6523 76.0081 50.6523 75.8958 50.6523H74.2117V54.2147V53.992Z" fill="white"/>
<path id="Vector_13" d="M83.7549 57.7771V49.7617H84.4285V57.7771H83.7549ZM83.9794 50.4297V49.7617H89.1439V50.4297H83.9794ZM83.9794 53.992V53.3241H88.5826V53.992H83.9794ZM83.9794 57.7771V57.1091H89.1439V57.7771H83.9794Z" fill="white"/>
<path id="Vector_14" d="M93.2979 57.7771V49.7617H93.9715V57.7771H93.2979ZM93.7469 57.7771V57.1091H96.1046C96.5537 57.1091 97.0028 57.1091 97.3396 56.8865C97.6764 56.6638 98.0133 56.4412 98.1255 56.2185C98.2378 55.9959 98.4623 55.5506 98.5746 55.1053C98.5746 54.66 98.6869 54.2147 98.6869 53.7694C98.6869 53.3241 98.6869 52.8788 98.5746 52.4335C98.5746 51.9882 98.3501 51.6542 98.1255 51.3203C97.901 50.9863 97.5642 50.7636 97.2274 50.6523C96.7783 50.4297 96.3292 50.4297 95.7678 50.4297H93.7469V49.7617H95.7678C96.666 49.7617 97.3396 49.873 97.901 50.207C98.4623 50.541 98.9114 50.9863 99.136 51.5429C99.3605 52.0995 99.5851 52.8788 99.5851 53.6581C99.5851 54.4373 99.5851 54.8826 99.3605 55.3279C99.2482 55.7732 99.0237 56.2185 98.7992 56.4412C98.5746 56.7752 98.3501 56.9978 98.0133 57.2205C97.6764 57.4431 97.4519 57.5544 97.1151 57.6657C96.7783 57.6657 96.4415 57.7771 96.2169 57.7771H93.7469Z" fill="white"/>
<path id="Vector_15" d="M107.893 57.7771V49.7617H110.588C111.037 49.7617 111.373 49.7617 111.823 49.873C112.159 49.873 112.496 50.0957 112.721 50.207C112.945 50.4297 113.17 50.541 113.282 50.875C113.394 51.0976 113.507 51.4316 113.507 51.7656C113.507 52.0995 113.507 52.3222 113.282 52.5448C113.17 52.7675 112.945 52.9901 112.721 53.1015C112.496 53.2128 112.159 53.3241 111.71 53.4354C112.496 53.6581 112.945 53.7694 113.282 54.2147C113.619 54.66 113.731 54.994 113.731 55.5506C113.731 56.1072 113.731 56.3299 113.394 56.6638C113.17 56.9978 112.833 57.2204 112.496 57.4431C112.159 57.6657 111.486 57.6657 110.812 57.6657H107.781L107.893 57.7771ZM108.679 53.3241H110.138C110.588 53.3241 110.924 53.3241 111.261 53.3241C111.598 53.3241 111.823 53.2128 112.159 53.1015C112.384 52.9901 112.608 52.8788 112.721 52.6562C112.833 52.4335 112.945 52.2109 112.945 51.9882C112.945 51.7656 112.945 51.5429 112.833 51.3203C112.833 51.0976 112.608 50.9863 112.384 50.875C112.159 50.7636 111.935 50.6523 111.71 50.6523C111.373 50.6523 111.149 50.6523 110.7 50.6523H108.903V53.5467L108.679 53.3241ZM108.679 57.2205H111.149C111.486 57.2205 111.71 57.2205 112.047 57.2205C112.272 57.2205 112.496 57.1091 112.721 56.9978C112.945 56.8865 113.058 56.7752 113.17 56.5525C113.17 56.3299 113.282 56.1072 113.282 55.8846C113.282 55.6619 113.282 55.4393 113.17 55.2166C113.17 54.994 112.945 54.8826 112.833 54.7713C112.721 54.66 112.496 54.5487 112.272 54.4373C112.047 54.4373 111.823 54.326 111.486 54.2147C111.149 54.1034 110.812 54.2147 110.475 54.2147H108.791V57.3318L108.679 57.2205Z" fill="white"/>
<path id="Vector_16" d="M119.906 57.7771V55.1053L117.212 49.7617H117.998L120.243 54.326L122.489 49.7617H123.275L120.58 55.1053V57.7771H119.906Z" fill="white"/>
</g>
<g id="Group_5">
<path id="Vector_17" d="M185.81 49.5391H178.961V50.875H181.544V57.8884H183.228V50.875H185.81V49.5391Z" fill="white"/>
<path id="Vector_18" d="M146.964 49.9824C146.29 49.6484 145.617 49.4258 144.718 49.4258C143.82 49.4258 143.147 49.6484 142.473 49.9824C141.799 50.3164 141.35 50.873 140.901 51.5409C140.564 52.2089 140.34 52.8768 140.34 53.7674C140.34 54.658 140.564 55.326 140.901 55.9939C141.238 56.6619 141.799 57.1072 142.473 57.5525C143.147 57.8864 143.82 58.1091 144.718 58.1091C145.617 58.1091 146.29 57.8864 146.964 57.5525C147.637 57.2185 148.087 56.6619 148.536 55.9939C148.872 55.326 149.097 54.5467 149.097 53.7674C149.097 52.9882 148.872 52.2089 148.536 51.5409C148.199 50.873 147.637 50.3164 146.964 49.9824ZM147.076 55.2146C146.852 55.6599 146.515 55.9939 146.178 56.2166C145.729 56.4392 145.28 56.5505 144.831 56.5505C144.382 56.5505 143.82 56.4392 143.483 56.2166C143.034 55.9939 142.81 55.6599 142.585 55.2146C142.361 54.7693 142.248 54.3241 142.248 53.7674C142.248 53.2108 142.361 52.7655 142.585 52.3202C142.81 51.8749 143.147 51.5409 143.483 51.3183C143.933 51.0956 144.382 50.9843 144.831 50.9843C145.28 50.9843 145.841 51.0956 146.178 51.3183C146.627 51.5409 146.852 51.8749 147.076 52.3202C147.301 52.7655 147.413 53.2108 147.413 53.7674C147.413 54.3241 147.301 54.7693 147.076 55.2146Z" fill="white"/>
<path id="Vector_19" d="M136.747 53.2128C136.411 52.9901 135.849 52.8788 135.288 52.7675C134.951 52.7675 134.614 52.5448 134.39 52.5448C134.165 52.5448 134.053 52.3222 133.828 52.2108C133.716 52.0995 133.604 51.8769 133.604 51.6542C133.604 51.4316 133.604 51.3203 133.716 51.2089C133.716 51.0976 133.941 50.9863 134.165 50.875C134.39 50.875 134.614 50.875 134.839 50.875C135.288 50.875 135.625 50.875 135.849 51.2089C136.186 51.4316 136.298 51.6542 136.411 52.0995H137.982C137.982 51.3203 137.533 50.6523 136.972 50.207C136.411 49.7617 135.625 49.5391 134.727 49.5391C133.828 49.5391 133.716 49.5391 133.267 49.873C132.818 50.0957 132.481 50.3183 132.257 50.7636C132.032 51.0976 131.92 51.5429 131.92 51.9882C131.92 52.4335 132.032 52.9901 132.257 53.3241C132.481 53.6581 132.818 53.8807 133.155 54.1034C133.492 54.2147 133.941 54.4373 134.614 54.5487C135.063 54.5487 135.4 54.7713 135.625 54.8826C135.849 54.8826 136.074 55.1053 136.186 55.2166C136.298 55.3279 136.411 55.5506 136.411 55.8846C136.411 56.2185 136.411 56.2185 136.186 56.4412C136.074 56.5525 135.849 56.6638 135.737 56.7751C135.512 56.7751 135.288 56.8865 134.951 56.8865C134.614 56.8865 134.39 56.8865 134.053 56.6638C133.828 56.5525 133.604 56.3299 133.379 56.1072C133.267 55.8846 133.155 55.5506 133.043 55.2166H131.471C131.471 55.8846 131.695 56.3298 132.032 56.7751C132.369 57.2204 132.706 57.5544 133.267 57.7771C133.716 57.9997 134.277 58.111 134.951 58.111C135.625 58.111 136.074 58.111 136.523 57.7771C136.972 57.5544 137.309 57.2204 137.646 56.8865C137.87 56.5525 138.095 56.1072 138.095 55.5506C138.095 54.994 137.982 54.4373 137.646 54.1034C137.309 53.7694 136.972 53.4354 136.635 53.3241L136.747 53.2128Z" fill="white"/>
<path id="Vector_20" d="M172.787 54.2147H176.155V52.8788H172.787V50.875H176.941V49.5391H171.215V57.8884H177.053V56.5525H172.787V54.2147Z" fill="white"/>
<path id="Vector_21" d="M157.293 55.7732C157.069 55.9959 156.844 56.2185 156.507 56.3298C156.17 56.4412 155.946 56.5525 155.497 56.5525C155.048 56.5525 154.599 56.4412 154.15 56.2185C153.813 55.9959 153.476 55.6619 153.251 55.2166C153.027 54.7713 152.915 54.2147 152.915 53.6581C152.915 53.1014 152.915 52.5448 153.251 52.0995C153.476 51.6542 153.813 51.3202 154.15 51.0976C154.599 50.875 155.048 50.7636 155.497 50.7636C155.946 50.7636 156.507 50.8749 156.844 51.2089C157.181 51.5429 157.405 51.8769 157.518 52.4335H159.202C159.202 51.8769 158.977 51.3202 158.64 50.8749C158.304 50.4297 157.855 50.0957 157.293 49.7617C156.732 49.5391 156.17 49.3164 155.497 49.3164C154.823 49.3164 153.925 49.5391 153.251 49.873C152.578 50.207 152.129 50.7636 151.792 51.3202C151.455 51.9882 151.23 52.7675 151.23 53.6581C151.23 54.5487 151.455 55.3279 151.792 55.9959C152.129 56.6638 152.69 57.1091 153.251 57.4431C153.925 57.7771 154.599 57.9997 155.385 57.9997C156.17 57.9997 156.732 57.8884 157.181 57.5544C157.742 57.3318 158.191 56.8865 158.528 56.4412C158.865 55.9959 159.089 55.4392 159.089 54.8826H157.405C157.405 55.2166 157.181 55.5506 157.069 55.7732H157.293Z" fill="white"/>
<path id="Vector_22" d="M168.857 49.5391H166.612L163.468 52.8788V49.5391H161.784V57.8884H163.468V55.1053L164.479 53.992L167.173 57.8884H169.194L165.601 52.8788L168.857 49.5391Z" fill="white"/>
</g>
</g>
</g>
<defs>
<clipPath id="clip0_22530_9142">
<rect width="215" height="58" fill="white"/>
</clipPath>
</defs>
</svg>
