<svg width="324" height="92" viewBox="0 0 324 92" fill="none" xmlns="http://www.w3.org/2000/svg">
<path d="M50.5044 36.5652C44.4386 30.5229 34.7976 30.5229 28.7957 36.5652C22.7939 42.6726 22.8578 52.613 28.8597 58.7204C34.8613 64.8275 44.6302 64.8925 50.632 58.7854C50.7341 58.6814 51.156 58.2095 51.8973 57.3699L44.6597 49.9965C43.9157 50.8755 43.5228 51.3362 43.481 51.3786C41.4378 53.4576 38.1177 53.4576 36.0744 51.3786C34.0314 49.2996 34.0314 45.921 36.0107 43.907C37.99 41.8928 41.3101 41.8928 43.3531 43.9718C43.3531 43.9718 49.8045 50.5317 62.7068 63.6512C57.4074 71.4476 48.5251 76.3925 38.9476 76.3925C23.1131 76.3925 10.2158 63.2034 10.2158 46.9606C10.2158 30.7177 23.1131 17.5287 38.9476 17.5287C48.2058 17.5287 56.6976 22.0767 61.997 29.4185C61.1432 30.4273 58.962 32.9584 55.4531 37.0115L62.5942 44.2571L74.4474 30.6529C68.3181 16.4892 54.463 7.13333 38.9476 7.13333C17.4307 7.13333 0 25.0004 0 46.9606C0 68.9209 17.4307 86.7878 38.9476 86.7878C48.7165 86.7878 56.8253 83.6692 64.7425 76.7823C71.9575 70.545 75.3488 61.8969 75.3488 61.8969L50.5044 36.5652Z" fill="url(#paint0_linear_36_133)"/>
<path d="M240.124 52.0192V73.7768H231.245V51.5441C230.344 46.435 225.842 42.5513 220.424 42.5513C214.925 42.5513 210.369 46.5547 209.566 51.7795V73.7768H200.686V34.2922L207.497 38.6138C210.963 35.6445 215.483 33.8485 220.424 33.8485C230.865 33.8485 239.416 41.863 240.145 52.0192H240.124ZM146.918 29.2794C143.968 30.8163 141.334 32.8732 139.136 35.3284C135.855 30.7873 130.511 27.8317 124.477 27.8317C114.498 27.8317 106.409 35.9129 106.409 45.8816C106.409 55.8503 114.498 63.9315 124.477 63.9315C127.716 63.9315 130.756 63.0801 133.384 61.589C134.371 64.7909 135.931 67.7422 137.944 70.3236C133.951 72.5245 129.36 73.7768 124.477 73.7768C109.056 73.7768 96.5541 61.2877 96.5541 45.8816C96.5541 30.4755 109.056 17.9864 124.477 17.9864C133.673 17.9864 141.83 22.4273 146.918 29.2794ZM160.129 73.7768C149.233 73.7768 140.399 64.9611 140.399 54.086C140.399 43.2112 149.233 34.3954 160.129 34.3954C171.026 34.3954 179.86 43.2112 179.86 54.086C179.86 64.9611 171.026 73.7768 160.129 73.7768ZM160.129 65.0254C166.183 65.0254 171.091 60.1277 171.091 54.086C171.091 48.0446 166.183 43.1468 160.129 43.1468C154.076 43.1468 149.168 48.0446 149.168 54.086C149.168 60.1277 154.076 65.0254 160.129 65.0254ZM185.34 34.3954H194.109V73.7768H185.34V34.3954ZM280.704 27.4217H255.618V41.737H279.974V50.6253H255.618V64.8885H280.704V73.7768H246.175V18.5333H280.704V27.4217ZM299.142 54.0023L285.641 34.3954H296.807C297.136 34.9443 297.616 35.6977 298.249 36.6582C298.99 37.7838 299.758 38.9505 300.552 40.1586C301.346 41.3667 302.114 42.5337 302.854 43.6594C303.59 44.7767 304.113 45.6061 304.425 46.1434L304.873 46.92L312.896 34.3954H323.519L310.257 53.6732L324 73.7768H312.971L304.506 60.9049L304.049 61.5832C303.676 62.1366 303.118 62.9908 302.373 64.1472C301.633 65.2988 300.841 66.5191 299.996 67.8081C299.146 69.1001 298.352 70.3234 297.61 71.478C296.979 72.4606 296.498 73.226 296.17 73.7768H285.635L299.142 54.0023Z" fill="#F9FBFE"/>
<path d="M183.528 24.4056C183.528 22.6716 184.16 21.1727 185.424 19.909C186.688 18.6452 188.201 18.0133 189.965 18.0133C191.757 18.0133 193.286 18.6452 194.55 19.909C195.813 21.1434 196.445 22.6569 196.445 24.4497C196.445 26.2425 195.813 27.7708 194.55 29.0347C193.315 30.2984 191.802 30.9302 190.009 30.9302C188.216 30.9302 186.688 30.2984 185.424 29.0347C184.16 27.7708 183.528 26.2278 183.528 24.4056Z" fill="url(#paint1_linear_36_133)"/>
<defs>
<linearGradient id="paint0_linear_36_133" x1="75.3488" y1="46.9606" x2="0" y2="46.9606" gradientUnits="userSpaceOnUse">
<stop stop-color="#22E6B8"/>
<stop offset="1" stop-color="#00C1CE"/>
</linearGradient>
<linearGradient id="paint1_linear_36_133" x1="196.445" y1="24.4718" x2="183.528" y2="24.4718" gradientUnits="userSpaceOnUse">
<stop stop-color="#22E6B8"/>
<stop offset="1" stop-color="#00C1CE"/>
</linearGradient>
</defs>
</svg>
