<svg width="352" height="71" viewBox="0 0 352 71" fill="none" xmlns="http://www.w3.org/2000/svg">
<g clip-path="url(#clip0)">
<path d="M53.0292 49.1575L61.895 56.845C60.2117 59.2018 58.1355 61.334 55.8348 63.0735C52.917 65.3742 49.7185 67.1698 46.2395 68.5165C42.4239 70.0316 38.3276 70.8171 34.2314 70.761C27.5539 70.761 21.6621 69.246 16.4997 66.2159C11.3934 63.2419 7.18494 58.9212 4.3793 53.7588C1.46143 48.4842 0.00247987 42.4801 0.00247987 35.8588C-0.0536331 31.1453 0.844174 26.4318 2.52756 21.9989C4.15484 17.7904 6.5677 13.9186 9.65391 10.6641C12.7401 7.35342 16.4436 4.77223 20.5959 2.97662C25.0289 1.06878 29.7985 0.170971 34.6242 0.227084C41.3016 0.227084 46.8007 1.51768 51.2336 4.15499C55.4421 6.56784 59.0333 9.82239 61.895 13.7503L52.917 21.7183C50.8969 18.7443 48.3718 16.2193 45.3979 14.2553C42.5361 12.4036 38.9449 11.4497 34.6242 11.4497C30.584 11.3374 26.6 12.5158 23.2893 14.7603C20.0909 17.0048 17.5658 20.0349 15.9386 23.5701C14.1991 27.3296 13.3013 31.4259 13.3574 35.5221C13.3013 39.5622 14.1991 43.6024 15.9386 47.2497C17.5658 50.6165 20.0348 53.5344 23.1771 55.6105C26.4317 57.7428 30.1912 58.809 34.063 58.7529C37.9909 58.7529 41.1333 58.1917 43.49 57.0134C45.6223 56.0594 47.5862 54.6566 49.2135 53.0293C50.6725 51.5143 51.963 50.2237 53.0292 49.1575Z" fill="white"/>
<path d="M65.318 45.3973C65.2619 40.9644 66.3841 36.6437 68.5725 32.7719C70.7048 28.9562 73.791 25.8139 77.4945 23.5694C81.3102 21.2687 85.7431 20.1465 90.7932 20.1465C95.8434 20.1465 100.276 21.2687 104.092 23.5694C107.852 25.8139 110.938 28.9562 113.014 32.7719C117.335 40.6277 117.335 50.1669 113.014 58.0227C110.882 61.8384 107.795 65.0368 104.092 67.2813C100.276 69.582 95.8434 70.7603 90.7932 70.7603C85.7431 70.7603 81.3102 69.582 77.4945 67.2813C73.7349 65.0368 70.7048 61.8384 68.5725 58.0227C66.3841 54.1509 65.2619 49.8302 65.318 45.3973ZM90.7932 60.4356C93.8233 60.4356 96.3484 59.65 98.3124 58.1349C100.276 56.6199 101.791 54.5998 102.745 52.2992C103.699 50.1108 104.204 47.754 104.204 45.3973C104.204 43.0406 103.699 40.6838 102.745 38.5515C101.791 36.307 100.276 34.2869 98.3124 32.7719C96.3484 31.2568 93.8233 30.4713 90.7932 30.4713C87.7631 30.4713 85.2381 31.2568 83.2741 32.7719C81.3102 34.2869 79.7951 36.2509 78.8412 38.5515C77.8873 40.7399 77.3823 43.0406 77.3823 45.3973C77.3823 47.754 77.8873 50.1108 78.8412 52.2992C79.7951 54.5998 81.3102 56.5638 83.2741 58.1349C85.2381 59.65 87.7631 60.4356 90.7932 60.4356Z" fill="white"/>
<path d="M118.625 14.3101V1.79688H130.577V14.3101H118.625ZM118.625 69.1324V21.7731H130.577V69.1324H118.625Z" fill="white"/>
<path d="M135.178 69.1344V21.7751H146.569L146.85 27.1059C148.421 25.4786 150.161 24.0758 152.125 22.8974C154.425 21.4385 157.399 20.709 161.103 20.709C166.938 20.709 171.427 22.4485 174.57 26.0397C177.712 29.5748 179.283 34.3444 179.283 40.3485V69.1344H167.387V40.4607C167.387 37.4868 166.546 35.1861 164.918 33.5027C163.235 31.8193 160.878 30.8654 158.521 30.9776C155.379 30.9215 152.405 32.2121 150.329 34.625C148.141 37.094 147.018 40.2363 147.074 43.4908V69.1344H135.178Z" fill="white"/>
<path d="M326.131 32.9966L347.005 1.79783H327.141L316.311 19.249L305.089 1.79783H283.092L284.102 3.20065C283.878 3.08843 283.597 2.9762 283.373 2.92009C278.21 0.956135 272.711 -0.0538959 267.156 0.00221704C260.198 0.00221704 254.138 1.57338 248.863 4.65959C244.879 6.96022 241.456 10.1025 238.763 13.8621C235.845 10.2148 232.086 7.2969 227.821 5.44517C222.378 3.03231 216.206 1.85395 209.304 1.85395H183.436V69.1895H209.192C216.037 69.1895 222.21 67.955 227.709 65.486C231.973 63.6343 235.733 60.7725 238.651 57.1813C241.4 60.9409 244.879 64.0832 248.919 66.3838C254.194 69.4139 260.254 70.929 267.156 70.929C273.16 71.0412 279.108 69.6945 284.495 67.1133L283.092 69.2456H302.676L315.75 48.5399L329.161 69.2456H351.494L326.131 32.9966ZM222.154 48.3716C218.899 51.6822 214.41 53.3656 208.63 53.3656H201.336V17.3972H208.63C214.971 17.3972 219.572 19.0245 222.546 22.3352C225.52 25.6458 226.979 29.9665 226.979 35.3534C226.979 40.7402 225.352 45.0609 222.154 48.3716ZM293.641 53.3095L285.112 45.2853C283.148 47.8665 280.679 50.0549 277.93 51.7383C275.517 53.1412 272.319 53.8706 268.335 53.8706C265.024 53.9267 261.769 53.085 258.964 51.4578C256.27 49.8866 254.138 47.5299 252.735 44.7242C251.276 41.7502 250.491 38.4396 250.547 35.0728C250.491 31.8182 251.22 28.5637 252.679 25.6458C254.026 22.8963 256.158 20.5957 258.795 18.9684C261.433 17.3411 264.687 16.4994 268.447 16.4994C271.589 16.4433 274.675 17.2289 277.425 18.8C280.062 20.3712 282.363 22.5035 284.214 24.9725L293.08 16.0505L306.042 34.68L293.641 53.3095Z" fill="#F94A29"/>
</g>
<defs>
<clipPath id="clip0">
<rect width="351.494" height="71" fill="white"/>
</clipPath>
</defs>
</svg>
