<svg width="148" height="30" viewBox="0 0 148 30" fill="none" xmlns="http://www.w3.org/2000/svg">
<path d="M4.84309 2.36403V4.79894C4.84309 5.39241 4.36199 5.8735 3.76852 5.8735H2.5842C1.67907 5.8735 0.945312 6.60726 0.945312 7.51239C0.945312 8.41753 1.67907 9.15128 2.5842 9.15128H3.2414C3.72406 9.15128 4.11339 9.54331 4.13102 10.0256C4.45946 19.0115 9.12414 18.4945 9.12414 22.8881C9.12414 23.9444 8.4012 25.0295 7.83192 25.7202C7.5117 26.1087 7.57359 26.716 8.02336 26.9423C12.5898 29.2392 18.5624 27.9349 19.9344 26.6335C20.0509 26.523 20.0984 26.3642 20.0894 26.2038C19.9672 24.0173 18.2472 22.4481 17.1632 21.7977C14.1723 20.0032 13.0496 18.1952 12.7642 17.2039C12.7038 16.9939 12.9038 16.8336 13.1125 16.8982C14.9359 17.4622 18.3642 18.3848 18.8008 17.2089C21.3545 18.0161 24.4994 12.8022 22.3276 11.8891C19.5414 10.7176 18.6787 6.96176 15.0714 6.06643C14.1705 5.84284 13.405 5.12104 13.405 4.19284V2.36391C13.405 1.58044 12.7698 0.945312 11.9864 0.945312H11.7127C11.0804 0.945312 10.5678 1.45792 10.5678 2.09025V4.42989C10.5678 5.22718 9.92143 5.8735 9.12414 5.8735C8.32686 5.8735 7.68053 5.22718 7.68053 4.42989V2.09025C7.68053 1.45792 7.16792 0.945312 6.5356 0.945312H6.26181C5.47827 0.945312 4.84309 1.5805 4.84309 2.36403Z" fill="#FFE034"/>
<path fill-rule="evenodd" clip-rule="evenodd" d="M3.89778 4.799V2.36409C3.89778 1.05844 4.95621 0 6.26187 0H6.53566C7.6901 0 8.62596 0.935861 8.62596 2.0903V4.42995C8.62596 4.70512 8.84903 4.92819 9.1242 4.92819C9.39937 4.92819 9.62244 4.70512 9.62244 4.42995V2.09031C9.62244 0.935864 10.5583 0 11.7127 0H11.9864C13.292 0 14.3504 1.05839 14.3504 2.36397V4.1929C14.3504 4.55236 14.6737 4.99373 15.2992 5.14896C17.4128 5.67356 18.6961 7.04483 19.7286 8.26298C19.8471 8.40279 19.9615 8.53915 20.0728 8.67178C20.9843 9.75799 21.6855 10.5936 22.6941 11.0177C23.1669 11.2165 23.5257 11.5518 23.746 11.9824C23.958 12.3966 24.0165 12.8473 23.9962 13.2649C23.9564 14.0862 23.6056 14.957 23.135 15.7C22.6589 16.4518 22.0002 17.1681 21.2377 17.6472C20.6499 18.0165 19.9371 18.2801 19.1835 18.2344C18.8577 18.4939 18.462 18.6135 18.143 18.6678C17.591 18.7618 16.9528 18.7245 16.35 18.6429C15.7099 18.5563 15.0276 18.4075 14.3908 18.2446C14.9816 19.0191 15.9883 19.9903 17.6497 20.9871C18.8425 21.7029 20.8853 23.5029 21.0334 26.1511C21.0541 26.5212 20.9475 26.9756 20.585 27.3194C20.0893 27.7897 19.2991 28.1685 18.4304 28.4524C17.5322 28.746 16.4437 28.9723 15.2618 29.0789C12.909 29.2911 10.0846 29.0373 7.59861 27.7869C6.48405 27.2263 6.48897 25.8633 7.10248 25.1189C7.36113 24.8051 7.64013 24.4186 7.85092 24.0088C8.06534 23.592 8.17883 23.2097 8.17883 22.8881C8.17883 21.4181 7.60163 20.7162 6.66034 19.5715C6.45836 19.3259 6.23961 19.0599 6.00621 18.7615C4.68787 17.0763 3.36518 14.7773 3.18769 10.0967H2.58426C1.15701 10.0967 0 8.9397 0 7.51245C0 6.08521 1.15701 4.92819 2.58426 4.92819H3.76858C3.83993 4.92819 3.89778 4.87035 3.89778 4.799ZM13.0297 17.8616C13.5514 18.8912 14.7484 20.3489 17.1633 21.7978C18.2472 22.4482 19.9672 24.0173 20.0895 26.2039C20.0984 26.3642 20.0509 26.523 19.9344 26.6335C18.5624 27.935 12.5899 29.2393 8.02342 26.9423C7.57365 26.7161 7.51176 26.1087 7.83198 25.7202C8.40126 25.0296 9.1242 23.9445 9.1242 22.8881C9.1242 21.0561 8.31317 20.0779 7.34366 18.9086C5.98804 17.2735 4.32257 15.2647 4.13108 10.0257C4.11345 9.54337 3.72412 9.15134 3.24146 9.15134H2.58426C1.67913 9.15134 0.945372 8.41759 0.945372 7.51245C0.945372 6.60732 1.67913 5.87356 2.58426 5.87356H3.76858C4.36205 5.87356 4.84315 5.39246 4.84315 4.799V2.36409C4.84315 1.58056 5.47833 0.945372 6.26187 0.945372H6.53566C7.16798 0.945372 7.68059 1.45798 7.68059 2.0903V4.42995C7.68059 5.22724 8.32691 5.87356 9.1242 5.87356C9.92148 5.87356 10.5678 5.22724 10.5678 4.42995V2.09031C10.5678 1.45798 11.0804 0.945372 11.7127 0.945372H11.9864C12.7699 0.945372 13.405 1.5805 13.405 2.36397V4.1929C13.405 5.1211 14.1706 5.8429 15.0714 6.06649C17.0809 6.56524 18.2387 7.95166 19.3518 9.28451C20.2368 10.3443 21.0936 11.3703 22.3277 11.8892C24.4995 12.8023 21.3546 18.0161 18.8009 17.209C18.4089 18.2646 15.6062 17.6291 13.7177 17.08C13.7107 17.0779 13.7037 17.0759 13.6967 17.0738C13.6158 17.0503 13.5366 17.0269 13.4594 17.0038C13.3386 16.9676 13.2227 16.9323 13.1125 16.8982C12.9039 16.8337 12.7038 16.994 12.7643 17.2039C12.7976 17.3199 12.8425 17.447 12.9004 17.584C12.9336 17.6625 12.9712 17.7442 13.0133 17.829C13.0187 17.8398 13.0242 17.8507 13.0297 17.8616Z" fill="#252525"/>
<path d="M14.5848 10.6894C14.5848 11.4975 13.9296 12.1526 13.1215 12.1526C12.3133 12.1526 11.6582 11.4975 11.6582 10.6894C11.6582 9.88121 12.3133 9.22607 13.1215 9.22607C13.9296 9.22607 14.5848 9.88121 14.5848 10.6894Z" fill="white"/>
<path d="M14.1195 10.6725C14.1195 11.2117 13.6824 11.6488 13.1433 11.6488C12.6041 11.6488 12.167 11.2117 12.167 10.6725C12.167 10.1334 12.6041 9.69629 13.1433 9.69629C13.6824 9.69629 14.1195 10.1334 14.1195 10.6725Z" fill="#252525"/>
<path fill-rule="evenodd" clip-rule="evenodd" d="M18.7993 17.214C18.3685 17.2123 17.2376 16.9707 16.0297 16.0063C16.3706 16.4335 17.279 17.2198 18.1268 17.2888C17.8167 17.435 16.8723 17.7582 14.8905 17.2042C14.4883 17.0541 14.1415 16.9014 13.8414 16.7693L13.8414 16.7693C12.939 16.3719 12.4592 16.1607 12.1673 16.7669C11.6271 17.8888 14.2611 20.1954 16.1039 21.1029L16.0487 21.0099C15.8916 20.8514 15.8134 20.7135 15.7978 20.5866L14.1452 17.7988L15.1823 17.7988L15.5004 18.0272H17.2619L18.5658 17.7297C18.6521 17.5696 18.7306 17.3982 18.7993 17.214Z" fill="#9E7D1C"/>
<path d="M36.3892 9.71513V13.3901H41.3242V15.7211H36.3892V19.6061H41.9542V22.0001H33.4492V7.32113H41.9542V9.71513H36.3892Z" fill="#212529"/>
<path d="M51.052 22.0001L48.658 18.3881L46.537 22.0001H43.387L47.188 16.1621L43.345 10.3661H46.663L49.036 13.9571L51.178 10.3661H54.328L50.506 16.1621L54.37 22.0001H51.052Z" fill="#212529"/>
<path d="M55.2108 16.1831C55.2108 14.9791 55.4558 13.9291 55.9458 13.0331C56.4358 12.1231 57.1148 11.4231 57.9828 10.9331C58.8508 10.4291 59.8448 10.1771 60.9648 10.1771C62.4068 10.1771 63.5968 10.5411 64.5348 11.2691C65.4868 11.9831 66.1238 12.9911 66.4458 14.2931H63.2748C63.1068 13.7891 62.8198 13.3971 62.4138 13.1171C62.0218 12.8231 61.5318 12.6761 60.9438 12.6761C60.1038 12.6761 59.4388 12.9841 58.9488 13.6001C58.4588 14.2021 58.2138 15.0631 58.2138 16.1831C58.2138 17.2891 58.4588 18.1501 58.9488 18.7661C59.4388 19.3681 60.1038 19.6691 60.9438 19.6691C62.1338 19.6691 62.9108 19.1371 63.2748 18.0731H66.4458C66.1238 19.3331 65.4868 20.3341 64.5348 21.0761C63.5828 21.8181 62.3928 22.1891 60.9648 22.1891C59.8448 22.1891 58.8508 21.9441 57.9828 21.4541C57.1148 20.9501 56.4358 20.2501 55.9458 19.3541C55.4558 18.4441 55.2108 17.3871 55.2108 16.1831Z" fill="#212529"/>
<path d="M75.1516 10.1981C76.0336 10.1981 76.8176 10.3941 77.5036 10.7861C78.1896 11.1641 78.7216 11.7311 79.0996 12.4871C79.4916 13.2291 79.6876 14.1251 79.6876 15.1751V22.0001H76.7476V15.5741C76.7476 14.6501 76.5166 13.9431 76.0546 13.4531C75.5926 12.9491 74.9626 12.6971 74.1646 12.6971C73.3526 12.6971 72.7086 12.9491 72.2326 13.4531C71.7706 13.9431 71.5396 14.6501 71.5396 15.5741V22.0001H68.5996V6.46013H71.5396V11.8151C71.9176 11.3111 72.4216 10.9191 73.0516 10.6391C73.6816 10.3451 74.3816 10.1981 75.1516 10.1981Z" fill="#212529"/>
<path d="M81.7274 16.1411C81.7274 14.9651 81.9584 13.9221 82.4204 13.0121C82.8964 12.1021 83.5334 11.4021 84.3314 10.9121C85.1434 10.4221 86.0464 10.1771 87.0404 10.1771C87.9084 10.1771 88.6644 10.3521 89.3084 10.7021C89.9664 11.0521 90.4914 11.4931 90.8834 12.0251V10.3661H93.8444V22.0001H90.8834V20.2991C90.5054 20.8451 89.9804 21.3001 89.3084 21.6641C88.6504 22.0141 87.8874 22.1891 87.0194 22.1891C86.0394 22.1891 85.1434 21.9371 84.3314 21.4331C83.5334 20.9291 82.8964 20.2221 82.4204 19.3121C81.9584 18.3881 81.7274 17.3311 81.7274 16.1411ZM90.8834 16.1831C90.8834 15.4691 90.7434 14.8601 90.4634 14.3561C90.1834 13.8381 89.8054 13.4461 89.3294 13.1801C88.8534 12.9001 88.3424 12.7601 87.7964 12.7601C87.2504 12.7601 86.7464 12.8931 86.2844 13.1591C85.8224 13.4251 85.4444 13.8171 85.1504 14.3351C84.8704 14.8391 84.7304 15.4411 84.7304 16.1411C84.7304 16.8411 84.8704 17.4571 85.1504 17.9891C85.4444 18.5071 85.8224 18.9061 86.2844 19.1861C86.7604 19.4661 87.2644 19.6061 87.7964 19.6061C88.3424 19.6061 88.8534 19.4731 89.3294 19.2071C89.8054 18.9271 90.1834 18.5351 90.4634 18.0311C90.7434 17.5131 90.8834 16.8971 90.8834 16.1831Z" fill="#212529"/>
<path d="M103.163 10.1981C104.549 10.1981 105.669 10.6391 106.523 11.5211C107.377 12.3891 107.804 13.6071 107.804 15.1751V22.0001H104.864V15.5741C104.864 14.6501 104.633 13.9431 104.171 13.4531C103.709 12.9491 103.079 12.6971 102.281 12.6971C101.469 12.6971 100.825 12.9491 100.349 13.4531C99.8868 13.9431 99.6558 14.6501 99.6558 15.5741V22.0001H96.7158V10.3661H99.6558V11.8151C100.048 11.3111 100.545 10.9191 101.147 10.6391C101.763 10.3451 102.435 10.1981 103.163 10.1981Z" fill="#212529"/>
<path d="M115.157 10.1771C116.025 10.1771 116.788 10.3521 117.446 10.7021C118.104 11.0381 118.622 11.4791 119 12.0251V10.3661H121.961V22.0841C121.961 23.1621 121.744 24.1211 121.31 24.9611C120.876 25.8151 120.225 26.4871 119.357 26.9771C118.489 27.4811 117.439 27.7331 116.207 27.7331C114.555 27.7331 113.197 27.3481 112.133 26.5781C111.083 25.8081 110.488 24.7581 110.348 23.4281H113.267C113.421 23.9601 113.75 24.3801 114.254 24.6881C114.772 25.0101 115.395 25.1711 116.123 25.1711C116.977 25.1711 117.67 24.9121 118.202 24.3941C118.734 23.8901 119 23.1201 119 22.0841V20.2781C118.622 20.8241 118.097 21.2791 117.425 21.6431C116.767 22.0071 116.011 22.1891 115.157 22.1891C114.177 22.1891 113.281 21.9371 112.469 21.4331C111.657 20.9291 111.013 20.2221 110.537 19.3121C110.075 18.3881 109.844 17.3311 109.844 16.1411C109.844 14.9651 110.075 13.9221 110.537 13.0121C111.013 12.1021 111.65 11.4021 112.448 10.9121C113.26 10.4221 114.163 10.1771 115.157 10.1771ZM119 16.1831C119 15.4691 118.86 14.8601 118.58 14.3561C118.3 13.8381 117.922 13.4461 117.446 13.1801C116.97 12.9001 116.459 12.7601 115.913 12.7601C115.367 12.7601 114.863 12.8931 114.401 13.1591C113.939 13.4251 113.561 13.8171 113.267 14.3351C112.987 14.8391 112.847 15.4411 112.847 16.1411C112.847 16.8411 112.987 17.4571 113.267 17.9891C113.561 18.5071 113.939 18.9061 114.401 19.1861C114.877 19.4661 115.381 19.6061 115.913 19.6061C116.459 19.6061 116.97 19.4731 117.446 19.2071C117.922 18.9271 118.3 18.5351 118.58 18.0311C118.86 17.5131 119 16.8971 119 16.1831Z" fill="#212529"/>
<path d="M126.134 22.1471C125.602 22.1471 125.161 21.9861 124.811 21.6641C124.475 21.3281 124.307 20.9151 124.307 20.4251C124.307 19.9351 124.475 19.5291 124.811 19.2071C125.161 18.8711 125.602 18.7031 126.134 18.7031C126.652 18.7031 127.079 18.8711 127.415 19.2071C127.751 19.5291 127.919 19.9351 127.919 20.4251C127.919 20.9151 127.751 21.3281 127.415 21.6641C127.079 21.9861 126.652 22.1471 126.134 22.1471Z" fill="#212529"/>
<path d="M131.778 8.98013C131.26 8.98013 130.826 8.81913 130.476 8.49713C130.14 8.16113 129.972 7.74813 129.972 7.25813C129.972 6.76813 130.14 6.36213 130.476 6.04013C130.826 5.70413 131.26 5.53613 131.778 5.53613C132.296 5.53613 132.723 5.70413 133.059 6.04013C133.409 6.36213 133.584 6.76813 133.584 7.25813C133.584 7.74813 133.409 8.16113 133.059 8.49713C132.723 8.81913 132.296 8.98013 131.778 8.98013ZM133.227 10.3661V22.0001H130.287V10.3661H133.227Z" fill="#212529"/>
<path d="M141.298 22.1891C140.178 22.1891 139.17 21.9441 138.274 21.4541C137.378 20.9501 136.671 20.2431 136.153 19.3331C135.649 18.4231 135.397 17.3731 135.397 16.1831C135.397 14.9931 135.656 13.9431 136.174 13.0331C136.706 12.1231 137.427 11.4231 138.337 10.9331C139.247 10.4291 140.262 10.1771 141.382 10.1771C142.502 10.1771 143.517 10.4291 144.427 10.9331C145.337 11.4231 146.051 12.1231 146.569 13.0331C147.101 13.9431 147.367 14.9931 147.367 16.1831C147.367 17.3731 147.094 18.4231 146.548 19.3331C146.016 20.2431 145.288 20.9501 144.364 21.4541C143.454 21.9441 142.432 22.1891 141.298 22.1891ZM141.298 19.6271C141.83 19.6271 142.327 19.5011 142.789 19.2491C143.265 18.9831 143.643 18.5911 143.923 18.0731C144.203 17.5551 144.343 16.9251 144.343 16.1831C144.343 15.0771 144.049 14.2301 143.461 13.6421C142.887 13.0401 142.18 12.7391 141.34 12.7391C140.5 12.7391 139.793 13.0401 139.219 13.6421C138.659 14.2301 138.379 15.0771 138.379 16.1831C138.379 17.2891 138.652 18.1431 139.198 18.7451C139.758 19.3331 140.458 19.6271 141.298 19.6271Z" fill="#212529"/>
</svg>
