<?xml version="1.0" encoding="UTF-8" standalone="no"?>
<svg
   width="508"
   height="80"
   viewBox="0 0 508 80"
   version="1.1"
   id="svg265"
   xmlns="http://www.w3.org/2000/svg"
   xmlns:svg="http://www.w3.org/2000/svg">
  <defs
     id="defs259">
    <style
       id="style257">
      .cls-1, .cls-2, .cls-3 {
        fill-rule: evenodd;
      }

      .cls-2 {
        fill: #e6e7d5;
      }

      .cls-3 {
        fill: #d5d698;
      }
    </style>
  </defs>
  <path
     id="TRADE"
     class="cls-1"
     d="M 24.074219,7.1347656 V 15.177734 H 8.3691406 v 9.523438 H 24.070312 v 44.43164 H 34.666016 V 24.703125 H 70.701172 V 15.179688 H 34.666016 V 7.1347656 Z M 154.99805,10.359375 122.21484,69.132812 h 12.03321 l 4.45898,-8.267578 h 33.1875 l 10.66211,18.601563 h 12.03711 z m 34.80273,4.820313 v 53.953124 h 21.99024 c 9.748,0 17.15324,-2.290519 22.11328,-6.972656 4.97189,-4.693333 7.40175,-11.541638 7.40039,-20.484375 0,-8.845525 -2.41681,-15.518793 -7.37305,-19.943359 -4.93077,-4.40183 -12.40321,-6.552061 -22.30469,-6.552734 z m 56.28711,0 v 53.953124 h 37.45313 v -9.52539 H 256.67773 V 41.900391 h 22.48243 v -9.523438 h -22.48243 v -7.667969 h 22.48243 v -9.529296 z m -171.923828,0.002 V 69.132812 H 84.753906 V 52.601562 H 96.283203 L 113.31055,79.466797 H 125.1543 L 107.61523,52.375 c 11.62712,-1.247838 17.63868,-7.468363 17.63868,-18.595703 0,-12.388162 -7.52961,-18.597656 -22.15821,-18.597656 z m 126.142578,9.521484 h 13.88086 c 5.66845,0 9.77769,1.41302 12.41797,4.117187 2.64715,2.711212 4.02733,6.934094 4.0293,12.779297 0,5.996592 -1.40684,10.440041 -4.12696,13.427735 -2.70077,2.966448 -6.78433,4.505859 -12.32031,4.505859 h -13.88086 z m -115.552734,0.0059 h 19.501954 c 7.29401,0 10.74023,3.024705 10.74023,9.148438 0,6.166132 -3.44154,9.208771 -10.70703,9.21875 H 84.753906 Z m 70.582034,5.023438 11.45703,21.537109 h -22.99024 z" />
  <path
     id="TRADE_copy"
     data-name="TRADE copy"
     class="cls-2"
     d="M 18.025391,1.1347656 V 9.1796875 H 2.3222656 V 18.703125 H 18.021484 v 44.429687 h 10.59375 V 18.703125 H 64.654297 V 9.1796875 H 28.615234 V 1.1347656 Z M 148.94922,4.359375 116.16602,63.132812 h 12.0332 l 4.46094,-8.267578 h 33.1875 l 10.66601,18.601563 h 12.03711 z m 34.80273,4.8203125 V 63.132812 h 21.99024 c 9.748,0 17.15324,-2.290519 22.11328,-6.972656 4.97189,-4.693333 7.40175,-11.541638 7.40039,-20.484375 0,-8.845525 -2.41681,-15.518794 -7.37305,-19.943359 -4.93076,-4.401831 -12.40321,-6.5520614 -22.30469,-6.5527345 z m 56.28711,0 V 63.132812 h 37.45313 v -9.52539 H 250.63086 V 35.900391 h 22.48047 v -9.523438 h -22.48047 v -7.667969 h 22.48047 V 9.1796875 Z M 68.115234,9.1816406 V 63.132812 h 10.589844 v -16.53125 h 11.527344 l 17.031248,26.865235 h 11.84375 L 101.56836,46.375 c 11.62701,-1.247845 17.63672,-7.468477 17.63672,-18.595703 0,-12.388044 -7.52766,-18.5976564 -22.156252,-18.5976564 z M 194.25781,18.703125 h 13.88281 c 5.66846,0 9.77563,1.412902 12.41602,4.117187 2.64712,2.711176 4.02669,6.933973 4.02734,12.779297 0,5.996638 -1.40622,10.440127 -4.125,13.427735 -2.70087,2.967205 -6.78234,4.506509 -12.31836,4.505859 h -13.88281 z m -115.552732,0.0059 h 19.501953 c 7.294009,0 10.742189,3.024921 10.742189,9.148438 0,6.165919 -3.44349,9.20877 -10.708986,9.21875 H 78.705078 Z m 70.582032,5.023438 11.45703,21.537109 h -22.98828 z" />
  <path
     id="OGRE"
     class="cls-1"
     d="m 316.34375,14.275391 c -7.82489,0 -15.64962,2.743308 -21.93359,8.232421 -2.80073,2.491734 -5.08619,5.508165 -6.72657,8.876954 -3.34158,6.819473 -3.34083,14.799259 0,21.617187 1.64081,3.370507 3.92561,6.387686 6.72852,8.880859 2.91871,2.576562 6.27796,4.603321 9.91211,5.986329 3.83301,1.48776 7.91262,2.242089 12.01953,2.222656 8.06041,0.02013 15.84988,-2.913086 21.89453,-8.248047 2.80935,-2.49231 5.10518,-5.50721 6.76563,-8.876953 3.3432,-6.819505 3.34354,-14.800877 0,-21.621094 -1.6491,-3.35374 -3.93121,-6.354435 -6.72852,-8.841797 -6.27949,-5.485147 -14.10675,-8.228515 -21.93164,-8.228515 z m 65.05664,0.01953 c -8.07494,-0.0098 -15.87946,2.906872 -21.97266,8.210937 -2.82247,2.482935 -5.12316,5.501236 -6.76953,8.878907 -3.34287,6.819245 -3.34414,14.801296 -0.002,21.61914 1.64675,3.379239 3.94779,6.397323 6.77148,8.88086 2.926,2.563889 6.2833,4.58927 9.91407,5.986328 6.71254,2.578687 14.07703,2.920934 21.0039,0.976562 2.46458,-0.706904 4.82444,-1.716594 7.08399,-2.923828 v 13.542969 h 10.67383 V 43.261719 l -0.56446,-0.1875 H 384.5332 v 9.523437 h 12.89453 v 0.966797 c -1.89604,2.153778 -4.21685,3.892152 -6.83398,5.0625 -5.48748,2.409562 -11.6997,2.578386 -17.30664,0.46875 -2.41291,-0.917984 -4.63964,-2.266113 -6.57227,-3.976562 -1.84584,-1.638689 -3.35167,-3.623277 -4.43164,-5.845703 -1.08162,-2.203889 -1.63855,-4.629923 -1.62695,-7.089844 -0.007,-2.428318 0.53586,-4.825276 1.58789,-7.015625 1.06691,-2.235839 2.57263,-4.233426 4.42774,-5.875 1.95584,-1.729598 4.21154,-3.091156 6.65429,-4.011719 2.65613,-1.000103 5.47514,-1.497192 8.31445,-1.46875 1.34326,0.01158 2.68184,0.143219 4.00196,0.392578 10e-4,2.53e-4 0.003,0.0017 0.004,0.002 1.79962,0.375028 3.5538,0.939549 5.23243,1.6875 l 0.49218,0.21875 5.72071,-7.830078 -0.65235,-0.367187 c -2.27863,-1.286714 -4.74169,-2.21632 -7.29492,-2.75586 -2.54212,-0.565296 -5.13806,-0.855626 -7.74414,-0.865234 z m 86.44727,0.884766 v 53.953124 h 37.45312 v -9.52539 H 478.4375 V 41.896484 h 22.48242 V 32.376953 H 478.4375 v -7.667969 h 22.48242 v -9.529296 z m -56.12305,0.002 v 53.947265 h 10.58984 v -16.52739 h 11.53125 l 17.02539,26.865235 h 11.84375 L 445.17578,52.375 c 11.62831,-1.247347 17.63867,-7.467846 17.63867,-18.595703 0,-12.388163 -7.52961,-18.597656 -22.1582,-18.597656 z m -95.46094,8.638671 c 5.38029,-0.02098 10.58458,1.915705 14.64258,5.445313 1.86323,1.631368 3.38306,3.616505 4.46875,5.839844 2.16924,4.476315 2.16969,9.699068 0.002,14.173828 -1.08604,2.225604 -2.60572,4.213442 -4.46875,5.84375 -1.95385,1.706518 -4.19395,3.053202 -6.61718,3.978515 -5.1445,1.959018 -10.83193,1.959068 -15.97657,0 -2.4129,-0.918255 -4.63748,-2.264317 -6.57031,-3.974609 -1.83928,-1.631669 -3.34415,-3.605828 -4.43164,-5.8125 -1.08285,-2.189405 -1.64062,-4.601785 -1.62695,-7.050781 -0.0109,-2.454987 0.54726,-4.87838 1.6289,-7.083984 1.08618,-2.227558 2.59052,-4.224776 4.43164,-5.882813 1.91588,-1.721206 4.12938,-3.079278 6.53321,-4.007813 2.54274,-0.988785 5.24912,-1.487835 7.98437,-1.46875 z m 106.05078,0.884766 h 19.50196 c 7.29312,0 10.74023,3.026731 10.74023,9.150391 0,6.166059 -3.44223,9.20877 -10.70703,9.21875 h -19.53516 z" />
  <path
     id="OGRE_copy"
     data-name="OGRE copy"
     class="cls-3"
     d="m 310.29688,8.2753906 c -7.8249,0 -15.64962,2.7433084 -21.9336,8.2324214 -2.80058,2.491609 -5.08807,5.508004 -6.72851,8.876954 -3.3416,6.819473 -3.34085,14.799261 0,21.617187 1.64087,3.370671 3.92769,6.387811 6.73046,8.880859 2.91866,2.576507 6.27777,4.603247 9.91211,5.986329 3.83395,1.487751 7.91366,2.242798 12.02149,2.222656 8.06051,0.02014 15.84803,-2.915142 21.89258,-8.25 2.80909,-2.492095 5.10888,-5.504863 6.76953,-8.875 3.34191,-6.819766 3.33828,-14.801729 -0.006,-21.621094 -1.64909,-3.35374 -3.93121,-6.354435 -6.72852,-8.841797 -6.27943,-5.485102 -14.1048,-8.2285153 -21.92968,-8.2285154 z m 65.05468,0.019531 c -8.07494,-0.00979 -15.87946,2.9068714 -21.97265,8.2109374 -2.82247,2.482934 -5.12316,5.501235 -6.76953,8.878907 -3.34288,6.819245 -3.34414,14.801296 -0.002,21.61914 1.64675,3.379239 3.9478,6.397323 6.77149,8.88086 2.92599,2.563889 6.28329,4.58927 9.91406,5.986328 6.71254,2.578687 14.07703,2.920934 21.00391,0.976562 2.46457,-0.706903 4.82443,-1.716594 7.08398,-2.923828 v 13.542969 h 10.67383 V 37.074 c -7.7565,-0.08737 -15.77267,0 -23.57227,0 v 9.523656 h 12.89453 v 0.966797 c -1.89604,2.153778 -4.21685,3.892152 -6.83398,5.0625 -5.48743,2.409539 -11.70171,2.578368 -17.30859,0.46875 -2.41273,-0.917916 -4.63758,-2.26602 -6.57032,-3.976562 -1.84584,-1.638689 -3.35168,-3.623277 -4.43164,-5.845703 -1.08163,-2.203889 -1.63855,-4.62992 -1.62695,-7.089844 -0.007,-2.428314 0.53609,-4.825757 1.58789,-7.015625 1.06779,-2.233092 2.57324,-4.227678 4.42773,-5.867188 1.95574,-1.7295 4.20953,-3.089178 6.65235,-4.009765 2.6564,-1.000207 5.47726,-1.499144 8.3164,-1.470704 1.34326,0.01158 2.68184,0.143219 4.00196,0.392579 10e-4,2.53e-4 0.003,0.0017 0.004,0.002 1.79919,0.374943 3.5534,0.941321 5.23242,1.689453 l 0.49219,0.21875 5.72071,-7.830078 -0.65235,-0.369141 C 388.11113,10.63442 385.64935,9.7025967 383.0957,9.1601562 380.55357,8.594844 377.95764,8.3045146 375.35156,8.2949216 Z m 86.44922,0.8847656 V 63.132812 h 37.45313 v -9.52539 H 472.39062 V 35.896484 h 22.48047 v -9.519531 h -22.48047 v -7.667969 h 22.48047 V 9.1796875 Z m -56.12305,0.00195 V 63.128906 h 10.58789 V 46.601562 h 11.53126 l 17.02734,26.865235 h 11.84375 L 439.12891,46.375 c 11.62701,-1.247845 17.63672,-7.468477 17.63671,-18.595703 0,-12.388044 -7.52766,-18.5976564 -22.15624,-18.5976564 z M 310.2168,17.818359 c 5.38057,-0.02149 10.58603,1.915756 14.64453,5.445313 1.86322,1.631369 3.38308,3.616548 4.46875,5.839844 2.16918,4.47701 2.16713,9.700527 -0.002,14.175781 -1.08603,2.225604 -2.60571,4.213442 -4.46874,5.84375 -1.95396,1.706608 -4.19218,3.053271 -6.61524,3.978515 -5.14451,1.959019 -10.83192,1.959068 -15.97656,0 -2.4129,-0.918255 -4.63748,-2.264317 -6.57031,-3.974609 -1.8395,-1.631862 -3.34623,-3.606044 -4.4336,-5.8125 -1.08286,-2.189404 -1.64061,-4.601785 -1.62695,-7.050781 -0.0109,-2.454987 0.54724,-4.878371 1.6289,-7.083984 1.08635,-2.227964 2.59196,-4.226477 4.4336,-5.884766 1.91588,-1.721206 4.12938,-3.079279 6.5332,-4.007813 2.54275,-0.988785 5.24906,-1.487835 7.98438,-1.46875 z m 106.04882,0.886719 h 19.50391 c 7.29313,0 10.74024,3.026731 10.74024,9.150391 0,6.166059 -3.44223,9.20877 -10.70704,9.21875 h -19.53711 z" />
</svg>
