<svg width="115" height="24" viewBox="0 0 115 24" fill="none" xmlns="http://www.w3.org/2000/svg">
<g id="Logo">
<path id="WEEX" fill-rule="evenodd" clip-rule="evenodd" d="M71.5338 19V4.5H82.9144V7.51997H75.2999V10.2297H82.1736V13.229L75.2999 13.2496V15.98H83.1202V19H71.5338ZM62.7765 15.0906L65.6186 4.50001H69.5188L64.6021 19H60.7019L57.9427 9.13339L55.1421 19H51.2419L46.3459 4.50001H50.4328L53.2957 15.0906L56.1586 4.50001H59.8721L62.7765 15.0906ZM86.6466 4.5V19H98.2331V15.98H90.4127V13.2496L97.2864 13.229V10.2297H90.4127V7.51997H98.0273V4.5H86.6466ZM104.498 4.5H100.076L104.913 11.6155L99.7443 19H104.187L107.218 14.5114L110.311 19H114.857L109.647 11.4294L114.442 4.5H109.958L107.218 8.61626L104.498 4.5Z" fill="#D8AE15"/>
<path id="&#229;&#189;&#162;&#231;&#138;&#182;&#231;&#187;&#147;&#229;&#144;&#136;" fill-rule="evenodd" clip-rule="evenodd" d="M24.1273 15.3082L30.3613 8.99947L21.6617 0L12.962 8.99947L19.196 15.2898L15.2972 19.2518L4.89248 8.99947L9.66157 4.14454H13.9173L17.1404 0.653227H8.11562L0 8.99947L15.2972 23.9816L21.6617 17.8003L28.0261 24L43.3233 8.99947L35.2077 0.671669H26.1829L29.406 4.16298H33.6617L38.4308 8.99947L28.0261 19.2703L24.1273 15.3082ZM21.6618 12.5566L18.0372 8.99823L21.6618 5.16772L25.2864 8.99823L21.6618 12.5566Z" fill="#D8AE15"/>
</g>
</svg>
