<?xml version="1.0" encoding="UTF-8"?>
<svg width="226px" height="48px" viewBox="0 0 226 48" version="1.1" xmlns="http://www.w3.org/2000/svg" xmlns:xlink="http://www.w3.org/1999/xlink">
    <!-- Generator: Sketch 48.2 (47327) - http://www.bohemiancoding.com/sketch -->
    <title>Logo</title>
    <desc>Created with Sketch.</desc>
    <defs></defs>
    <g id="xchange-GUI" stroke="none" stroke-width="1" fill="none" fill-rule="evenodd" transform="translate(-240.000000, -80.000000)">
        <g id="Logo" transform="translate(240.000000, 80.000000)" fill="#01D993">
            <path d="M30.0912343,20.7423771 L25.1486057,13.0610057 L25.1184343,13.0610057 C26.4230057,12.0560914 27.8242629,11.1406629 29.3187771,10.3301486 C32.4120343,8.65289143 35.6633486,7.55197714 38.9499771,6.98969143 L30.0912343,20.7423771 Z M35.0486057,35.1032914 L35.1099771,35.1032914 C33.8036914,36.1102629 32.4003771,37.0274057 30.9034629,37.8392914 C27.7652914,39.5408914 24.46392,40.6493486 21.1282629,41.2037486 L30.06792,27.3629486 L35.0486057,35.1032914 Z M60.2136343,10.9400914 C60.2266629,10.9486629 60.2331771,10.95312 60.2331771,10.95312 L60.2259771,10.9472914 L60.22632,10.9472914 C59.8858629,10.6448914 59.5395771,10.3514057 59.1867771,10.0671771 L47.7068914,0.34272 C47.7068914,0.34272 49.1318057,3.17917714 49.1033486,4.83963429 C42.1594629,2.85106286 34.4595771,3.47643429 27.61032,7.19094857 C16.7403771,13.0856914 11.2426629,25.00752 13.0166057,36.54912 C13.32072,28.6712914 16.6148914,21.0588343 22.3886057,15.4284343 L27.9483771,24.06912 L16.6443771,41.61792 C10.7996914,41.7327771 5.02734857,40.20192 0.0195771429,37.2293486 C0.00654857143,37.2207771 3.42857143e-05,37.2159771 3.42857143e-05,37.2159771 L0.00723428571,37.2224914 L0.00689142857,37.2221486 C0.347005714,37.5245486 0.693291429,37.8176914 1.04574857,38.10192 L12.5218629,47.82192 C12.5218629,47.82192 11.0976343,44.9864914 11.1257486,43.3270629 C18.0675771,45.3146057 25.7643771,44.6895771 32.6115771,40.9767771 C43.4774057,35.0847771 48.9730629,23.1684343 47.1998057,11.63232 C46.8956914,19.5111771 43.5984343,27.1250057 37.8202629,32.7536914 L32.21352,24.0410057 L43.5099771,6.55152 C49.3817486,6.42226286 55.1832343,7.95380571 60.2136343,10.9400914 Z" id="Fill-1"></path>
            <path d="M225.987874,25.7156229 L225.987874,24.1377943 L219.483874,24.1377943 L219.483874,33.9860229 L225.987874,33.9860229 L225.987874,32.3221371 L221.356217,32.3221371 L221.356217,29.6101371 L225.92616,29.6101371 L225.92616,28.06968 L221.356217,28.06968 L221.356217,25.7156229 L225.987874,25.7156229 Z M204.567189,29.0187086 L201.832903,24.1254514 L199.67736,24.1254514 L199.67736,33.9860229 L201.549703,33.9860229 L201.549703,27.3548229 L204.530503,32.6423657 L207.634731,27.4041943 L207.634731,33.9860229 L209.507074,33.9860229 L209.507074,24.1254514 L207.424903,24.1254514 L204.567189,29.0187086 Z M188.185131,33.9860229 L190.069474,33.9860229 L190.069474,32.0999657 L188.185131,32.0999657 L188.185131,33.9860229 Z M172.320103,33.9860229 L178.82376,33.9860229 L178.82376,32.3221371 L174.192446,32.3221371 L174.192446,29.6101371 L178.762389,29.6101371 L178.762389,28.06968 L174.192446,28.06968 L174.192446,25.7156229 L178.82376,25.7156229 L178.82376,24.1377943 L172.320103,24.1377943 L172.320103,33.9860229 Z M158.856789,30.5101371 L160.877246,30.5101371 L160.877246,31.4591657 C160.565931,31.7303657 160.213131,31.9484229 159.820217,32.1123086 C159.426617,32.27688 159.009017,32.3591657 158.566389,32.3591657 C158.099074,32.3591657 157.660903,32.2727657 157.251531,32.0999657 C156.841474,31.9275086 156.482846,31.6895657 156.175989,31.3851086 C155.868446,31.0813371 155.626731,30.7299086 155.450846,30.3315086 C155.274274,29.9331086 155.18616,29.5038514 155.18616,29.0433943 C155.18616,28.5918514 155.274274,28.1663657 155.450846,27.7676229 C155.626731,27.3692229 155.868446,27.0201943 156.176331,26.7201943 C156.483531,26.4201943 156.84216,26.1836229 157.252217,26.0111657 C157.662274,25.8387086 158.100789,25.7523086 158.568103,25.7523086 C159.133817,25.7523086 159.646046,25.86168 160.105474,26.0793943 C160.56456,26.2967657 160.978389,26.6564229 161.347303,27.15768 L162.638503,25.8387086 C162.153703,25.2637371 161.565017,24.80328 160.870731,24.4583657 C160.177131,24.1131086 159.407074,23.9406514 158.561589,23.9406514 C157.830274,23.9406514 157.144903,24.0743657 156.504446,24.3411086 C155.863989,24.6085371 155.303417,24.9719657 154.823074,25.43208 C154.342389,25.8925371 153.964903,26.4325371 153.689931,27.0527657 C153.414617,27.6733371 153.277131,28.3371086 153.277131,29.0433943 C153.277131,29.76648 153.416674,30.4401943 153.69576,31.06488 C153.975189,31.6895657 154.352674,32.2316229 154.829246,32.6917371 C155.305474,33.1518514 155.863989,33.5135657 156.504446,33.7765371 C157.144903,34.0391657 157.830274,34.1708229 158.561589,34.1708229 C158.930846,34.1708229 159.302503,34.1317371 159.676217,34.0535657 C160.049931,33.9757371 160.415074,33.8543657 160.772331,33.6901371 C161.129589,33.5259086 161.472446,33.31848 161.800903,33.0675086 C162.12936,32.8172229 162.433131,32.51928 162.712217,32.1740229 L162.712217,28.8829371 L158.856789,28.8829371 L158.856789,30.5101371 Z M141.797246,30.5595086 L137.621589,24.1254514 L135.478389,24.1254514 L135.478389,33.9860229 L137.350731,33.9860229 L137.350731,27.07128 L141.797246,33.9860229 L143.669246,33.9860229 L143.669246,24.1254514 L141.797246,24.1254514 L141.797246,30.5595086 Z M119.305474,30.4237371 L120.967989,26.8741371 L122.606503,30.4237371 L119.305474,30.4237371 Z M120.216789,24.1254514 L115.560789,33.9860229 L117.654617,33.9860229 L118.578617,32.0139086 L123.357703,32.0139086 L124.269017,33.9860229 L126.363189,33.9860229 L121.707189,24.1254514 L120.216789,24.1254514 Z M104.53656,28.0449943 L100.656446,28.0449943 L100.656446,24.1377943 L98.7470743,24.1377943 L98.7470743,33.9860229 L100.656446,33.9860229 L100.656446,29.6228229 L104.53656,29.6228229 L104.53656,33.9860229 L106.445589,33.9860229 L106.445589,24.1377943 L104.53656,24.1377943 L104.53656,28.0449943 Z M87.1194171,31.93368 C86.6514171,32.2089943 86.1134743,32.3468229 85.5055886,32.3468229 C85.0458171,32.3468229 84.6127886,32.2583657 84.20616,32.0814514 C83.7998743,31.9052229 83.4446743,31.6665943 83.14056,31.3665943 C82.8367886,31.0665943 82.5964457,30.7179086 82.4202171,30.3191657 C82.2436457,29.9207657 82.1551886,29.4993943 82.1551886,29.0557371 C82.1551886,28.6038514 82.2436457,28.1787086 82.4202171,27.7799657 C82.5964457,27.3815657 82.8367886,27.0325371 83.14056,26.7325371 C83.4446743,26.4325371 83.7998743,26.1942514 84.20616,26.0173371 C84.6127886,25.8407657 85.0458171,25.7523086 85.5055886,25.7523086 C86.08056,25.7523086 86.6082171,25.8860229 87.08856,26.1527657 C87.5689029,26.4201943 87.9611314,26.77128 88.2649029,27.2070514 L89.5828457,25.8510514 C89.1148457,25.2839657 88.5299314,24.8238514 87.82776,24.4707086 C87.1255886,24.1175657 86.3514171,23.9406514 85.5055886,23.9406514 C84.7746171,23.9406514 84.0892457,24.0719657 83.4487886,24.33528 C82.8083314,24.5979086 82.2508457,24.96168 81.7770171,25.4255657 C81.3031886,25.8901371 80.9294743,26.4325371 80.6558743,27.0527657 C80.3826171,27.6733371 80.24616,28.34088 80.24616,29.0557371 C80.24616,29.7705943 80.3826171,30.4381371 80.6558743,31.0587086 C80.9294743,31.67928 81.3031886,32.21928 81.7770171,32.6797371 C82.2508457,33.1395086 82.8083314,33.50328 83.4487886,33.7700229 C84.0892457,34.0371086 84.7746171,34.1708229 85.5055886,34.1708229 C86.3514171,34.1708229 87.1255886,33.9942514 87.82776,33.6407657 C88.5299314,33.2876229 89.1271886,32.8107086 89.6198743,32.2110514 L88.2895886,30.8430514 C87.9772457,31.2949371 87.5874171,31.6587086 87.1194171,31.93368 Z M72.3134743,24.1254514 L69.9607886,24.1254514 L67.7809029,27.4655657 L65.5879886,24.1254514 L63.2723314,24.1254514 L66.5737029,28.8709371 L62.9767886,33.9860229 L65.3294743,33.9860229 L67.7809029,30.2389371 L70.2319886,33.9860229 L72.5846743,33.9860229 L68.98776,28.8585943 L72.3134743,24.1254514 Z" id="Fill-4"></path>
        </g>
    </g>
</svg>