<?xml version="1.0" encoding="utf-8"?>
<!-- Generator: Adobe Illustrator 23.0.2, SVG Export Plug-In . SVG Version: 6.00 Build 0)  -->
<svg version="1.1"
     id="Lag_1"
     xmlns="http://www.w3.org/2000/svg" xmlns:xlink="http://www.w3.org/1999/xlink"
     x="0px"
     y="0px"
     viewBox="0 0 283.5 283.5"
     style="enable-background:new 0 0 283.5 283.5;"
     xml:space="preserve"
>
    <style type="text/css">
        .st0{fill:#37BDE2;}
        .st2{fill:#FFFFFF;}
    </style>
    <g>
        <polygon class="st0" points="65.1,115.7 49.2,152.3 33.4,115.7 26,115.7 49.2,169.2 72.4,115.7 	"/>
        <g>
            <polygon class="st2" points="119.5,126.4 140.6,126.4 140.6,131.4 125.2,131.4 125.2,139.5 139.8,139.5 139.8,144.2
                125.2,144.2 125.2,153.2 141.4,153.2 141.4,158.3 119.5,158.3 		"/>
            <path class="st2" d="M153,126.4H164c1.5,0,3,0.2,4.4,0.5c1.4,0.3,2.7,0.8,3.8,1.6c1.1,0.7,2,1.7,2.6,2.8
                c0.7,1.2,1,2.6,1,4.3c0,2.3-0.7,4.2-2,5.6c-1.3,1.5-3.1,2.4-5.3,2.9l8.5,14.1h-6.8l-7.4-13.5h-4.1v13.5H153V126.4z M163.3,140.2
                c0.8,0,1.6-0.1,2.4-0.2c0.8-0.1,1.5-0.3,2.2-0.7c0.6-0.3,1.2-0.8,1.6-1.4c0.4-0.6,0.6-1.4,0.6-2.4c0-0.9-0.2-1.6-0.6-2.1
                c-0.4-0.6-0.9-1-1.5-1.3c-0.6-0.3-1.3-0.6-2-0.7c-0.8-0.1-1.5-0.2-2.2-0.2h-5.1v9H163.3z"/>
            <path class="st2" d="M214.3,156.6c-1.6,0.8-3.4,1.4-5.3,1.8c-1.9,0.4-4.2,0.7-6.7,0.7c-2.6,0-4.9-0.4-7.1-1.2
                c-2.1-0.8-4-2-5.5-3.5c-1.5-1.5-2.7-3.3-3.6-5.3c-0.9-2.1-1.3-4.3-1.3-6.8c0-2.5,0.4-4.9,1.3-6.9c0.9-2.1,2.1-3.8,3.6-5.2
                c1.5-1.4,3.4-2.5,5.5-3.3c2.1-0.8,4.4-1.2,6.8-1.2c2.5,0,4.9,0.4,7,1.1c2.1,0.7,3.8,1.7,5.1,2.9l-3.9,4.2
                c-0.8-0.9-1.9-1.7-3.4-2.3c-1.5-0.6-3-0.9-4.7-0.9c-1.7,0-3.2,0.3-4.6,0.9c-1.4,0.6-2.5,1.4-3.5,2.5c-1,1.1-1.7,2.3-2.2,3.7
                c-0.5,1.4-0.8,2.9-0.8,4.6c0,1.7,0.3,3.3,0.8,4.7c0.5,1.4,1.3,2.7,2.2,3.7c1,1.1,2.2,1.9,3.6,2.5c1.4,0.6,3,0.9,4.7,0.9
                c2.4,0,4.5-0.4,6.3-1.1v-8.1h-6.7v-4.7h12.2V156.6z"/>
            <polygon class="st2" points="226.3,126.4 247.4,126.4 247.4,131.4 232,131.4 232,139.5 246.6,139.5 246.6,144.2
                232,144.2 232,153.2 248.2,153.2 248.2,158.3 226.3,158.3 		"/>
            <polygon class="st2"
                     points="81.3,126.4 95.5,158.5 110.3,126.4 103.8,126.4 95.8,144.5 87.8,126.4 		"/>
        </g>
        <polygon class="st0" points="49.2,135.4 57.5,115.7 40.9,115.7 	"/>
    </g>
</svg>
