<?xml version="1.0" encoding="UTF-8"?>
<svg version="1.1" viewBox="0 0 163 26" xmlns="http://www.w3.org/2000/svg">
<title>cv-logo-topbar</title>
<desc>Created with Sketch.</desc>
<defs>
<linearGradient id="a" x1="86.957%" x2="5.8609%" y1="-4.1915%" y2="100%">
<stop stop-color="#FF7E2B" offset="0"/>
<stop stop-color="#FBB848" offset="1"/>
</linearGradient>
</defs>
<g fill="none" fill-rule="evenodd">
<g transform="translate(-155 -28)">
<g transform="translate(155 28)">
<path d="m20.687 2.8889e-4c-1.2227 0-2.3306 0.49524-3.1383 1.2979h-0.0032681c-1.2407 1.3446-3.0071 2.1865-4.9697 2.1865-1.8482 0-3.5223-0.74657-4.747-1.9566-0.8199-0.93641-2.0177-1.5278-3.3531-1.5278-2.472 0-4.4758 2.0239-4.4758 4.5211 0 2.4968 2.0038 4.5211 4.4758 4.5211 1.3902 0 2.6329-0.64051 3.4536-1.6454 1.2149-1.1523 2.8486-1.8588 4.6465-1.8588 1.8302 0 3.4896 0.73254 4.7111 1.9215 0.82072 0.9686 2.0393 1.5827 3.4001 1.5827 2.4711 0 4.4754-2.0243 4.4754-4.5211 0-2.4972-2.0042-4.5211-4.4754-4.5211zm-12.431 11.791c-0.071491 2.496 1.8739 4.5781 4.3442 4.6503 1.2223 0.035492 2.3437-0.42756 3.1738-1.2063l0.0036767 4.127e-4c1.2779-1.3078 3.0684-2.0977 5.0301-2.04 1.8469 0.054064 3.4994 0.84892 4.6886 2.094 0.79335 0.96035 1.974 1.586 3.3086 1.6256 2.4707 0.07181 4.5313-1.893 4.6028-4.389s-1.8735-4.5781-4.3446-4.6503c-1.3898-0.040444-2.6501 0.56375-3.4994 1.5443-1.2476 1.1159-2.9001 1.775-4.6972 1.7226-1.8298-0.053651-3.4671-0.83489-4.6543-2.059-0.79294-0.99213-1.9928-1.6417-3.3531-1.6813-0.043712-0.0012381-0.087832-0.0020635-0.13154-0.0020635-2.4123 0-4.4014 1.9393-4.4717 4.3907zm8.9773 5.1298c-1.2154 1.1518-2.8486 1.8588-4.6461 1.8588-1.8306 0-3.49-0.73337-4.7115-1.9219-0.82113-0.96819-2.0389-1.5831-3.3997-1.5831-2.472 0-4.4758 2.0247-4.4758 4.5219 0 2.4968 2.0038 4.5211 4.4758 4.5211 1.2223 0 2.3298-0.49565 3.1374-1.2983h0.0036767c1.2403-1.3446 3.0071-2.1861 4.9701-2.1861 1.8477 0 3.5223 0.74657 4.7466 1.9562 0.82031 0.93683 2.0181 1.5282 3.3536 1.5282 2.4711 0 4.4754-2.0243 4.4754-4.5211 0-2.4972-2.0042-4.5219-4.4754-4.5219-1.391 0-2.6333 0.64133-3.454 1.6463z" fill="url(#a)" fill-rule="nonzero"/>
<path d="m123.13 5.4238l-3.1714 6.9057-3.1971-6.9057h-5.3018l6.9914 13.471h3.0153l6.9657-13.471h-5.3022zm8.8196 4.779c0.28596-1.3916 1.4298-2.127 2.8074-2.127 1.2734 0 2.4434 0.84025 2.6774 2.127h-5.4848zm2.5737-5.2256c-4.3409 0-7.382 2.7048-7.382 7.195 0 4.6478 3.3009 7.169 7.7198 7.169 1.5336 0 3.041-0.36813 4.2625-1.13 1.2219-0.76102 2.1578-1.9162 2.5214-3.4923h-4.5485c-0.52005 0.89308-1.248 1.2348-2.2616 1.2348-1.9491 0-2.9634-1.0507-2.9634-2.9937h9.9553v-0.49895c0-4.5954-2.677-7.4839-7.3035-7.4839zm-29.734 10.215c-1.9233 0-3.041-1.3132-3.041-3.0197 0-1.6541 1.1177-3.0461 3.041-3.0461 1.9233 0 3.041 1.392 3.041 3.0461 0 1.7065-1.1177 3.0197-3.041 3.0197zm0-10.215c-4.2891 0-8.0319 2.6-8.0319 7.195 0 4.595 3.769 7.169 8.0319 7.169 4.2887 0 8.0319-2.6 8.0319-7.169 0-4.595-3.7433-7.195-8.0319-7.195zm44.909 5.3568c-0.64996-0.13124-2.1313-0.26289-2.1313-1.1816 0-0.6826 0.93551-0.91908 1.4813-0.91908 0.80601 0 1.8196 0.26289 2.5475 0.65619l1.5855-3.0457c-1.3775-0.63019-2.885-0.86667-4.3924-0.86667-2.9111 0-5.8745 1.4704-5.8745 4.779 0 2.4159 1.4817 3.1514 2.9634 3.5451 1.4813 0.39371 2.963 0.44654 2.963 1.4969 0 0.73502-0.88404 1.0235-1.4817 1.0235-1.17 0-2.7812-0.68219-3.7429-1.3648l-1.7158 3.3346c1.612 0.9979 3.4835 1.5497 5.3806 1.5497 3.0929 0 6.2904-1.4709 6.2904-5.0159 0-2.4943-1.6639-3.5451-3.8732-3.9912zm10.51-4.9103v-4.0436h-4.7307v4.0436h-1.5332v3.9388h1.5332v9.5321h4.7307v-9.5321h2.6766v-3.9388h-2.6766zm-63.244 0h-2.677v-4.0436h-4.7307v4.0436h-1.5336v3.9388h1.5336v9.5321h4.7307v-9.5321h2.677v-3.9388zm-63.81 2.6908c0.11602 0.10524 0.23041 0.21254 0.33826 0.3281 1.0454 1.1188 1.5969 2.5818 1.5528 4.1196-0.044937 1.565-0.6904 2.9599-1.7113 3.9656 1.3297 1.737 3.4622 2.8134 5.8353 2.8134 1.1439 0 2.2877-0.2373 3.327-0.76184v-4.044c-0.6234 0.57778-1.5332 0.91949-2.3649 0.91949-1.9495 0-3.327-1.366-3.327-3.309 0-1.8642 1.4294-3.2822 3.2494-3.2822 0.90937 0 1.7411 0.42054 2.4425 0.94508v-4.0436c-0.93551-0.52495-2.0271-0.78784-3.1187-0.78784-2.6301 0-4.899 1.1836-6.2234 3.1373zm30.034 4.2149l-3.5611-6.9057h-5.1678v-0.18365h-0.90978c-1.8453 0-3.405 0.73502-4.3148 2.3895h-0.051882v-2.2059h-4.7307v13.471h4.7307v-5.4357c0-2.3107 0.64955-4.07 3.2747-4.07 0.72798 0 1.3518 0.078825 2.0018 0.44613v-3.8872l6.1556 11.109-4.5485 8.5602h5.3022l10.683-20.193h-5.3806l-3.4831 6.9057zm16.691 2.8625c-1.9233 0-3.041-1.3132-3.041-3.0197 0-1.6541 1.1177-3.0461 3.041-3.0461s3.041 1.392 3.041 3.0461c0 1.7065-1.1177 3.0197-3.041 3.0197zm1.1957-10.215c-1.5597 0-3.1709 0.63019-4.0288 1.9694h-0.052291v-1.5229h-4.7303v20.193h4.7303v-8.0092c1.0144 1.182 2.5994 1.7337 4.133 1.7337 3.9512 0 6.6801-3.2562 6.6801-7.1426 0-3.8604-2.7551-7.2214-6.732-7.2214z" fill="#533D52"/>
</g>
</g>
</g>
</svg>
