<svg xmlns="http://www.w3.org/2000/svg" width="164" height="164" viewBox="0 0 164 164" shape-rendering="crispEdges"><rect width="100%" height="100%" fill="#fff"/><rect x="16" y="16" width="4" height="4"/><rect x="20" y="16" width="4" height="4"/><rect x="24" y="16" width="4" height="4"/><rect x="28" y="16" width="4" height="4"/><rect x="32" y="16" width="4" height="4"/><rect x="36" y="16" width="4" height="4"/><rect x="40" y="16" width="4" height="4"/><rect x="52" y="16" width="4" height="4"/><rect x="56" y="16" width="4" height="4"/><rect x="60" y="16" width="4" height="4"/><rect x="64" y="16" width="4" height="4"/><rect x="76" y="16" width="4" height="4"/><rect x="80" y="16" width="4" height="4"/><rect x="88" y="16" width="4" height="4"/><rect x="92" y="16" width="4" height="4"/><rect x="104" y="16" width="4" height="4"/><rect x="108" y="16" width="4" height="4"/><rect x="120" y="16" width="4" height="4"/><rect x="124" y="16" width="4" height="4"/><rect x="128" y="16" width="4" height="4"/><rect x="132" y="16" width="4" height="4"/><rect x="136" y="16" width="4" height="4"/><rect x="140" y="16" width="4" height="4"/><rect x="144" y="16" width="4" height="4"/><rect x="16" y="20" width="4" height="4"/><rect x="40" y="20" width="4" height="4"/><rect x="56" y="20" width="4" height="4"/><rect x="60" y="20" width="4" height="4"/><rect x="76" y="20" width="4" height="4"/><rect x="80" y="20" width="4" height="4"/><rect x="88" y="20" width="4" height="4"/><rect x="100" y="20" width="4" height="4"/><rect x="104" y="20" width="4" height="4"/><rect x="112" y="20" width="4" height="4"/><rect x="120" y="20" width="4" height="4"/><rect x="144" y="20" width="4" height="4"/><rect x="16" y="24" width="4" height="4"/><rect x="24" y="24" width="4" height="4"/><rect x="28" y="24" width="4" height="4"/><rect x="32" y="24" width="4" height="4"/><rect x="40" y="24" width="4" height="4"/><rect x="48" y="24" width="4" height="4"/><rect x="52" y="24" width="4" height="4"/><rect x="60" y="24" width="4" height="4"/><rect x="64" y="24" width="4" height="4"/><rect x="68" y="24" width="4" height="4"/><rect x="80" y="24" width="4" height="4"/><rect x="100" y="24" width="4" height="4"/><rect x="120" y="24" width="4" height="4"/><rect x="128" y="24" width="4" height="4"/><rect x="132" y="24" width="4" height="4"/><rect x="136" y="24" width="4" height="4"/><rect x="144" y="24" width="4" height="4"/><rect x="16" y="28" width="4" height="4"/><rect x="24" y="28" width="4" height="4"/><rect x="28" y="28" width="4" height="4"/><rect x="32" y="28" width="4" height="4"/><rect x="40" y="28" width="4" height="4"/><rect x="48" y="28" width="4" height="4"/><rect x="52" y="28" width="4" height="4"/><rect x="60" y="28" width="4" height="4"/><rect x="64" y="28" width="4" height="4"/><rect x="68" y="28" width="4" height="4"/><rect x="72" y="28" width="4" height="4"/><rect x="76" y="28" width="4" height="4"/><rect x="92" y="28" width="4" height="4"/><rect x="100" y="28" width="4" height="4"/><rect x="112" y="28" width="4" height="4"/><rect x="120" y="28" width="4" height="4"/><rect x="128" y="28" width="4" height="4"/><rect x="132" y="28" width="4" height="4"/><rect x="136" y="28" width="4" height="4"/><rect x="144" y="28" width="4" height="4"/><rect x="16" y="32" width="4" height="4"/><rect x="24" y="32" width="4" height="4"/><rect x="28" y="32" width="4" height="4"/><rect x="32" y="32" width="4" height="4"/><rect x="40" y="32" width="4" height="4"/><rect x="56" y="32" width="4" height="4"/><rect x="68" y="32" width="4" height="4"/><rect x="92" y="32" width="4" height="4"/><rect x="96" y="32" width="4" height="4"/><rect x="100" y="32" width="4" height="4"/><rect x="120" y="32" width="4" height="4"/><rect x="128" y="32" width="4" height="4"/><rect x="132" y="32" width="4" height="4"/><rect x="136" y="32" width="4" height="4"/><rect x="144" y="32" width="4" height="4"/><rect x="16" y="36" width="4" height="4"/><rect x="40" y="36" width="4" height="4"/><rect x="52" y="36" width="4" height="4"/><rect x="60" y="36" width="4" height="4"/><rect x="72" y="36" width="4" height="4"/><rect x="76" y="36" width="4" height="4"/><rect x="84" y="36" width="4" height="4"/><rect x="88" y="36" width="4" height="4"/><rect x="92" y="36" width="4" height="4"/><rect x="96" y="36" width="4" height="4"/><rect x="100" y="36" width="4" height="4"/><rect x="104" y="36" width="4" height="4"/><rect x="108" y="36" width="4" height="4"/><rect x="112" y="36" width="4" height="4"/><rect x="120" y="36" width="4" height="4"/><rect x="144" y="36" width="4" height="4"/><rect x="16" y="40" width="4" height="4"/><rect x="20" y="40" width="4" height="4"/><rect x="24" y="40" width="4" height="4"/><rect x="28" y="40" width="4" height="4"/><rect x="32" y="40" width="4" height="4"/><rect x="36" y="40" width="4" height="4"/><rect x="40" y="40" width="4" height="4"/><rect x="48" y="40" width="4" height="4"/><rect x="56" y="40" width="4" height="4"/><rect x="64" y="40" width="4" height="4"/><rect x="72" y="40" width="4" height="4"/><rect x="80" y="40" width="4" height="4"/><rect x="88" y="40" width="4" height="4"/><rect x="96" y="40" width="4" height="4"/><rect x="104" y="40" width="4" height="4"/><rect x="112" y="40" width="4" height="4"/><rect x="120" y="40" width="4" height="4"/><rect x="124" y="40" width="4" height="4"/><rect x="128" y="40" width="4" height="4"/><rect x="132" y="40" width="4" height="4"/><rect x="136" y="40" width="4" height="4"/><rect x="140" y="40" width="4" height="4"/><rect x="144" y="40" width="4" height="4"/><rect x="60" y="44" width="4" height="4"/><rect x="64" y="44" width="4" height="4"/><rect x="92" y="44" width="4" height="4"/><rect x="96" y="44" width="4" height="4"/><rect x="104" y="44" width="4" height="4"/><rect x="112" y="44" width="4" height="4"/><rect x="28" y="48" width="4" height="4"/><rect x="32" y="48" width="4" height="4"/><rect x="40" y="48" width="4" height="4"/><rect x="44" y="48" width="4" height="4"/><rect x="52" y="48" width="4" height="4"/><rect x="60" y="48" width="4" height="4"/><rect x="68" y="48" width="4" height="4"/><rect x="72" y="48" width="4" height="4"/><rect x="84" y="48" width="4" height="4"/><rect x="92" y="48" width="4" height="4"/><rect x="96" y="48" width="4" height="4"/><rect x="100" y="48" width="4" height="4"/><rect x="108" y="48" width="4" height="4"/><rect x="112" y="48" width="4" height="4"/><rect x="132" y="48" width="4" height="4"/><rect x="136" y="48" width="4" height="4"/><rect x="32" y="52" width="4" height="4"/><rect x="36" y="52" width="4" height="4"/><rect x="44" y="52" width="4" height="4"/><rect x="48" y="52" width="4" height="4"/><rect x="56" y="52" width="4" height="4"/><rect x="60" y="52" width="4" height="4"/><rect x="64" y="52" width="4" height="4"/><rect x="68" y="52" width="4" height="4"/><rect x="72" y="52" width="4" height="4"/><rect x="84" y="52" width="4" height="4"/><rect x="92" y="52" width="4" height="4"/><rect x="96" y="52" width="4" height="4"/><rect x="100" y="52" width="4" height="4"/><rect x="104" y="52" width="4" height="4"/><rect x="116" y="52" width="4" height="4"/><rect x="128" y="52" width="4" height="4"/><rect x="132" y="52" width="4" height="4"/><rect x="136" y="52" width="4" height="4"/><rect x="140" y="52" width="4" height="4"/><rect x="16" y="56" width="4" height="4"/><rect x="24" y="56" width="4" height="4"/><rect x="32" y="56" width="4" height="4"/><rect x="40" y="56" width="4" height="4"/><rect x="44" y="56" width="4" height="4"/><rect x="52" y="56" width="4" height="4"/><rect x="72" y="56" width="4" height="4"/><rect x="84" y="56" width="4" height="4"/><rect x="88" y="56" width="4" height="4"/><rect x="96" y="56" width="4" height="4"/><rect x="104" y="56" width="4" height="4"/><rect x="108" y="56" width="4" height="4"/><rect x="120" y="56" width="4" height="4"/><rect x="132" y="56" width="4" height="4"/><rect x="136" y="56" width="4" height="4"/><rect x="140" y="56" width="4" height="4"/><rect x="144" y="56" width="4" height="4"/><rect x="16" y="60" width="4" height="4"/><rect x="20" y="60" width="4" height="4"/><rect x="24" y="60" width="4" height="4"/><rect x="36" y="60" width="4" height="4"/><rect x="48" y="60" width="4" height="4"/><rect x="64" y="60" width="4" height="4"/><rect x="72" y="60" width="4" height="4"/><rect x="84" y="60" width="4" height="4"/><rect x="88" y="60" width="4" height="4"/><rect x="92" y="60" width="4" height="4"/><rect x="108" y="60" width="4" height="4"/><rect x="116" y="60" width="4" height="4"/><rect x="124" y="60" width="4" height="4"/><rect x="128" y="60" width="4" height="4"/><rect x="136" y="60" width="4" height="4"/><rect x="144" y="60" width="4" height="4"/><rect x="24" y="64" width="4" height="4"/><rect x="32" y="64" width="4" height="4"/><rect x="40" y="64" width="4" height="4"/><rect x="48" y="64" width="4" height="4"/><rect x="56" y="64" width="4" height="4"/><rect x="60" y="64" width="4" height="4"/><rect x="64" y="64" width="4" height="4"/><rect x="76" y="64" width="4" height="4"/><rect x="84" y="64" width="4" height="4"/><rect x="92" y="64" width="4" height="4"/><rect x="96" y="64" width="4" height="4"/><rect x="100" y="64" width="4" height="4"/><rect x="108" y="64" width="4" height="4"/><rect x="112" y="64" width="4" height="4"/><rect x="120" y="64" width="4" height="4"/><rect x="132" y="64" width="4" height="4"/><rect x="136" y="64" width="4" height="4"/><rect x="140" y="64" width="4" height="4"/><rect x="16" y="68" width="4" height="4"/><rect x="24" y="68" width="4" height="4"/><rect x="32" y="68" width="4" height="4"/><rect x="36" y="68" width="4" height="4"/><rect x="52" y="68" width="4" height="4"/><rect x="60" y="68" width="4" height="4"/><rect x="76" y="68" width="4" height="4"/><rect x="88" y="68" width="4" height="4"/><rect x="92" y="68" width="4" height="4"/><rect x="100" y="68" width="4" height="4"/><rect x="104" y="68" width="4" height="4"/><rect x="108" y="68" width="4" height="4"/><rect x="124" y="68" width="4" height="4"/><rect x="132" y="68" width="4" height="4"/><rect x="140" y="68" width="4" height="4"/><rect x="144" y="68" width="4" height="4"/><rect x="24" y="72" width="4" height="4"/><rect x="28" y="72" width="4" height="4"/><rect x="32" y="72" width="4" height="4"/><rect x="36" y="72" width="4" height="4"/><rect x="40" y="72" width="4" height="4"/><rect x="48" y="72" width="4" height="4"/><rect x="56" y="72" width="4" height="4"/><rect x="68" y="72" width="4" height="4"/><rect x="72" y="72" width="4" height="4"/><rect x="116" y="72" width="4" height="4"/><rect x="124" y="72" width="4" height="4"/><rect x="128" y="72" width="4" height="4"/><rect x="132" y="72" width="4" height="4"/><rect x="16" y="76" width="4" height="4"/><rect x="20" y="76" width="4" height="4"/><rect x="24" y="76" width="4" height="4"/><rect x="28" y="76" width="4" height="4"/><rect x="36" y="76" width="4" height="4"/><rect x="44" y="76" width="4" height="4"/><rect x="48" y="76" width="4" height="4"/><rect x="52" y="76" width="4" height="4"/><rect x="56" y="76" width="4" height="4"/><rect x="60" y="76" width="4" height="4"/><rect x="64" y="76" width="4" height="4"/><rect x="68" y="76" width="4" height="4"/><rect x="72" y="76" width="4" height="4"/><rect x="84" y="76" width="4" height="4"/><rect x="92" y="76" width="4" height="4"/><rect x="96" y="76" width="4" height="4"/><rect x="104" y="76" width="4" height="4"/><rect x="108" y="76" width="4" height="4"/><rect x="132" y="76" width="4" height="4"/><rect x="136" y="76" width="4" height="4"/><rect x="20" y="80" width="4" height="4"/><rect x="24" y="80" width="4" height="4"/><rect x="28" y="80" width="4" height="4"/><rect x="36" y="80" width="4" height="4"/><rect x="40" y="80" width="4" height="4"/><rect x="44" y="80" width="4" height="4"/><rect x="56" y="80" width="4" height="4"/><rect x="64" y="80" width="4" height="4"/><rect x="76" y="80" width="4" height="4"/><rect x="80" y="80" width="4" height="4"/><rect x="84" y="80" width="4" height="4"/><rect x="92" y="80" width="4" height="4"/><rect x="100" y="80" width="4" height="4"/><rect x="104" y="80" width="4" height="4"/><rect x="108" y="80" width="4" height="4"/><rect x="116" y="80" width="4" height="4"/><rect x="120" y="80" width="4" height="4"/><rect x="128" y="80" width="4" height="4"/><rect x="132" y="80" width="4" height="4"/><rect x="136" y="80" width="4" height="4"/><rect x="144" y="80" width="4" height="4"/><rect x="16" y="84" width="4" height="4"/><rect x="20" y="84" width="4" height="4"/><rect x="28" y="84" width="4" height="4"/><rect x="36" y="84" width="4" height="4"/><rect x="44" y="84" width="4" height="4"/><rect x="48" y="84" width="4" height="4"/><rect x="68" y="84" width="4" height="4"/><rect x="80" y="84" width="4" height="4"/><rect x="88" y="84" width="4" height="4"/><rect x="92" y="84" width="4" height="4"/><rect x="100" y="84" width="4" height="4"/><rect x="108" y="84" width="4" height="4"/><rect x="120" y="84" width="4" height="4"/><rect x="124" y="84" width="4" height="4"/><rect x="128" y="84" width="4" height="4"/><rect x="136" y="84" width="4" height="4"/><rect x="144" y="84" width="4" height="4"/><rect x="16" y="88" width="4" height="4"/><rect x="20" y="88" width="4" height="4"/><rect x="24" y="88" width="4" height="4"/><rect x="32" y="88" width="4" height="4"/><rect x="40" y="88" width="4" height="4"/><rect x="44" y="88" width="4" height="4"/><rect x="48" y="88" width="4" height="4"/><rect x="56" y="88" width="4" height="4"/><rect x="64" y="88" width="4" height="4"/><rect x="76" y="88" width="4" height="4"/><rect x="84" y="88" width="4" height="4"/><rect x="104" y="88" width="4" height="4"/><rect x="108" y="88" width="4" height="4"/><rect x="116" y="88" width="4" height="4"/><rect x="124" y="88" width="4" height="4"/><rect x="128" y="88" width="4" height="4"/><rect x="132" y="88" width="4" height="4"/><rect x="136" y="88" width="4" height="4"/><rect x="144" y="88" width="4" height="4"/><rect x="28" y="92" width="4" height="4"/><rect x="32" y="92" width="4" height="4"/><rect x="36" y="92" width="4" height="4"/><rect x="44" y="92" width="4" height="4"/><rect x="52" y="92" width="4" height="4"/><rect x="60" y="92" width="4" height="4"/><rect x="64" y="92" width="4" height="4"/><rect x="68" y="92" width="4" height="4"/><rect x="72" y="92" width="4" height="4"/><rect x="88" y="92" width="4" height="4"/><rect x="92" y="92" width="4" height="4"/><rect x="104" y="92" width="4" height="4"/><rect x="120" y="92" width="4" height="4"/><rect x="132" y="92" width="4" height="4"/><rect x="136" y="92" width="4" height="4"/><rect x="140" y="92" width="4" height="4"/><rect x="16" y="96" width="4" height="4"/><rect x="40" y="96" width="4" height="4"/><rect x="60" y="96" width="4" height="4"/><rect x="76" y="96" width="4" height="4"/><rect x="108" y="96" width="4" height="4"/><rect x="112" y="96" width="4" height="4"/><rect x="136" y="96" width="4" height="4"/><rect x="144" y="96" width="4" height="4"/><rect x="16" y="100" width="4" height="4"/><rect x="20" y="100" width="4" height="4"/><rect x="28" y="100" width="4" height="4"/><rect x="32" y="100" width="4" height="4"/><rect x="36" y="100" width="4" height="4"/><rect x="44" y="100" width="4" height="4"/><rect x="48" y="100" width="4" height="4"/><rect x="56" y="100" width="4" height="4"/><rect x="64" y="100" width="4" height="4"/><rect x="68" y="100" width="4" height="4"/><rect x="72" y="100" width="4" height="4"/><rect x="76" y="100" width="4" height="4"/><rect x="92" y="100" width="4" height="4"/><rect x="100" y="100" width="4" height="4"/><rect x="104" y="100" width="4" height="4"/><rect x="108" y="100" width="4" height="4"/><rect x="116" y="100" width="4" height="4"/><rect x="120" y="100" width="4" height="4"/><rect x="128" y="100" width="4" height="4"/><rect x="132" y="100" width="4" height="4"/><rect x="136" y="100" width="4" height="4"/><rect x="140" y="100" width="4" height="4"/><rect x="16" y="104" width="4" height="4"/><rect x="24" y="104" width="4" height="4"/><rect x="28" y="104" width="4" height="4"/><rect x="36" y="104" width="4" height="4"/><rect x="40" y="104" width="4" height="4"/><rect x="48" y="104" width="4" height="4"/><rect x="52" y="104" width="4" height="4"/><rect x="96" y="104" width="4" height="4"/><rect x="108" y="104" width="4" height="4"/><rect x="112" y="104" width="4" height="4"/><rect x="120" y="104" width="4" height="4"/><rect x="132" y="104" width="4" height="4"/><rect x="136" y="104" width="4" height="4"/><rect x="140" y="104" width="4" height="4"/><rect x="144" y="104" width="4" height="4"/><rect x="16" y="108" width="4" height="4"/><rect x="24" y="108" width="4" height="4"/><rect x="28" y="108" width="4" height="4"/><rect x="36" y="108" width="4" height="4"/><rect x="44" y="108" width="4" height="4"/><rect x="48" y="108" width="4" height="4"/><rect x="60" y="108" width="4" height="4"/><rect x="76" y="108" width="4" height="4"/><rect x="88" y="108" width="4" height="4"/><rect x="92" y="108" width="4" height="4"/><rect x="96" y="108" width="4" height="4"/><rect x="108" y="108" width="4" height="4"/><rect x="116" y="108" width="4" height="4"/><rect x="120" y="108" width="4" height="4"/><rect x="136" y="108" width="4" height="4"/><rect x="16" y="112" width="4" height="4"/><rect x="20" y="112" width="4" height="4"/><rect x="28" y="112" width="4" height="4"/><rect x="36" y="112" width="4" height="4"/><rect x="40" y="112" width="4" height="4"/><rect x="44" y="112" width="4" height="4"/><rect x="56" y="112" width="4" height="4"/><rect x="60" y="112" width="4" height="4"/><rect x="68" y="112" width="4" height="4"/><rect x="72" y="112" width="4" height="4"/><rect x="80" y="112" width="4" height="4"/><rect x="92" y="112" width="4" height="4"/><rect x="100" y="112" width="4" height="4"/><rect x="108" y="112" width="4" height="4"/><rect x="112" y="112" width="4" height="4"/><rect x="116" y="112" width="4" height="4"/><rect x="120" y="112" width="4" height="4"/><rect x="124" y="112" width="4" height="4"/><rect x="128" y="112" width="4" height="4"/><rect x="136" y="112" width="4" height="4"/><rect x="144" y="112" width="4" height="4"/><rect x="48" y="116" width="4" height="4"/><rect x="52" y="116" width="4" height="4"/><rect x="60" y="116" width="4" height="4"/><rect x="88" y="116" width="4" height="4"/><rect x="96" y="116" width="4" height="4"/><rect x="112" y="116" width="4" height="4"/><rect x="128" y="116" width="4" height="4"/><rect x="132" y="116" width="4" height="4"/><rect x="16" y="120" width="4" height="4"/><rect x="20" y="120" width="4" height="4"/><rect x="24" y="120" width="4" height="4"/><rect x="28" y="120" width="4" height="4"/><rect x="32" y="120" width="4" height="4"/><rect x="36" y="120" width="4" height="4"/><rect x="40" y="120" width="4" height="4"/><rect x="48" y="120" width="4" height="4"/><rect x="68" y="120" width="4" height="4"/><rect x="80" y="120" width="4" height="4"/><rect x="84" y="120" width="4" height="4"/><rect x="88" y="120" width="4" height="4"/><rect x="92" y="120" width="4" height="4"/><rect x="108" y="120" width="4" height="4"/><rect x="112" y="120" width="4" height="4"/><rect x="120" y="120" width="4" height="4"/><rect x="128" y="120" width="4" height="4"/><rect x="132" y="120" width="4" height="4"/><rect x="136" y="120" width="4" height="4"/><rect x="16" y="124" width="4" height="4"/><rect x="40" y="124" width="4" height="4"/><rect x="52" y="124" width="4" height="4"/><rect x="60" y="124" width="4" height="4"/><rect x="68" y="124" width="4" height="4"/><rect x="72" y="124" width="4" height="4"/><rect x="76" y="124" width="4" height="4"/><rect x="88" y="124" width="4" height="4"/><rect x="92" y="124" width="4" height="4"/><rect x="96" y="124" width="4" height="4"/><rect x="104" y="124" width="4" height="4"/><rect x="108" y="124" width="4" height="4"/><rect x="112" y="124" width="4" height="4"/><rect x="128" y="124" width="4" height="4"/><rect x="132" y="124" width="4" height="4"/><rect x="136" y="124" width="4" height="4"/><rect x="140" y="124" width="4" height="4"/><rect x="144" y="124" width="4" height="4"/><rect x="16" y="128" width="4" height="4"/><rect x="24" y="128" width="4" height="4"/><rect x="28" y="128" width="4" height="4"/><rect x="32" y="128" width="4" height="4"/><rect x="40" y="128" width="4" height="4"/><rect x="48" y="128" width="4" height="4"/><rect x="56" y="128" width="4" height="4"/><rect x="80" y="128" width="4" height="4"/><rect x="96" y="128" width="4" height="4"/><rect x="100" y="128" width="4" height="4"/><rect x="108" y="128" width="4" height="4"/><rect x="112" y="128" width="4" height="4"/><rect x="116" y="128" width="4" height="4"/><rect x="120" y="128" width="4" height="4"/><rect x="124" y="128" width="4" height="4"/><rect x="128" y="128" width="4" height="4"/><rect x="144" y="128" width="4" height="4"/><rect x="16" y="132" width="4" height="4"/><rect x="24" y="132" width="4" height="4"/><rect x="28" y="132" width="4" height="4"/><rect x="32" y="132" width="4" height="4"/><rect x="40" y="132" width="4" height="4"/><rect x="48" y="132" width="4" height="4"/><rect x="60" y="132" width="4" height="4"/><rect x="68" y="132" width="4" height="4"/><rect x="72" y="132" width="4" height="4"/><rect x="84" y="132" width="4" height="4"/><rect x="88" y="132" width="4" height="4"/><rect x="96" y="132" width="4" height="4"/><rect x="104" y="132" width="4" height="4"/><rect x="108" y="132" width="4" height="4"/><rect x="112" y="132" width="4" height="4"/><rect x="116" y="132" width="4" height="4"/><rect x="144" y="132" width="4" height="4"/><rect x="16" y="136" width="4" height="4"/><rect x="24" y="136" width="4" height="4"/><rect x="28" y="136" width="4" height="4"/><rect x="32" y="136" width="4" height="4"/><rect x="40" y="136" width="4" height="4"/><rect x="52" y="136" width="4" height="4"/><rect x="56" y="136" width="4" height="4"/><rect x="60" y="136" width="4" height="4"/><rect x="64" y="136" width="4" height="4"/><rect x="80" y="136" width="4" height="4"/><rect x="84" y="136" width="4" height="4"/><rect x="88" y="136" width="4" height="4"/><rect x="96" y="136" width="4" height="4"/><rect x="100" y="136" width="4" height="4"/><rect x="112" y="136" width="4" height="4"/><rect x="116" y="136" width="4" height="4"/><rect x="128" y="136" width="4" height="4"/><rect x="136" y="136" width="4" height="4"/><rect x="140" y="136" width="4" height="4"/><rect x="144" y="136" width="4" height="4"/><rect x="16" y="140" width="4" height="4"/><rect x="40" y="140" width="4" height="4"/><rect x="52" y="140" width="4" height="4"/><rect x="60" y="140" width="4" height="4"/><rect x="68" y="140" width="4" height="4"/><rect x="72" y="140" width="4" height="4"/><rect x="76" y="140" width="4" height="4"/><rect x="80" y="140" width="4" height="4"/><rect x="84" y="140" width="4" height="4"/><rect x="96" y="140" width="4" height="4"/><rect x="108" y="140" width="4" height="4"/><rect x="112" y="140" width="4" height="4"/><rect x="120" y="140" width="4" height="4"/><rect x="132" y="140" width="4" height="4"/><rect x="136" y="140" width="4" height="4"/><rect x="140" y="140" width="4" height="4"/><rect x="144" y="140" width="4" height="4"/><rect x="16" y="144" width="4" height="4"/><rect x="20" y="144" width="4" height="4"/><rect x="24" y="144" width="4" height="4"/><rect x="28" y="144" width="4" height="4"/><rect x="32" y="144" width="4" height="4"/><rect x="36" y="144" width="4" height="4"/><rect x="40" y="144" width="4" height="4"/><rect x="72" y="144" width="4" height="4"/><rect x="76" y="144" width="4" height="4"/><rect x="80" y="144" width="4" height="4"/><rect x="88" y="144" width="4" height="4"/><rect x="92" y="144" width="4" height="4"/><rect x="100" y="144" width="4" height="4"/><rect x="104" y="144" width="4" height="4"/><rect x="108" y="144" width="4" height="4"/><rect x="112" y="144" width="4" height="4"/><rect x="120" y="144" width="4" height="4"/><rect x="124" y="144" width="4" height="4"/><rect x="132" y="144" width="4" height="4"/></svg>