<svg width="213" height="29" viewBox="0 0 213 29" fill="none" xmlns="http://www.w3.org/2000/svg">
    <path d="M0 28.4156V1.53561H6.1824L18.2784 18.0476C18.1504 16.9212 18.0352 15.8716 17.9328 14.8988C17.856 13.9004 17.8048 12.838 17.7792 11.7116C17.7536 10.5852 17.7408 9.27961 17.7408 7.79481V1.53561H24.4608V28.4156H18.2016L6.2592 12.2492C6.3872 13.3756 6.4768 14.3228 6.528 15.0908C6.6048 15.8588 6.656 16.6012 6.6816 17.318C6.7072 18.0348 6.72 18.8668 6.72 19.814V28.4156H0Z" fill="#973EDF"/>
    <path d="M43.4148 28.7996C41.3924 28.7996 39.5236 28.454 37.8084 27.7628C36.0932 27.0716 34.6084 26.0988 33.354 24.8444C32.0996 23.59 31.1268 22.118 30.4356 20.4284C29.7444 18.7388 29.3988 16.8828 29.3988 14.8604C29.3988 12.838 29.7444 10.982 30.4356 9.29241C31.1268 7.57721 32.0996 6.09241 33.354 4.83801C34.6084 3.58361 36.0932 2.61081 37.8084 1.91961C39.5236 1.22841 41.3924 0.882812 43.4148 0.882812C45.4628 0.882812 47.3444 1.22841 49.0596 1.91961C50.7748 2.61081 52.2596 3.58361 53.514 4.83801C54.7684 6.09241 55.7412 7.57721 56.4324 9.29241C57.1236 10.982 57.4692 12.838 57.4692 14.8604C57.4692 16.8572 57.1236 18.7132 56.4324 20.4284C55.7412 22.118 54.7684 23.59 53.514 24.8444C52.2596 26.0988 50.7748 27.0716 49.0596 27.7628C47.3444 28.454 45.4628 28.7996 43.4148 28.7996ZM43.4148 22.3484C44.7716 22.3484 45.9748 22.0284 47.0244 21.3884C48.074 20.7228 48.906 19.8268 49.5204 18.7004C50.1348 17.574 50.442 16.294 50.442 14.8604C50.442 13.4012 50.1348 12.1084 49.5204 10.982C48.906 9.85561 48.074 8.97241 47.0244 8.33241C45.9748 7.69241 44.7716 7.37241 43.4148 7.37241C42.058 7.37241 40.8548 7.69241 39.8052 8.33241C38.7556 8.97241 37.9236 9.85561 37.3092 10.982C36.7204 12.1084 36.426 13.4012 36.426 14.8604C36.426 16.294 36.7204 17.574 37.3092 18.7004C37.9236 19.8268 38.7556 20.7228 39.8052 21.3884C40.8548 22.0284 42.058 22.3484 43.4148 22.3484Z" fill="#973EDF"/>
    <path d="M66.9348 28.4156L58.986 1.53561H66.0132L69.8148 15.2444C69.994 15.8844 70.1476 16.5244 70.2756 17.1644C70.4036 17.8044 70.5188 18.406 70.6212 18.9692C70.7236 18.3548 70.8388 17.7532 70.9668 17.1644C71.1204 16.55 71.3124 15.8972 71.5428 15.206L75.3828 4.83801H80.8356L84.6372 15.206C84.8676 15.8716 85.0596 16.4988 85.2132 17.0876C85.3924 17.6508 85.546 18.2012 85.674 18.7388C85.7252 18.2524 85.802 17.7276 85.9044 17.1644C86.0068 16.6012 86.1604 15.9484 86.3652 15.206L90.1668 1.53561H97.002L88.9764 28.4156H83.6772L77.8404 14.2076L72.5028 28.4156H66.9348Z" fill="#973EDF"/>
    <path d="M100.605 28.416V1.536H103.37L120.228 23.8464C120.177 23.0784 120.125 22.1696 120.074 21.12C120.023 20.0448 119.985 18.9312 119.959 17.7792C119.933 16.6272 119.908 15.5008 119.882 14.4C119.882 13.2736 119.882 12.2624 119.882 11.3664V1.536H122.916V28.416H120.113L103.217 6.2976C103.319 7.8336 103.396 9.2928 103.447 10.6752C103.524 12.0576 103.575 13.248 103.601 14.2464C103.626 15.2192 103.639 15.872 103.639 16.2048V28.416H100.605Z" fill="#202020"/>
    <path d="M138.549 28.8C136.578 28.8 134.811 28.352 133.25 27.456C131.714 26.5344 130.498 25.2928 129.602 23.7312C128.706 22.144 128.258 20.3392 128.258 18.3168C128.258 16.32 128.706 14.5408 129.602 12.9792C130.498 11.392 131.714 10.1504 133.25 9.2544C134.811 8.3584 136.578 7.9104 138.549 7.9104C140.52 7.9104 142.274 8.3584 143.81 9.2544C145.371 10.1504 146.587 11.392 147.458 12.9792C148.354 14.5408 148.802 16.32 148.802 18.3168C148.802 20.3392 148.354 22.144 147.458 23.7312C146.587 25.2928 145.371 26.5344 143.81 27.456C142.274 28.352 140.52 28.8 138.549 28.8ZM138.549 26.0352C139.957 26.0352 141.198 25.7024 142.274 25.0368C143.374 24.3712 144.232 23.4624 144.846 22.3104C145.461 21.1328 145.768 19.8016 145.768 18.3168C145.768 16.832 145.461 15.5264 144.846 14.4C144.232 13.248 143.374 12.3392 142.274 11.6736C141.198 11.008 139.957 10.6752 138.549 10.6752C137.141 10.6752 135.886 11.008 134.786 11.6736C133.685 12.3392 132.827 13.248 132.213 14.4C131.598 15.552 131.291 16.8576 131.291 18.3168C131.291 19.8016 131.598 21.1328 132.213 22.3104C132.827 23.4624 133.685 24.3712 134.786 25.0368C135.886 25.7024 137.141 26.0352 138.549 26.0352Z" fill="#202020"/>
    <path d="M161.183 28.8C159.339 28.8 157.688 28.352 156.229 27.456C154.795 26.56 153.656 25.3312 152.811 23.7696C151.992 22.1824 151.583 20.3776 151.583 18.3552C151.583 16.3584 152.005 14.5792 152.85 13.0176C153.695 11.4304 154.834 10.1888 156.267 9.2928C157.701 8.3712 159.314 7.9104 161.106 7.9104C162.642 7.9104 164.05 8.2688 165.33 8.9856C166.635 9.6768 167.647 10.5344 168.363 11.5584V0H171.282V28.416H168.402L168.325 25.0368C167.685 26.0864 166.712 26.9824 165.407 27.7248C164.101 28.4416 162.693 28.8 161.183 28.8ZM161.567 26.112C162.898 26.112 164.088 25.7792 165.138 25.1136C166.187 24.448 167.007 23.5392 167.595 22.3872C168.21 21.2096 168.517 19.8656 168.517 18.3552C168.517 16.8448 168.21 15.5136 167.595 14.3616C167.007 13.184 166.187 12.2624 165.138 11.5968C164.088 10.9312 162.898 10.5984 161.567 10.5984C160.21 10.5984 159.007 10.9312 157.957 11.5968C156.907 12.2624 156.088 13.184 155.499 14.3616C154.911 15.5136 154.616 16.8448 154.616 18.3552C154.616 19.84 154.911 21.1712 155.499 22.3488C156.088 23.5264 156.907 24.448 157.957 25.1136C159.007 25.7792 160.21 26.112 161.567 26.112Z" fill="#202020"/>
    <path d="M185.761 28.8C183.739 28.8 181.947 28.3648 180.385 27.4944C178.849 26.624 177.646 25.408 176.776 23.8464C175.905 22.2848 175.47 20.4928 175.47 18.4704C175.47 16.4224 175.893 14.6048 176.737 13.0176C177.582 11.4304 178.76 10.1888 180.27 9.2928C181.781 8.3712 183.509 7.9104 185.454 7.9104C187.246 7.9104 188.821 8.3328 190.177 9.1776C191.56 9.9968 192.622 11.136 193.365 12.5952C194.107 14.0288 194.453 15.6928 194.401 17.5872L194.363 18.9312H178.465C178.593 21.1072 179.336 22.8352 180.693 24.1152C182.049 25.3952 183.854 26.0352 186.107 26.0352C187.08 26.0352 188.027 25.8816 188.949 25.5744C189.896 25.2416 190.933 24.6016 192.059 23.6544L193.557 25.7664C192.661 26.6368 191.521 27.3664 190.139 27.9552C188.757 28.5184 187.297 28.8 185.761 28.8ZM185.416 10.6752C183.573 10.6752 182.049 11.1744 180.846 12.1728C179.643 13.1456 178.888 14.5792 178.581 16.4736H191.445V16.2432C191.393 15.3216 191.125 14.4384 190.638 13.5936C190.152 12.7232 189.461 12.0192 188.565 11.4816C187.694 10.944 186.645 10.6752 185.416 10.6752Z" fill="#202020"/>
    <path d="M205.133 28.8C203.392 28.8 201.844 28.4928 200.487 27.8784C199.156 27.2384 198.08 26.3808 197.261 25.3056L199.335 23.5008C200.794 25.3184 202.804 26.2272 205.364 26.2272C206.592 26.2272 207.591 25.9584 208.359 25.4208C209.152 24.8576 209.549 24.0896 209.549 23.1168C209.549 22.2976 209.191 21.6192 208.474 21.0816C208.141 20.8256 207.668 20.5824 207.053 20.352C206.439 20.1216 205.696 19.8784 204.826 19.6224C203.392 19.2384 202.202 18.8288 201.255 18.3936C200.308 17.9584 199.565 17.4592 199.028 16.896C198.26 16.0256 197.876 14.9376 197.876 13.632C197.876 12.5312 198.17 11.5584 198.759 10.7136C199.373 9.8432 200.205 9.1648 201.255 8.6784C202.33 8.1664 203.533 7.9104 204.864 7.9104C206.298 7.9104 207.68 8.2176 209.012 8.832C210.368 9.4208 211.469 10.1888 212.314 11.136L210.509 13.0944C209.741 12.3008 208.884 11.6608 207.936 11.1744C207.015 10.688 206.042 10.4448 205.018 10.4448C203.764 10.4448 202.752 10.7264 201.984 11.2896C201.242 11.8528 200.871 12.5952 200.871 13.5168C200.871 14.2592 201.165 14.8736 201.754 15.36C202.112 15.6416 202.612 15.9104 203.252 16.1664C203.917 16.3968 204.736 16.64 205.709 16.896C206.81 17.2032 207.757 17.5232 208.551 17.856C209.344 18.1632 209.997 18.5344 210.509 18.9696C211.789 19.9424 212.429 21.2736 212.429 22.9632C212.429 24.0896 212.109 25.1008 211.469 25.9968C210.829 26.8672 209.959 27.5584 208.858 28.0704C207.757 28.5568 206.516 28.8 205.133 28.8Z" fill="#202020"/>
</svg>
