<?xml version="1.0" encoding="utf-8"?>
<!-- Generator: Adobe Illustrator 20.1.0, SVG Export Plug-In . SVG Version: 6.00 Build 0)  -->
<svg version="1.1" id="Lag_1" xmlns="http://www.w3.org/2000/svg" xmlns:xlink="http://www.w3.org/1999/xlink" x="0px" y="0px"
	 viewBox="0 0 841.9 595.3" style="enable-background:new 0 0 841.9 595.3;" xml:space="preserve">
<style type="text/css">
	.st0{fill:#23A8D8;}
</style>
<g id="surface1">
	<path class="st0" d="M429.3,120.7c-2.2,0.1-4.6,0.3-6.9,0.9l-239.6,63.1c-19.4,5.1-33.2,22.8-33.2,42.9v202.8
		c0,24.2,20,44.2,44.2,44.2h265.4c24.2,0,44.2-20,44.2-44.2V297.6v-59c0-24.2-20-44.2-44.2-44.2h-74.1H262.1l167.7-44.2v29.5h29.5
		v-29.5C459.3,133.6,445.2,120.5,429.3,120.7z M193.9,223.9h265.4c8.4,0,14.7,6.4,14.7,14.7v59v132.7c0,8.4-6.4,14.7-14.7,14.7
		H193.9c-8.4,0-14.7-6.4-14.7-14.7V238.7C179.1,230.3,185.5,223.9,193.9,223.9z M422.4,367.5c-12.2,0-22.1,9.9-22.1,22.1
		s9.9,22.1,22.1,22.1c12.2,0,22.1-9.9,22.1-22.1S434.6,367.5,422.4,367.5z"/>
</g>
<g>
	<path class="st0" d="M555.4,43.4H278.9c-6.2,0-11.2,5-11.2,11.2v60.8c0,6.2,5,11.2,11.2,11.2h6.2c6.2,0,11.2-5,11.2-11.2V83.3
		c0-6.2,5-11.2,11.2-11.2h236.8c2.8,0,5.5,1,7.6,2.9l96.2,87.4c2.3,2.1,3.7,5.1,3.7,8.3V512c0,6.2-5,11.2-11.2,11.2H307.6
		c-6.2,0-11.2-5-11.2-11.2l0,0c0-6.2-5-11.2-11.2-11.2h-6.2c-6.2,0-11.2,5-11.2,11.2v28.7c0,6.2,5,11.2,11.2,11.2h390.3
		c6.2,0,11.2-5,11.2-11.2V158c0-3.2-1.3-6.2-3.7-8.3L563,46.3C560.9,44.4,558.2,43.4,555.4,43.4z"/>
</g>
<g>
	<polygon class="st0" points="656.7,173.7 539.9,173.7 539.9,57.7 568.6,57.7 568.6,145 656.7,145 	"/>
</g>
</svg>
