<svg id="svg" version="1.1" xmlns="http://www.w3.org/2000/svg" xmlns:xlink="http://www.w3.org/1999/xlink" width="400" height="400" viewBox="0, 0, 400,400"><g id="svgg"><path id="path0" d="M124.801 0.352 C 123.559 0.800,122.731 1.231,121.695 1.967 L 120.839 2.574 119.257 2.059 C 113.126 0.062,108.377 0.504,104.455 3.436 L 103.425 4.207 100.517 4.152 C 95.871 4.064,93.788 4.685,91.552 6.823 L 90.371 7.953 86.489 7.985 C 79.695 8.041,75.666 9.453,72.637 12.841 L 71.581 14.021 69.686 13.928 C 59.497 13.425,53.896 21.106,58.051 29.883 L 58.541 30.916 57.801 32.008 C 54.466 36.925,54.705 41.106,58.611 46.224 L 59.277 47.096 58.861 48.161 C 57.477 51.710,58.807 56.262,62.605 60.976 L 63.761 62.411 63.554 63.882 C 62.900 68.526,64.698 72.485,69.000 75.877 C 70.010 76.674,70.021 76.692,69.972 77.604 C 69.736 82.058,72.861 86.882,78.422 90.649 C 80.400 91.988,80.617 92.191,80.724 92.805 C 81.687 98.295,85.542 102.023,92.245 103.949 L 93.820 104.401 94.134 105.417 C 95.560 110.027,98.985 112.597,105.990 114.313 L 107.245 114.621 104.584 116.219 C 81.771 129.922,72.044 146.437,71.144 172.996 L 71.017 176.746 69.613 179.184 C 68.210 181.621,68.209 181.623,66.594 182.687 C 58.316 188.145,50.550 197.921,45.971 208.647 C 36.648 230.484,40.141 253.528,55.548 271.824 C 57.124 273.696,57.128 273.702,57.459 275.387 C 58.437 280.353,60.989 288.708,63.846 296.296 C 65.394 300.406,65.651 301.230,65.929 302.954 C 68.654 319.845,77.411 334.460,91.514 345.652 C 96.397 349.527,102.920 353.314,107.078 354.689 C 108.333 355.103,109.020 355.501,110.802 356.841 C 122.746 365.831,134.016 372.171,145.992 376.639 L 149.367 377.899 150.961 379.451 C 162.616 390.802,175.384 397.276,190.624 399.563 C 193.946 400.061,206.444 400.061,209.845 399.563 C 224.763 397.378,237.575 390.892,249.227 379.628 L 251.008 377.906 254.102 376.752 C 266.082 372.287,277.687 365.714,290.076 356.378 C 291.230 355.508,292.037 355.069,293.170 354.691 C 296.215 353.677,302.010 350.510,305.885 347.742 C 321.497 336.588,331.600 320.639,334.257 302.954 C 334.478 301.488,334.932 300.014,336.339 296.203 C 340.162 285.848,341.706 280.825,342.695 275.525 C 342.981 273.994,343.002 273.955,344.601 272.056 C 360.865 252.742,363.744 228.055,352.379 205.367 C 347.558 195.744,340.572 187.579,332.905 182.607 C 331.822 181.905,331.604 181.640,330.232 179.360 L 328.739 176.879 328.739 174.999 C 328.739 147.862,317.435 128.849,293.207 115.232 L 292.532 114.853 294.765 114.259 C 301.339 112.512,304.371 110.196,305.691 105.916 L 306.079 104.659 307.142 104.355 C 313.944 102.411,317.676 99.069,318.939 93.792 L 319.269 92.412 321.144 91.132 C 326.915 87.193,329.573 83.419,329.821 78.815 L 329.915 77.087 331.289 75.959 C 335.478 72.520,337.019 68.631,336.133 63.732 C 336.022 63.118,336.085 62.964,336.750 62.232 C 341.023 57.520,342.613 52.619,341.030 49.039 L 340.563 47.982 341.585 46.523 C 345.200 41.365,345.286 37.432,341.893 32.459 L 341.328 31.631 341.759 30.771 C 346.095 22.107,341.160 14.916,330.873 14.910 L 328.225 14.909 327.685 14.187 C 325.020 10.623,318.770 8.527,311.891 8.888 L 309.576 9.009 308.472 7.988 C 306.014 5.711,302.091 4.789,297.515 5.411 C 296.633 5.531,296.525 5.498,295.689 4.847 C 291.741 1.775,287.152 1.290,281.089 3.304 L 279.085 3.970 278.080 3.303 C 274.262 0.771,271.169 0.816,264.810 3.498 C 261.488 4.899,261.826 4.844,259.634 4.337 C 255.955 3.485,252.994 3.858,250.070 5.542 C 246.675 7.497,246.531 7.548,245.094 7.325 C 239.277 6.423,236.131 7.531,231.373 12.160 L 228.990 14.477 226.304 14.450 L 223.618 14.423 222.416 15.200 C 212.879 21.365,204.937 32.405,200.336 45.895 L 199.484 48.395 198.599 45.810 C 194.063 32.547,186.149 21.478,176.868 15.415 L 175.302 14.391 172.648 14.487 L 169.995 14.582 167.651 12.301 C 162.856 7.636,159.487 6.418,154.031 7.376 C 152.481 7.648,152.289 7.590,149.648 6.064 C 145.764 3.819,143.221 3.437,139.161 4.490 C 137.288 4.976,137.472 5.013,133.511 3.366 C 131.442 2.506,129.830 1.965,128.694 1.750 L 126.987 1.428 127.351 0.714 L 127.715 -0.000 126.727 0.007 C 126.183 0.010,125.316 0.166,124.801 0.352 M131.760 14.122 C 134.548 15.526,138.348 18.334,141.158 21.066 C 141.799 21.691,142.353 22.164,142.388 22.118 C 144.780 18.973,145.046 17.929,144.037 15.647 L 143.658 14.791 144.356 15.213 C 148.288 17.590,155.087 23.759,155.087 24.949 C 155.087 25.353,155.580 25.078,156.424 24.203 C 157.592 22.991,157.793 22.238,157.625 19.705 L 157.495 17.751 158.776 18.890 C 160.664 20.569,164.055 24.070,167.092 27.473 C 170.891 31.731,170.404 31.328,170.939 30.666 C 171.355 30.150,172.341 27.376,172.630 25.905 L 172.754 25.274 173.782 26.280 C 178.673 31.062,184.135 38.989,187.084 45.588 C 194.162 61.425,191.077 73.905,178.513 80.268 L 177.467 80.798 175.700 79.386 C 155.778 63.460,131.778 50.741,101.453 40.038 C 99.339 39.292,97.461 38.619,97.281 38.542 C 97.100 38.466,96.953 38.484,96.953 38.583 C 96.953 38.682,98.240 39.418,99.812 40.219 C 131.368 56.285,154.039 71.159,167.489 84.620 L 170.249 87.383 169.824 88.745 C 166.348 99.881,157.487 107.083,142.991 110.551 C 136.635 112.072,126.905 113.013,121.626 112.617 L 119.811 112.481 120.524 112.104 C 122.235 111.201,124.519 108.949,124.519 108.165 C 124.519 107.585,122.025 106.981,118.519 106.711 C 111.070 106.138,107.866 105.551,104.816 104.198 L 103.797 103.747 104.641 103.531 C 106.436 103.072,107.184 102.685,108.156 101.714 C 109.590 100.279,109.744 100.399,104.313 98.733 C 97.137 96.533,93.726 95.151,91.456 93.523 L 90.553 92.876 92.623 92.791 C 94.723 92.704,98.047 91.515,97.849 90.921 C 97.814 90.816,95.678 89.658,93.103 88.347 C 86.633 85.052,83.488 83.105,80.769 80.711 L 79.894 79.940 82.469 79.838 C 85.792 79.706,88.750 78.922,87.657 78.463 C 86.075 77.798,79.810 73.087,76.471 70.051 C 73.156 67.037,73.161 67.211,76.385 67.215 C 79.000 67.219,81.013 66.773,81.013 66.191 C 81.013 66.109,79.473 64.612,77.590 62.863 C 72.436 58.074,69.868 55.284,68.910 53.432 L 68.661 52.950 69.691 53.298 C 72.486 54.241,75.288 54.093,77.057 52.908 C 77.495 52.614,76.178 51.048,74.026 49.303 C 70.315 46.293,67.965 43.764,66.395 41.090 L 65.802 40.079 66.609 40.198 C 70.611 40.787,73.981 40.514,73.777 39.619 C 72.886 35.717,70.519 31.056,66.991 26.261 C 66.767 25.956,67.244 25.930,75.149 25.817 C 83.738 25.694,85.138 25.614,85.138 25.242 C 85.138 25.125,84.126 24.020,82.889 22.785 L 80.639 20.541 81.623 20.293 C 85.531 19.306,92.592 19.992,98.731 21.955 C 101.516 22.845,101.552 22.846,102.018 22.082 C 102.811 20.781,102.277 19.552,99.980 17.393 C 99.239 16.697,98.740 16.128,98.871 16.128 C 100.668 16.133,108.114 17.889,112.049 19.237 C 115.809 20.525,115.532 20.505,116.030 19.519 C 116.769 18.054,116.247 17.095,113.132 14.196 C 112.019 13.159,111.868 12.956,112.288 13.052 C 118.744 14.526,123.451 16.313,127.796 18.938 C 129.676 20.073,129.471 20.068,130.149 18.998 C 131.194 17.351,130.888 16.098,128.823 13.564 L 127.728 12.220 129.077 12.835 C 129.819 13.173,131.027 13.752,131.760 14.122 M271.520 14.018 C 271.380 14.198,270.957 14.726,270.581 15.190 C 269.104 17.012,268.872 18.285,269.746 19.776 C 270.438 20.957,270.515 20.962,272.216 19.951 C 276.064 17.664,280.417 15.924,285.326 14.710 C 288.751 13.862,288.689 13.875,288.494 14.040 C 284.432 17.476,283.463 18.868,284.194 20.216 C 284.776 21.290,284.673 21.275,286.567 20.569 C 289.628 19.429,294.356 18.223,298.828 17.444 C 300.066 17.228,301.244 17.001,301.448 16.939 C 301.651 16.877,301.397 17.181,300.885 17.614 C 297.990 20.062,297.239 21.994,298.676 23.295 C 299.009 23.596,299.198 23.565,302.210 22.701 C 308.914 20.779,315.926 20.287,319.124 21.514 C 319.314 21.588,318.700 22.318,317.092 23.930 C 315.824 25.201,314.846 26.301,314.920 26.375 C 315.190 26.645,319.079 26.796,326.067 26.806 C 330.012 26.812,333.240 26.859,333.240 26.910 C 333.240 26.961,332.836 27.573,332.343 28.269 C 328.842 33.216,325.479 40.516,326.393 41.184 C 327.061 41.673,332.234 41.646,333.849 41.145 C 334.288 41.009,334.280 41.039,333.506 42.410 C 332.005 45.072,330.285 46.978,326.743 49.901 C 324.443 51.800,322.738 53.478,322.738 53.844 C 322.738 54.948,327.055 55.392,329.955 54.586 C 331.591 54.131,331.570 54.004,330.203 56.086 C 328.902 58.067,325.794 61.292,321.566 65.048 C 320.148 66.308,318.987 67.412,318.987 67.503 C 318.987 68.174,322.837 68.600,325.457 68.218 L 326.395 68.081 324.144 70.283 C 321.332 73.034,318.573 75.253,314.955 77.671 C 313.408 78.706,312.143 79.644,312.143 79.756 C 312.143 80.453,314.571 81.009,317.628 81.011 L 319.551 81.013 318.847 81.627 C 315.784 84.303,311.997 86.598,304.501 90.323 C 302.876 91.130,301.547 91.850,301.547 91.924 C 301.547 92.606,305.365 93.634,307.562 93.544 L 309.033 93.483 308.525 93.894 C 306.258 95.724,301.654 97.617,293.999 99.864 C 289.759 101.109,289.839 101.027,291.376 102.564 C 292.420 103.608,292.796 103.808,294.593 104.272 L 295.422 104.485 294.633 104.839 C 292.237 105.911,288.491 106.714,284.201 107.075 C 277.201 107.664,276.444 107.766,275.175 108.296 L 274.529 108.566 274.900 109.294 C 275.382 110.239,277.126 111.826,278.461 112.534 L 279.512 113.092 273.511 112.999 C 249.811 112.634,234.388 104.528,229.642 89.943 C 228.972 87.887,228.947 87.964,230.989 85.856 C 242.224 74.261,261.337 61.066,287.764 46.657 C 294.681 42.886,296.621 41.932,299.125 41.066 C 301.333 40.303,301.511 40.205,301.896 39.535 C 302.429 38.610,302.524 38.584,299.251 40.242 C 297.568 41.095,294.549 42.364,291.727 43.406 C 264.524 53.450,240.841 66.300,223.027 80.683 L 221.674 81.775 220.307 81.087 C 202.508 72.132,204.580 49.684,225.271 27.308 L 226.290 26.205 226.700 27.964 C 227.216 30.178,228.428 32.397,228.836 31.873 C 230.676 29.510,237.937 21.862,240.389 19.703 L 241.760 18.496 241.626 20.383 C 241.463 22.684,241.747 23.738,242.877 25.020 C 243.729 25.989,244.015 26.073,244.303 25.440 C 245.091 23.710,250.836 18.665,254.964 16.078 L 255.732 15.597 255.292 16.808 C 254.518 18.940,254.707 19.956,256.236 21.885 C 256.978 22.822,257.375 23.077,257.509 22.704 C 257.596 22.460,261.753 19.142,263.364 18.031 C 265.175 16.781,267.509 15.498,269.761 14.515 C 271.925 13.569,271.854 13.590,271.520 14.018 M206.751 114.396 C 225.772 116.516,244.201 130.080,243.551 141.482 C 242.293 163.534,186.448 169.826,165.587 150.265 C 157.974 143.127,158.004 136.258,165.682 128.539 C 175.786 118.379,192.094 112.763,206.751 114.396 M145.148 122.365 C 150.861 122.944,151.916 123.419,151.590 125.270 C 149.726 135.844,100.602 177.432,89.346 177.967 C 87.904 178.035,87.575 177.959,86.970 177.417 L 86.357 176.869 86.384 173.123 C 86.616 140.425,111.474 118.953,145.148 122.365 M268.101 123.780 C 295.213 127.195,312.571 147.012,312.607 174.590 C 312.613 178.688,312.048 179.394,309.147 178.917 C 294.232 176.467,240.080 128.106,248.103 124.401 C 250.361 123.358,261.906 123.000,268.101 123.780 M252.708 164.363 C 284.638 168.640,306.618 204.695,294.780 233.380 C 285.540 255.772,257.946 262.307,235.509 247.418 C 207.311 228.707,201.952 188.965,225.239 171.261 C 226.223 170.513,227.121 169.902,227.235 169.902 C 227.349 169.902,228.103 169.509,228.911 169.028 C 235.655 165.019,244.564 163.272,252.708 164.363 M159.590 166.424 C 165.656 167.068,173.878 169.948,175.885 172.133 C 176.049 172.312,176.823 172.935,177.604 173.518 C 199.765 190.062,196.578 227.992,171.395 247.419 C 142.017 270.081,105.312 254.211,105.312 218.847 C 105.312 191.975,126.314 168.833,153.024 166.274 C 154.658 166.117,157.262 166.177,159.590 166.424 M318.612 190.876 C 318.612 190.963,319.351 191.482,320.253 192.028 C 338.956 203.359,347.261 224.387,341.592 246.061 C 338.683 257.183,330.790 268.398,326.204 267.925 C 312.894 266.551,302.007 204.740,312.934 192.586 C 314.135 191.250,315.337 190.717,317.149 190.717 C 317.954 190.717,318.612 190.789,318.612 190.876 M84.374 192.492 C 97.723 199.256,87.017 268.888,72.623 268.915 C 69.165 268.922,64.219 263.473,60.482 255.538 C 56.069 246.171,54.518 233.531,56.634 224.194 C 56.728 223.780,56.939 222.850,57.104 222.128 C 59.769 210.473,67.299 200.235,78.293 193.323 C 80.872 191.702,82.402 191.493,84.374 192.492 M210.006 250.155 C 250.098 256.086,262.371 303.846,229.452 325.829 C 204.211 342.686,167.651 331.478,158.500 304.079 C 148.550 274.289,176.356 245.178,210.006 250.155 M307.389 265.559 C 313.239 266.466,316.364 269.433,319.053 276.631 C 324.330 290.759,322.644 310.034,315.122 321.575 C 303.014 340.155,283.608 351.024,266.667 348.716 C 256.755 347.366,252.777 342.952,252.122 332.580 C 251.322 319.912,259.177 299.267,268.632 289.184 C 285.254 271.460,297.462 264.018,307.389 265.559 M101.453 272.100 C 111.300 274.103,122.293 281.220,132.541 292.227 C 148.378 309.235,153.315 339.614,141.232 345.699 C 125.580 353.581,97.177 340.139,87.122 320.090 C 79.514 304.920,77.942 288.567,83.135 278.598 C 85.172 274.687,88.048 272.667,92.639 271.924 C 93.413 271.799,94.173 271.665,94.327 271.628 C 95.115 271.436,99.677 271.738,101.453 272.100 M207.314 346.795 C 226.997 347.229,245.001 353.801,245.975 360.907 C 246.571 365.255,240.147 372.987,230.782 379.195 C 211.964 391.668,190.852 391.882,171.574 379.794 C 163.708 374.863,157.324 368.304,156.595 364.407 C 155.209 356.999,170.866 349.487,193.061 346.913 C 195.242 346.660,202.394 346.406,202.532 346.576 C 202.583 346.640,204.735 346.739,207.314 346.795 " stroke="none" fill="#1cb4dc" fill-rule="evenodd"></path><path id="path1" d="" stroke="none" fill="#20b4dc" fill-rule="evenodd"></path><path id="path2" d="" stroke="none" fill="#20b4dc" fill-rule="evenodd"></path><path id="path3" d="" stroke="none" fill="#20b4dc" fill-rule="evenodd"></path><path id="path4" d="" stroke="none" fill="#20b4dc" fill-rule="evenodd"></path></g></svg>