<?xml version="1.0" encoding="utf-8"?>
<svg version="1.1" id="Capa_1" xmlns="http://www.w3.org/2000/svg" xmlns:xlink="http://www.w3.org/1999/xlink" x="0px" y="0px"
	 width="595.2792969px" height="594px" viewBox="0.0002446 121.9453125 595.2792969 594"
	 enable-background="new 0.0002446 121.9453125 595.2792969 594" xml:space="preserve">
<g>
	<g>
		<g>
			
				<linearGradient id="SVGID_1_" gradientUnits="userSpaceOnUse" x1="34.4772949" y1="682.109375" x2="561.1638184" y2="155.4228516">
				<stop  offset="0" style="stop-color:#FFE100"/>
				<stop  offset="0.4784947" style="stop-color:#EC0032"/>
				<stop  offset="1" style="stop-color:#AA07FF"/>
			</linearGradient>
			<path fill="url(#SVGID_1_)" d="M482.708252,122.9453125H112.9328613
				c-61.3051758,0-110.9326172,49.6279297-110.9326172,110.9326172v369.7753906
				c0,61.3056641,49.6274414,110.9326172,110.9326172,110.9326172H482.708252
				c61.3046875,0,110.9326172-49.6269531,110.9326172-110.9326172V233.8779297
				C593.6398926,172.5732422,544.0129395,122.9453125,482.708252,122.9453125z"/>
		</g>
	</g>
</g>
<g>
	<path fill="#FFFFFF" d="M297.932373,215.296875c66.8833008,0,74.8051758,0.2539063,101.2163086,1.4599609
		c24.421875,1.1137695,37.6845703,5.1953125,46.5107422,8.6240234c11.6923828,4.5439453,20.0380859,9.9726563,28.8037109,18.7382813
		c8.7636719,8.7636719,14.1914063,17.109375,18.7363281,28.800293c3.4257813,8.8261719,7.5087891,22.0898438,8.6240234,46.5102539
		c1.2041016,26.4130859,1.4599609,34.3344727,1.4599609,101.2167969c0,66.8808594-0.2558594,74.8037109-1.4599609,101.2148438
		c-1.1152344,24.4228516-5.1982422,37.6845703-8.6240234,46.5117188
		c-4.5449219,11.6904297-9.9726563,20.0371094-18.7363281,28.8007813
		c-8.765625,8.7646484-17.1113281,14.1933594-28.8037109,18.7373047
		c-8.8261719,3.4277344-22.0888672,7.5097656-46.5107422,8.6259766
		c-26.4072266,1.203125-34.3291016,1.4589844-101.2163086,1.4589844c-66.8837891,0-74.8061523-0.2558594-101.2148438-1.4589844
		c-24.4208984-1.1162109-37.6845703-5.1982422-46.5107422-8.6259766
		c-11.6914063-4.5439453-20.0371094-9.9726563-28.8012695-18.7373047
		c-8.7641602-8.7636719-14.1938477-17.1103516-18.7358398-28.8007813
		c-3.4311523-8.8271484-7.5117188-22.0888672-8.6254883-46.5097656
		c-1.2060547-26.4130859-1.4604492-34.3359375-1.4604492-101.2167969c0-66.8823242,0.2543945-74.8037109,1.4604492-101.2167969
		c1.1137695-24.4204102,5.1943359-37.684082,8.6254883-46.5102539c4.5419922-11.690918,9.9716797-20.0366211,18.7358398-28.800293
		c8.7641602-8.765625,17.1098633-14.1943359,28.8012695-18.7382813c8.8261719-3.4287109,22.0898438-7.5102539,46.5102539-8.6240234
		C223.1296387,215.5507813,231.052002,215.296875,297.932373,215.296875 M297.932373,170.1640625
		c-68.0258789,0-76.5546875,0.2890625-103.2724609,1.5078125c-26.6611328,1.2163086-44.8686523,5.4501953-60.8017578,11.6430664
		c-16.472168,6.4013672-30.4404297,14.9663086-44.3652344,28.8911133
		c-13.9243164,13.9243164-22.4897461,27.8930664-28.8911133,44.3652344
		c-6.1928711,15.9331055-10.4262695,34.1396484-11.6435547,60.8017578
		c-1.2182617,26.7163086-1.5063477,35.2460938-1.5063477,103.2734375s0.2880859,76.5556641,1.5063477,103.2734375
		c1.2172852,26.6591797,5.4506836,44.8681641,11.6435547,60.8017578
		c6.4013672,16.4697266,14.9667969,30.4384766,28.8911133,44.3642578
		c13.9248047,13.9257813,27.8930664,22.4912109,44.3652344,28.8916016
		c15.9331055,6.1933594,34.140625,10.4267578,60.8017578,11.6435547
		c26.7177734,1.2207031,35.246582,1.5058594,103.2724609,1.5058594c68.027832,0,76.5571289-0.2851563,103.2739258-1.5058594
		c26.6611328-1.2167969,44.8701172-5.4501953,60.8017578-11.6435547
		c16.4707031-6.4003906,30.4404297-14.9658203,44.3642578-28.8916016
		c13.9267578-13.9257813,22.4921875-27.8925781,28.8916016-44.3642578
		c6.1933594-15.9335938,10.4267578-34.1425781,11.6425781-60.8017578
		c1.2207031-26.7177734,1.5078125-35.2460938,1.5078125-103.2734375s-0.2871094-76.5571289-1.5078125-103.2734375
		c-1.2158203-26.6621094-5.4492188-44.8686523-11.6425781-60.8017578
		c-6.3994141-16.472168-14.9648438-30.440918-28.8916016-44.3652344
		c-13.9238281-13.9248047-27.8935547-22.4897461-44.3642578-28.8911133
		c-15.9316406-6.1928711-34.140625-10.4267578-60.8017578-11.6430664
		C374.489502,170.453125,365.9602051,170.1640625,297.932373,170.1640625z M297.932373,292.0209961
		c-71.0375977,0-128.6245117,57.5869141-128.6245117,128.6254883c0,71.0371094,57.5869141,128.6259766,128.6245117,128.6259766
		s128.6264648-57.5888672,128.6264648-128.6259766C426.5588379,349.6079102,368.9699707,292.0209961,297.932373,292.0209961z
		 M297.932373,504.140625c-46.1113281,0-83.4926758-37.3818359-83.4926758-83.4941406
		c0-46.1118164,37.3813477-83.4941406,83.4926758-83.4941406c46.1137695,0,83.4946289,37.3823242,83.4946289,83.4941406
		C381.427002,466.7587891,344.0461426,504.140625,297.932373,504.140625z M461.6984863,286.9379883
		c0,16.6020508-13.4570313,30.0585938-30.0566406,30.0585938s-30.0585938-13.456543-30.0585938-30.0585938
		c0-16.6000977,13.4589844-30.0576172,30.0585938-30.0576172S461.6984863,270.3378906,461.6984863,286.9379883z"/>
</g>
</svg>
