<svg xmlns="http://www.w3.org/2000/svg" width="256" height="256"><path fill-opacity=".016" d="M0 128.004v128.004l128.25-.254 128.25-.254.254-127.75L257.008 0H0v128.004m.485.496c0 70.4.119 99.053.265 63.672.146-35.38.146-92.98 0-128C.604 29.153.485 58.1.485 128.5" fill="#1976D2" fill-rule="evenodd"/><path fill-opacity=".123" d="M17.271 3.226c.297 1.801 1.969 6.424 3.716 10.274 5.209 11.484 5.501 12.154 15.026 34.5 5.041 11.825 10.475 24.344 12.076 27.82C49.69 79.296 51 82.362 51 82.634c0 .272 1.067 2.828 2.372 5.68S57.659 98 60 103.5c3.681 8.649 5.717 13.331 10 23s6.319 14.351 10 23 5.717 13.331 10 23 6.319 14.351 10 23 5.717 13.331 10 23c3.64 8.216 6.425 14.621 10.981 25.25 6.138 14.319 7.51 15.19 11.028 7A1873.962 1873.962 0 01140 232.5c4.283-9.669 6.319-14.351 10-23s5.717-13.331 10-23c4.811-10.861 6.338-14.362 8.5-19.5a756.17 756.17 0 015.077-11.726 808.696 808.696 0 004.065-9.274c1.724-4.042 2.358-5.493 5.673-13 1.336-3.025 4.344-10 6.685-15.5 3.681-8.649 5.717-13.331 10-23s6.319-14.351 10-23c4.599-10.806 8.545-19.814 10.074-23 5.05-10.518 19.563-46.281 19.184-47.27-.773-2.013-34.239-1.284-35.364.77-.978 1.788-4.102 8.89-9.894 22.5-3.681 8.649-5.717 13.331-10 23-4.811 10.861-6.338 14.362-8.5 19.5s-3.689 8.639-8.5 19.5c-4.283 9.669-6.319 14.351-10 23s-5.717 13.331-10 23c-4.811 10.861-6.338 14.362-8.5 19.5a674.397 674.397 0 01-4.863 11.226 677.638 677.638 0 00-3.741 8.524c-.761 1.787-1.612 3.244-1.89 3.237-.278-.007-2.05-3.72-3.937-8.25-1.886-4.53-4.655-10.937-6.153-14.237-1.497-3.3-3.92-8.925-5.383-12.5-1.463-3.575-3.476-8.3-4.473-10.5-.997-2.2-5.077-11.65-9.068-21-6.298-14.758-8.835-20.616-12.992-30-4.283-9.669-6.319-14.351-10-23-2.341-5.5-5.323-12.334-6.628-15.186C68.067 37.462 67 34.887 67 34.591c0-.295-1.095-2.911-2.432-5.814C63.23 25.875 59.913 18.325 57.197 12L52.259.5 34.495.226 16.731-.047l.54 3.273M88 1.555c0 .855.925 3.668 2.055 6.25 1.13 2.582 2.449 5.595 2.932 6.695 2.988 6.808 4.13 9.536 5.86 14 1.067 2.75 3.146 7.7 4.621 11 1.474 3.3 3.353 7.575 4.174 9.5.821 1.925 1.879 4.4 2.351 5.5C117.613 72.274 126 92.794 126 93.666c0 .616.689 1.385 1.532 1.708 1.024.393 1.853-.257 2.5-1.958.532-1.4.968-2.729.968-2.951 0-.347 1.392-3.587 6.002-13.965.489-1.1 1.838-4.25 2.998-7 1.16-2.75 2.505-5.9 2.988-7C150.235 46.001 168 2.709 168 1.547 168 .177 163.427 0 128 0 92.484 0 88 .174 88 1.555" fill="#1976D2" fill-rule="evenodd"/><path fill-opacity=".191" d="M17 2.376c0 .206 1.167 3.019 2.593 6.25A2901.63 2901.63 0 0124.148 19c1.079 2.475 2.362 5.4 2.852 6.5 3.193 7.168 8.943 20.442 40.936 94.5 10.574 24.475 19.83 45.85 20.57 47.5 4.218 9.409 6.817 15.367 11.994 27.5 3.168 7.425 6.86 15.975 8.205 19a832.475 832.475 0 013.937 9c.821 1.925 1.915 4.4 2.431 5.5.515 1.1 3.338 7.601 6.273 14.447 2.935 6.846 5.848 12.618 6.474 12.826.625.209 2.298-2.242 3.716-5.447L135 242.5c4.283-9.669 6.319-14.351 10-23s5.717-13.331 10-23c4.169-9.411 6.509-14.802 11.5-26.5 5.286-12.389 8.373-19.459 12.028-27.552.758-1.679 4.345-9.98 7.972-18.448 3.627-8.468 7.209-16.769 7.96-18.448 4.425-9.893 9.29-21.083 15.889-36.552a10228.71 10228.71 0 0118.058-41.955C234.233 13.595 239 2.458 239 2.295c0-.162-7.803-.295-17.34-.295h-17.341l-4.342 10.25c-3.835 9.05-6.743 15.697-11.511 26.302-.755 1.679-4.339 9.98-7.966 18.448s-7.214 16.769-7.972 18.448C168.924 83.427 165.905 90.325 162 99.5c-3.681 8.649-5.717 13.331-10 23s-6.319 14.351-10 23c-4.102 9.638-8.109 18.82-10.036 23-.508 1.1-1.371 3.238-1.919 4.75-.547 1.512-1.385 2.75-1.861 2.75-.475 0-2.819-4.613-5.207-10.25-2.389-5.637-5.639-13.175-7.223-16.75-1.585-3.575-3.277-7.4-3.76-8.5l-3.304-7.5c-1.334-3.025-6.042-14.055-10.462-24.512-4.421-10.457-9.231-21.707-10.69-25L84 75.5c-4.135-9.335-6.695-15.241-13-30s-8.865-20.665-13-30l-3.429-7.75L52.027 2H34.514C24.881 2 17 2.169 17 2.376M89.552 4.25c.598 1.962 2.281 6.063 5.435 13.25 1.151 2.623 1.468 3.372 18.074 42.75C120.889 78.813 127.689 94 128.172 94c.483 0 1.326-1.237 1.873-2.75.548-1.513 1.412-3.65 1.921-4.75.509-1.1 1.874-4.25 3.034-7 1.16-2.75 2.509-5.9 2.998-7 3.389-7.623 28.368-67.348 28.754-68.75.452-1.645-1.868-1.75-38.703-1.75H88.865l.687 2.25" fill="#1976D2" fill-rule="evenodd"/><path fill-opacity=".112" d="M18 2.53c0 .583 3.581 9.203 7.56 18.196 3.362 7.6 4.025 9.118 5.798 13.274a817.895 817.895 0 003.939 9c1.346 3.025 4.362 10 6.703 15.5 3.681 8.649 5.717 13.331 10 23s6.319 14.351 10 23 5.717 13.331 10 23c3.94 8.894 6.617 15.108 12.492 29 5.873 13.886 8.092 19.033 12.508 29 4.283 9.669 6.319 14.351 10 23 2.341 5.5 5.357 12.475 6.703 15.5a817.895 817.895 0 013.939 9c2.318 5.434 3.011 7.011 6.295 14.32 1.684 3.751 3.063 7.238 3.063 7.75 0 2.026 1.586.756 2.896-2.32.761-1.787 2.388-5.5 3.616-8.25 1.228-2.75 4.147-9.5 6.488-15 3.681-8.649 5.717-13.331 10-23s6.319-14.351 10-23c2.341-5.5 5.323-12.334 6.628-15.186 1.305-2.852 2.372-5.407 2.372-5.677 0-.27 1.52-3.786 3.377-7.814 1.858-4.028 5.29-11.823 7.628-17.323s5.318-12.334 6.623-15.186c1.305-2.852 2.372-5.458 2.372-5.792 0-.333 1.304-3.399 2.898-6.814 1.594-3.414 6.827-15.433 11.63-26.708 7.589-17.818 10.1-23.631 14.472-33.5 4.811-10.861 6.338-14.362 8.5-19.5a756.17 756.17 0 015.077-11.726c4.569-10.257 5.189-11.737 5.887-14.049l.686-2.274-16.654.274-16.655.275-2.776 6.5a1491.402 1491.402 0 01-8.063 18.5A1424.031 1424.031 0 00184 50.5c-3.681 8.649-5.717 13.331-10 23-4.811 10.861-6.338 14.362-8.5 19.5s-3.689 8.639-8.5 19.5c-4.283 9.669-6.319 14.351-10 23-4.384 10.3-6.352 14.802-13.554 31-1.467 3.3-3.07 7.049-3.563 8.331-.492 1.282-1.376 2.171-1.963 1.976-.588-.196-3.966-7.095-7.506-15.332-3.541-8.236-7.138-16.55-7.994-18.475-.855-1.925-1.949-4.4-2.431-5.5-.481-1.1-2.021-4.591-3.422-7.758C105.166 126.575 99.061 112.291 93 98S80.834 69.425 79.433 66.258L76 58.5c-4.283-9.669-6.319-14.351-10-23-2.341-5.5-5.357-12.475-6.703-15.5A801.51 801.51 0 0152.89 5.25L51.512 2H34.756C25.54 2 18 2.239 18 2.53m72 .433c0 1.148 2.768 8.245 6.45 16.537 1.465 3.3 3.059 6.9 3.541 8 .483 1.1 5.665 13.475 11.516 27.5s11.221 26.85 11.932 28.5c.711 1.65 1.913 4.463 2.671 6.25.758 1.788 1.609 3.25 1.89 3.25.281 0 1.136-1.463 1.898-3.25.762-1.788 2.255-5.275 3.316-7.75 3.879-9.042 4.937-11.54 5.72-13.5.439-1.1 1.284-3.125 1.878-4.5.593-1.375 2.028-4.75 3.188-7.5 1.16-2.75 2.504-5.9 2.987-7 .483-1.1 1.542-3.575 2.354-5.5C163.026 11.542 166 4.264 166 3.227 166 2.279 157.36 2 128 2c-23.693 0-38 .363-38 .963" fill="#1976D2" fill-rule="evenodd"/></svg>