<?xml version="1.0" encoding="utf-8"?>
<svg version="1.1" id="Capa_1_1_" xmlns="http://www.w3.org/2000/svg" xmlns:xlink="http://www.w3.org/1999/xlink" x="0px" y="0px"
	 width="595.2792969px" height="594px" viewBox="0.0002446 0 595.2792969 594" enable-background="new 0.0002446 0 595.2792969 594"
	 xml:space="preserve">
<g>
	<linearGradient id="SVGID_1_" gradientUnits="userSpaceOnUse" x1="557.2766113" y1="37.5185547" x2="37.5441895" y2="557.2509766">
		<stop  offset="0" style="stop-color:#E3E3E3"/>
		<stop  offset="1" style="stop-color:#000000"/>
	</linearGradient>
	<path fill="url(#SVGID_1_)" d="M592.8254395,471.4287109c0,67.0273438-54.3554688,121.3779297-121.3505859,121.3779297H123.3679199
		c-67.0351563,0-121.3676758-54.3505859-121.3676758-121.3779297V123.3266602
		c0-67.0283203,54.3325195-121.3510742,121.3676758-121.3510742h348.1069336
		c66.9951172,0,121.3505859,54.3227539,121.3505859,121.3510742V471.4287109z"/>
	<g>
		<radialGradient id="SVGID_2_" cx="290.1755371" cy="509.9902344" r="427.1737366" gradientUnits="userSpaceOnUse">
			<stop  offset="0.168367" style="stop-color:#C2181E"/>
			<stop  offset="0.765306" style="stop-color:#DE2925"/>
		</radialGradient>
		<path fill="url(#SVGID_2_)" d="M519.4250488,350.9697266c0,55.9648438-19.140625,101.3261719-75.0742188,101.3261719H156.4538574
			c-55.9624023,0-81.0693359-45.3613281-81.0693359-101.3261719V243.8144531
			c0-55.965332,22.7260742-101.3164063,78.6782227-101.3164063H446.708252
			c55.9667969,0,72.7167969,45.3510742,72.7167969,101.3164063V350.9697266z"/>
		<g>
			<polygon fill="#FFFFFF" points="252.9084473,236.8554688 373.8596191,299.9873047 252.9084473,363.09375 			"/>
			<polygon fill="#E8E0E0" points="252.9084473,237.8134766 358.1008301,308.1826172 373.8596191,299.9873047 
				262.2521973,241.7451172 252.9084473,237.6884766 			"/>
		</g>
	</g>
</g>
</svg>
