<?xml version="1.0" encoding="UTF-8" standalone="no"?>
<svg width="1907px" height="365px" viewBox="0 0 1907 365" version="1.1" xmlns="http://www.w3.org/2000/svg" xmlns:xlink="http://www.w3.org/1999/xlink">
    <!-- Generator: Sketch 44.1 (41455) - http://www.bohemiancoding.com/sketch -->
    <title>Artboard</title>
    <desc>Created with Sketch.</desc>
    <defs></defs>
    <g id="Page-1" stroke="none" stroke-width="1" fill="none" fill-rule="evenodd">
        <g id="Artboard">
            <g id="Triangles" transform="translate(16.000000, 14.000000)">
                <polygon id="Light-Blue" fill="#00CBFE" transform="translate(140.000000, 188.500000) rotate(180.000000) translate(-140.000000, -188.500000) " points="140 40 280 337 0 337"></polygon>
                <polygon id="Grey" fill="#BFBFBF" transform="translate(140.000000, 148.500000) rotate(180.000000) translate(-140.000000, -148.500000) " points="140 0 280 297 -5.68434189e-14 297"></polygon>
                <polygon id="Dark-Blue" fill="#0098BF" transform="translate(139.997977, 168.500000) rotate(180.000000) translate(-139.997977, -168.500000) " points="139.997977 40 261.197974 297 18.7979798 297"></polygon>
            </g>
            <path d="M600.455078,54.8867188 L622.785156,54.8867188 L512.744141,349 L494.638672,349 L385,54.8867188 L406.927734,54.8867188 L480.958984,255.052734 C492.224666,285.228667 499.802064,307.893804 503.691406,323.048828 C506.373711,312.990184 511.671184,297.365991 519.583984,276.175781 L600.455078,54.8867188 Z M900.504059,349 L739.767731,349 L739.767731,54.8867188 L900.504059,54.8867188 L900.504059,73.796875 L760.287262,73.796875 L760.287262,185.044922 L892.658356,185.044922 L892.658356,203.955078 L760.287262,203.955078 L760.287262,330.089844 L900.504059,330.089844 L900.504059,349 Z M1062.95148,220.853516 L1062.95148,349 L1042.43195,349 L1042.43195,54.8867188 L1112.43976,54.8867188 C1148.91911,54.8867188 1175.87587,61.6259092 1193.31085,75.1044922 C1210.74584,88.5830752 1219.4632,108.867703 1219.4632,135.958984 C1219.4632,155.673927 1214.26631,172.303969 1203.87238,185.849609 C1193.47844,199.39525 1177.68661,209.11846 1156.4964,215.019531 L1236.36163,349 L1211.81866,349 L1135.97687,220.853516 L1062.95148,220.853516 Z M1062.95148,203.150391 L1119.07843,203.150391 C1143.88975,203.150391 1163.135,197.618219 1176.81476,186.553711 C1190.49451,175.489202 1197.33429,159.160915 1197.33429,137.568359 C1197.33429,115.171112 1190.62863,98.876353 1177.2171,88.6835938 C1163.80558,78.4908345 1141.94512,73.3945312 1111.63507,73.3945312 L1062.95148,73.3945312 L1062.95148,203.150391 Z M1478.27194,200.736328 L1586.70358,200.736328 L1586.70358,334.917969 C1558.27115,346.988342 1526.28514,353.023437 1490.7446,353.023437 C1444.34072,353.023437 1408.76718,339.913868 1384.02292,313.694336 C1359.27865,287.474804 1346.90671,250.358964 1346.90671,202.345703 C1346.90671,172.438002 1353.04239,145.917108 1365.31393,122.782227 C1377.58548,99.6473453 1395.15431,81.7767557 1418.02097,69.1699219 C1440.88762,56.563088 1467.14028,50.2597656 1496.77975,50.2597656 C1528.8333,50.2597656 1557.60059,56.1607483 1583.08249,67.9628906 L1574.83444,86.4707031 C1549.35254,74.6685608 1522.93224,68.7675781 1495.57272,68.7675781 C1456.81342,68.7675781 1426.06795,80.737185 1403.33542,104.676758 C1380.60288,128.616331 1369.23679,160.904094 1369.23679,201.541016 C1369.23679,245.799049 1380.0329,279.092662 1401.62546,301.422852 C1423.21801,323.753041 1454.9358,334.917969 1496.77975,334.917969 C1523.87104,334.917969 1546.87146,331.095741 1565.78171,323.451172 L1565.78171,220.048828 L1478.27194,220.048828 L1478.27194,200.736328 Z M1896.60999,349 L1735.87366,349 L1735.87366,54.8867188 L1896.60999,54.8867188 L1896.60999,73.796875 L1756.39319,73.796875 L1756.39319,185.044922 L1888.76428,185.044922 L1888.76428,203.955078 L1756.39319,203.955078 L1756.39319,330.089844 L1896.60999,330.089844 L1896.60999,349 Z" id="VERGE" fill="#000000"></path>
        </g>
    </g>
</svg>