<?xml version="1.0" encoding="UTF-8" standalone="no"?>
<svg width="2034px" height="365px" viewBox="0 0 2034 365" version="1.1" xmlns="http://www.w3.org/2000/svg" xmlns:xlink="http://www.w3.org/1999/xlink">
    <!-- Generator: Sketch 44.1 (41455) - http://www.bohemiancoding.com/sketch -->
    <title>Artboard</title>
    <desc>Created with Sketch.</desc>
    <defs></defs>
    <g id="Page-1" stroke="none" stroke-width="1" fill="none" fill-rule="evenodd">
        <g id="Artboard">
            <g id="Triangles" transform="translate(16.000000, 14.000000)">
                <polygon id="Light-Blue" fill="#00CBFE" transform="translate(140.000000, 188.500000) rotate(180.000000) translate(-140.000000, -188.500000) " points="140 40 280 337 0 337"></polygon>
                <polygon id="Grey" fill="#BFBFBF" transform="translate(140.000000, 148.500000) rotate(180.000000) translate(-140.000000, -148.500000) " points="140 0 280 297 -5.68434189e-14 297"></polygon>
                <polygon id="Dark-Blue" fill="#0098BF" transform="translate(139.997977, 168.500000) rotate(180.000000) translate(-139.997977, -168.500000) " points="139.997977 40 261.197974 297 18.7979798 297"></polygon>
            </g>
            <path d="M717.455078,54.8867188 L739.785156,54.8867188 L629.744141,349 L611.638672,349 L502,54.8867188 L523.927734,54.8867188 L597.958984,255.052734 C609.224666,285.228667 616.802064,307.893804 620.691406,323.048828 C623.373711,312.990184 628.671184,297.365991 636.583984,276.175781 L717.455078,54.8867188 Z M1017.50406,349 L856.767731,349 L856.767731,54.8867188 L1017.50406,54.8867188 L1017.50406,73.796875 L877.287262,73.796875 L877.287262,185.044922 L1009.65836,185.044922 L1009.65836,203.955078 L877.287262,203.955078 L877.287262,330.089844 L1017.50406,330.089844 L1017.50406,349 Z M1179.95148,220.853516 L1179.95148,349 L1159.43195,349 L1159.43195,54.8867188 L1229.43976,54.8867188 C1265.91911,54.8867188 1292.87587,61.6259092 1310.31085,75.1044922 C1327.74584,88.5830752 1336.4632,108.867703 1336.4632,135.958984 C1336.4632,155.673927 1331.26631,172.303969 1320.87238,185.849609 C1310.47844,199.39525 1294.68661,209.11846 1273.4964,215.019531 L1353.36163,349 L1328.81866,349 L1252.97687,220.853516 L1179.95148,220.853516 Z M1179.95148,203.150391 L1236.07843,203.150391 C1260.88975,203.150391 1280.135,197.618219 1293.81476,186.553711 C1307.49451,175.489202 1314.33429,159.160915 1314.33429,137.568359 C1314.33429,115.171112 1307.62863,98.876353 1294.2171,88.6835938 C1280.80558,78.4908345 1258.94512,73.3945312 1228.63507,73.3945312 L1179.95148,73.3945312 L1179.95148,203.150391 Z M1595.27194,200.736328 L1703.70358,200.736328 L1703.70358,334.917969 C1675.27115,346.988342 1643.28514,353.023437 1607.7446,353.023437 C1561.34072,353.023437 1525.76718,339.913868 1501.02292,313.694336 C1476.27865,287.474804 1463.90671,250.358964 1463.90671,202.345703 C1463.90671,172.438002 1470.04239,145.917108 1482.31393,122.782227 C1494.58548,99.6473453 1512.15431,81.7767557 1535.02097,69.1699219 C1557.88762,56.563088 1584.14028,50.2597656 1613.77975,50.2597656 C1645.8333,50.2597656 1674.60059,56.1607483 1700.08249,67.9628906 L1691.83444,86.4707031 C1666.35254,74.6685608 1639.93224,68.7675781 1612.57272,68.7675781 C1573.81342,68.7675781 1543.06795,80.737185 1520.33542,104.676758 C1497.60288,128.616331 1486.23679,160.904094 1486.23679,201.541016 C1486.23679,245.799049 1497.0329,279.092662 1518.62546,301.422852 C1540.21801,323.753041 1571.9358,334.917969 1613.77975,334.917969 C1640.87104,334.917969 1663.87146,331.095741 1682.78171,323.451172 L1682.78171,220.048828 L1595.27194,220.048828 L1595.27194,200.736328 Z M2013.60999,349 L1852.87366,349 L1852.87366,54.8867188 L2013.60999,54.8867188 L2013.60999,73.796875 L1873.39319,73.796875 L1873.39319,185.044922 L2005.76428,185.044922 L2005.76428,203.955078 L1873.39319,203.955078 L1873.39319,330.089844 L2013.60999,330.089844 L2013.60999,349 Z" id="VERGE" fill="#000000"></path>
        </g>
    </g>
</svg>